<svg xmlns="http://www.w3.org/2000/svg" width="56" height="56" viewBox="0 0 56 56" fill="none"><rect width="56" height="56" rx="28" fill="#E7F5FF"></rect><path d="M22.75 27.1562L23.7344 29.125H21.7188L22.75 27.1562ZM32.5 29.125C32.5 29.7812 31.9844 30.25 31.375 30.25C30.7188 30.25 30.25 29.7812 30.25 29.125C30.25 28.5156 30.7188 28 31.375 28C31.9844 28 32.5 28.5156 32.5 29.125ZM37 17.5C38.6406 17.5 40 18.8594 40 20.5V35.5C40 37.1875 38.6406 38.5 37 38.5H16C14.3125 38.5 13 37.1875 13 35.5V20.5C13 18.8594 14.3125 17.5 16 17.5H37ZM23.7344 24.1562C23.5469 23.7812 23.1719 23.5 22.75 23.5C22.2812 23.5 21.9062 23.7812 21.7188 24.1562L18.3438 30.9062C18.0625 31.4688 18.2969 32.125 18.8594 32.4062C19.4219 32.6875 20.0781 32.4531 20.3594 31.8906L20.5938 31.375H24.8594L25.0938 31.8906C25.375 32.4531 26.0312 32.6875 26.5938 32.4062C27.1562 32.125 27.3906 31.4688 27.1094 30.9062L23.7344 24.1562ZM32.5 25.9844C32.125 25.8438 31.75 25.75 31.375 25.75C29.5 25.75 28 27.2969 28 29.125C28 31 29.5 32.5 31.375 32.5C31.8906 32.5 32.3594 32.4062 32.8281 32.1719C33.0156 32.4062 33.2969 32.5 33.625 32.5C34.2344 32.5 34.75 32.0312 34.75 31.375V24.625C34.75 24.0156 34.2344 23.5 33.625 23.5C32.9688 23.5 32.5 24.0156 32.5 24.625V25.9844Z" fill="#083A5E"></path></svg>