<svg xmlns="http://www.w3.org/2000/svg" width="109" height="33" viewBox="0 0 109 33" fill="none"><g clip-path="url(#clip0_90_358)"><path fill-rule="evenodd" clip-rule="evenodd" d="M67.6215 25.8069C61.2873 30.4973 52.1063 32.9998 44.2017 32.9998C33.118 32.9998 23.1399 28.8814 15.5911 22.0316C14.998 21.493 15.5294 20.7589 16.2411 21.1784C24.3878 25.9403 34.4608 28.8051 44.8659 28.8051C51.8833 28.8051 59.603 27.3465 66.701 24.3196C67.7733 23.862 68.6701 25.0251 67.6215 25.8069Z" fill="#083A5E"></path><path fill-rule="evenodd" clip-rule="evenodd" d="M70.2548 22.78C69.4481 21.7409 64.9027 22.2891 62.8625 22.5322C62.2409 22.6084 62.1461 22.065 62.7059 21.6741C66.3261 19.1144 72.2665 19.8533 72.9592 20.7113C73.652 21.5741 72.7789 27.5563 69.377 30.4115C68.8551 30.8501 68.3569 30.6165 68.5894 30.035C69.3533 28.1188 71.0661 23.8239 70.2548 22.78Z" fill="#083A5E"></path><path fill-rule="evenodd" clip-rule="evenodd" d="M63.0048 3.60376V1.11554C63.0048 0.738966 63.2895 0.486328 63.6311 0.486328H74.7195C75.0753 0.486328 75.36 0.743733 75.36 1.11554V3.24626C75.3553 3.60376 75.0564 4.0709 74.525 4.80974L68.7791 13.0514C70.9142 12.999 73.168 13.3183 75.1038 14.4147C75.5403 14.6626 75.6589 15.0248 75.6922 15.3823V18.0374C75.6922 18.3997 75.2936 18.8239 74.8761 18.6046C71.4646 16.8076 66.9334 16.6121 63.1614 18.6237C62.7771 18.8334 62.3738 18.414 62.3738 18.0517V15.5301C62.3738 15.1249 62.3785 14.4338 62.7818 13.8189L69.4386 4.22821H63.6454C63.2895 4.22821 63.0048 3.97557 63.0048 3.60376Z" fill="#083A5E"></path><path fill-rule="evenodd" clip-rule="evenodd" d="M22.5563 19.129H19.1828C18.8601 19.1052 18.6039 18.8621 18.5802 18.5522V1.15847C18.5802 0.810503 18.8696 0.534037 19.2302 0.534037H22.376C22.7033 0.548328 22.9643 0.800968 22.988 1.11557V3.3893H23.0497C23.8705 1.19184 25.4126 0.166992 27.4907 0.166992C29.6021 0.166992 30.9212 1.19184 31.8701 3.3893C32.6862 1.19184 34.5414 0.166992 36.5294 0.166992C37.9433 0.166992 39.4901 0.753297 40.4343 2.06891C41.5019 3.53229 41.2836 5.65826 41.2836 7.52205L41.2788 18.4998C41.2788 18.8478 40.9894 19.129 40.6288 19.129H37.2601C36.9232 19.1052 36.6528 18.8335 36.6528 18.4998V9.28097C36.6528 8.54689 36.7192 6.71647 36.5579 6.02052C36.3064 4.85268 35.552 4.52378 34.5746 4.52378C33.7585 4.52378 32.9045 5.07195 32.5581 5.94903C32.2117 6.82611 32.2449 8.29425 32.2449 9.28097V18.4998C32.2449 18.8478 31.9555 19.129 31.5949 19.129H28.2262C27.8846 19.1052 27.6189 18.8335 27.6189 18.4998L27.6141 9.28097C27.6141 7.34091 27.932 4.48565 25.5359 4.48565C23.1114 4.48565 23.2063 7.26941 23.2063 9.28097V18.4998C23.2063 18.8478 22.9169 19.129 22.5563 19.129Z" fill="#083A5E"></path><path fill-rule="evenodd" clip-rule="evenodd" d="M84.9063 0.166992C89.912 0.166992 92.6212 4.48564 92.6212 9.9769C92.6212 15.2823 89.6273 19.4913 84.9063 19.4913C79.9908 19.4913 77.3148 15.1726 77.3148 9.791C77.3148 4.37601 80.024 0.166992 84.9063 0.166992ZM84.9348 3.7182C82.4486 3.7182 82.292 7.12163 82.292 9.24282C82.292 11.3688 82.2588 15.9067 84.9063 15.9067C87.5207 15.9067 87.644 12.2459 87.644 10.015C87.644 8.54689 87.5824 6.79274 87.1411 5.40086C86.7615 4.19011 86.0071 3.7182 84.9348 3.7182Z" fill="#083A5E"></path><path fill-rule="evenodd" clip-rule="evenodd" d="M99.1121 19.129H95.7528C95.4159 19.1052 95.1455 18.8335 95.1455 18.4998L95.1407 1.10127C95.1692 0.781896 95.4492 0.534037 95.7908 0.534037H98.9175C99.2117 0.548328 99.4537 0.748531 99.5201 1.02023V3.68007H99.5818C100.526 1.30148 101.85 0.166992 104.179 0.166992C105.693 0.166992 107.169 0.715168 108.118 2.21668C109 3.60857 109 5.94903 109 7.63168V18.5808C108.962 18.8859 108.682 19.129 108.35 19.129H104.967C104.659 19.1052 104.402 18.8764 104.369 18.5808V9.1332C104.369 7.23127 104.587 4.44751 102.258 4.44751C101.437 4.44751 100.683 5.00045 100.308 5.83939C99.8333 6.90237 99.7716 7.96058 99.7716 9.1332V18.4998C99.7668 18.8478 99.4727 19.129 99.1121 19.129Z" fill="#083A5E"></path><path fill-rule="evenodd" clip-rule="evenodd" d="M54.1657 10.8205C54.1657 12.1408 54.1989 13.242 53.5347 14.4146C52.9985 15.3679 52.1445 15.9542 51.2003 15.9542C49.905 15.9542 49.1458 14.9627 49.1458 13.4994C49.1458 10.6107 51.7222 10.0864 54.1657 10.0864V10.8205ZM57.5677 19.0812C57.3447 19.2814 57.022 19.2957 56.7706 19.1622C55.6508 18.2279 55.4468 17.7942 54.8347 16.9028C52.9843 18.7999 51.67 19.3672 49.2739 19.3672C46.4319 19.3672 44.2256 17.6083 44.2256 14.0857C44.2256 11.3353 45.7059 9.46194 47.8221 8.54673C49.6535 7.73639 52.2109 7.59339 54.1657 7.36935V6.93082C54.1657 6.12524 54.2274 5.1719 53.7529 4.47596C53.3449 3.85152 52.5573 3.59411 51.8598 3.59411C50.574 3.59411 49.4305 4.25668 49.1506 5.6295C49.0936 5.93457 48.8706 6.23487 48.5622 6.24917L45.2931 5.89643C45.018 5.83447 44.7095 5.61044 44.7902 5.1862C45.5399 1.20122 49.1269 0 52.3343 0C53.9759 0 56.1206 0.438539 57.4159 1.68742C59.0575 3.22707 58.9009 5.28153 58.9009 7.51712V12.7986C58.9009 14.386 59.5557 15.0819 60.1725 15.9399C60.386 16.245 60.4335 16.612 60.1583 16.8408C59.4703 17.4176 58.2462 18.4901 57.5724 19.0907L57.5677 19.0812Z" fill="#083A5E"></path><path fill-rule="evenodd" clip-rule="evenodd" d="M9.94015 10.8205C9.94015 12.1408 9.97336 13.242 9.3091 14.4146C8.77295 15.3679 7.92365 15.9542 6.97471 15.9542C5.6794 15.9542 4.925 14.9627 4.925 13.4994C4.925 10.6107 7.50137 10.0864 9.94015 10.0864V10.8205ZM13.3421 19.0812C13.1191 19.2814 12.7965 19.2957 12.545 19.1622C11.4252 18.2279 11.226 17.7942 10.6091 16.9028C8.75871 18.7999 7.44918 19.3672 5.04836 19.3672C2.21103 19.3672 0 17.6083 0 14.0857C0 11.3353 1.48509 9.46194 3.59648 8.54673C5.42794 7.73639 7.98533 7.59339 9.94015 7.36935V6.93082C9.94015 6.12524 10.0018 5.1719 9.5321 4.47596C9.11931 3.85152 8.33169 3.59411 7.63897 3.59411C6.35315 3.59411 5.20494 4.25668 4.925 5.6295C4.86806 5.93457 4.64506 6.23487 4.3414 6.24917L1.06756 5.89643C0.792364 5.83447 0.488703 5.61044 0.564618 5.1862C1.31903 1.20122 4.90127 0 8.10869 0C9.75036 0 11.895 0.438539 13.1903 1.68742C14.8319 3.22707 14.6754 5.28153 14.6754 7.51712V12.7986C14.6754 14.386 15.3301 15.0819 15.9469 15.9399C16.1652 16.245 16.2126 16.612 15.9374 16.8408C15.2495 17.4176 14.0253 18.4901 13.3516 19.0907L13.3421 19.0812Z" fill="#083A5E"></path></g><defs><clipPath id="clip0_90_358"><rect width="109" height="33" fill="white"></rect></clipPath></defs></svg>