<svg xmlns="http://www.w3.org/2000/svg" width="40" height="36" viewBox="0 0 40 36" fill="none"><path d="M0 5.5C0 2.76562 2.1875 0.5 5 0.5H35C37.7344 0.5 40 2.76562 40 5.5V30.5C40 33.3125 37.7344 35.5 35 35.5H5C2.1875 35.5 0 33.3125 0 30.5V5.5ZM7.5 10.5C8.82812 10.5 10 9.40625 10 8C10 6.67188 8.82812 5.5 7.5 5.5C6.09375 5.5 5 6.67188 5 8C5 9.40625 6.09375 10.5 7.5 10.5ZM35 8C35 6.98438 34.1406 6.125 33.125 6.125H14.375C13.2812 6.125 12.5 6.98438 12.5 8C12.5 9.09375 13.2812 9.875 14.375 9.875H33.125C34.1406 9.875 35 9.09375 35 8Z" fill="#3F3EED"></path></svg>