<svg xmlns="http://www.w3.org/2000/svg" width="130" height="39" viewBox="0 0 130 39" fill="none"><path d="M19.4963 0C8.72961 0 0 8.73226 0 19.5022C0 30.2721 8.72961 39.0044 19.4963 39.0044C30.263 39.0044 38.9926 30.2721 38.9926 19.5022C38.9882 8.73226 30.263 0 19.4963 0ZM28.4357 28.1251C28.086 28.698 27.3385 28.8816 26.7659 28.5274C22.189 25.7289 16.4276 25.0949 9.63886 26.6472C8.98315 26.7958 8.33182 26.3892 8.18319 25.7333C8.03457 25.0774 8.4411 24.4258 9.09681 24.2772C16.5238 22.5806 22.8928 23.3152 28.0336 26.4548C28.6062 26.8046 28.7854 27.5523 28.4357 28.1251ZM30.8225 22.8167C30.381 23.5338 29.4455 23.7568 28.733 23.3152C23.4961 20.0925 15.5052 19.1611 9.30663 21.0414C8.5023 21.2862 7.65426 20.8315 7.40946 20.0269C7.16904 19.2223 7.61929 18.374 8.42362 18.1292C15.5052 15.9822 24.3048 17.0229 30.3242 20.7222C31.0367 21.1682 31.2596 22.1039 30.8225 22.8167ZM31.0279 17.2852C24.7419 13.5553 14.3774 13.2099 8.37991 15.0333C7.41821 15.3263 6.39968 14.7797 6.1068 13.8177C5.81391 12.8557 6.36034 11.8369 7.32204 11.5439C14.2069 9.45375 25.6555 9.85604 32.8901 14.1544C33.7557 14.6704 34.0398 15.7898 33.5284 16.6556C33.0125 17.517 31.8891 17.8012 31.0279 17.2852ZM53.0378 18.0024C49.6718 17.1978 49.0729 16.6337 49.0729 15.4531C49.0729 14.3337 50.1264 13.5816 51.6914 13.5816C53.2082 13.5816 54.7164 14.1544 56.2901 15.3306C56.3381 15.3656 56.3993 15.3787 56.4562 15.37C56.513 15.3613 56.5655 15.3306 56.6004 15.2782L58.2441 12.9606C58.3096 12.8644 58.2921 12.7333 58.2003 12.6589C56.3207 11.1504 54.2093 10.4201 51.7351 10.4201C48.1025 10.4201 45.5627 12.6021 45.5627 15.7242C45.5627 19.0737 47.7528 20.2587 51.5384 21.1726C54.7601 21.9159 55.3021 22.5368 55.3021 23.6475C55.3021 24.8806 54.2049 25.6458 52.4345 25.6458C50.4718 25.6458 48.8675 24.9855 47.0752 23.4289C47.0315 23.3895 46.9703 23.372 46.9135 23.3764C46.8523 23.3808 46.7998 23.407 46.7605 23.4551L44.9158 25.6502C44.8371 25.742 44.8502 25.8776 44.9376 25.9563C47.0228 27.819 49.5888 28.8029 52.3558 28.8029C56.2726 28.8029 58.8036 26.6603 58.8036 23.3502C58.8123 20.5516 57.1381 19.0037 53.0378 18.0067V18.0024ZM67.6731 14.6835C65.977 14.6835 64.5825 15.3525 63.4372 16.7212V15.1776C63.4372 15.0552 63.3367 14.9546 63.2187 14.9546H60.2068C60.0844 14.9546 59.9882 15.0552 59.9882 15.1776V32.3185C59.9882 32.441 60.0888 32.5415 60.2068 32.5415H63.2187C63.3411 32.5415 63.4372 32.441 63.4372 32.3185V26.9095C64.5869 28.1995 65.977 28.8291 67.6731 28.8291C70.8292 28.8291 74.0203 26.4023 74.0203 21.7585C74.0247 17.1103 70.8292 14.6835 67.6731 14.6835ZM70.5145 21.7541C70.5145 24.1197 69.0588 25.7682 66.9737 25.7682C64.9148 25.7682 63.3586 24.0454 63.3586 21.7541C63.3586 19.4672 64.9148 17.74 66.9737 17.74C69.0238 17.74 70.5145 19.4279 70.5145 21.7541ZM82.2035 14.6835C78.1425 14.6835 74.9602 17.8143 74.9602 21.8066C74.9602 25.7595 78.1207 28.8554 82.1554 28.8554C86.2339 28.8554 89.425 25.7376 89.425 21.7585C89.4206 17.7881 86.2514 14.6835 82.2035 14.6835ZM82.2035 25.7945C80.0441 25.7945 78.4135 24.0585 78.4135 21.7541C78.4135 19.441 79.9872 17.7662 82.1511 17.7662C84.3236 17.7662 85.9673 19.5022 85.9673 21.8066C85.9673 24.1154 84.3848 25.7945 82.2035 25.7945ZM98.0978 14.959H94.7799V11.5658C94.7799 11.4433 94.6838 11.3471 94.5614 11.3471H91.5495C91.4271 11.3471 91.3265 11.4477 91.3265 11.5658V14.959H89.8753C89.7529 14.959 89.6567 15.0595 89.6567 15.182V17.775C89.6567 17.8974 89.7529 17.998 89.8753 17.998H91.3265V24.7013C91.3265 27.4124 92.6729 28.7854 95.3351 28.7854C96.4148 28.7854 97.3153 28.5624 98.159 28.0814C98.2289 28.042 98.2683 27.9677 98.2683 27.889V25.4228C98.2683 25.3485 98.2289 25.2741 98.1634 25.2348C98.0978 25.1954 98.0147 25.1911 97.9492 25.226C97.3678 25.519 96.8082 25.6546 96.1788 25.6546C95.2127 25.6546 94.7799 25.2173 94.7799 24.2291V17.9936H98.0978C98.2202 17.9936 98.3164 17.893 98.3164 17.7706V15.1776C98.3207 15.0595 98.2246 14.959 98.0978 14.959ZM109.651 14.9721V14.5567C109.651 13.3323 110.119 12.7857 111.173 12.7857C111.802 12.7857 112.305 12.9125 112.869 13.1006C112.939 13.1224 113.013 13.1137 113.065 13.07C113.122 13.0262 113.157 12.9606 113.157 12.8907V10.3502C113.157 10.254 113.096 10.1665 113 10.1403C112.401 9.96098 111.64 9.7817 110.495 9.7817C107.71 9.7817 106.242 11.3515 106.242 14.3162V14.9546H104.795C104.672 14.9546 104.572 15.0552 104.572 15.1732V17.7794C104.572 17.9018 104.672 18.0024 104.795 18.0024H106.242V28.3438C106.242 28.4662 106.338 28.5668 106.46 28.5668H109.472C109.594 28.5668 109.695 28.4662 109.695 28.3438V17.9892H112.51L116.82 28.3263C116.331 29.4107 115.85 29.6293 115.194 29.6293C114.665 29.6293 114.106 29.4719 113.533 29.1571C113.481 29.1265 113.415 29.1221 113.358 29.1396C113.301 29.1615 113.253 29.2008 113.227 29.2577L112.204 31.5008C112.156 31.6058 112.195 31.7326 112.3 31.7851C113.367 32.3623 114.329 32.6115 115.518 32.6115C117.743 32.6115 118.975 31.5752 120.06 28.7854L125.288 15.2694C125.314 15.1995 125.305 15.1251 125.266 15.0639C125.226 15.0027 125.157 14.9677 125.087 14.9677H121.948C121.852 14.9677 121.769 15.0289 121.738 15.1164L118.525 24.299L115.006 15.1076C114.976 15.0202 114.893 14.9677 114.801 14.9677L109.651 14.9721ZM102.954 14.959H99.9425C99.8201 14.959 99.7196 15.0595 99.7196 15.182V28.335C99.7196 28.4575 99.8201 28.558 99.9425 28.558H102.954C103.077 28.558 103.177 28.4575 103.177 28.335V15.1776C103.177 15.1208 103.155 15.0639 103.112 15.0202C103.068 14.9808 103.011 14.959 102.954 14.959ZM101.464 8.96838C100.27 8.96838 99.2999 9.93475 99.2999 11.1285C99.2999 12.3222 100.27 13.293 101.464 13.293C102.657 13.293 103.623 12.3266 103.623 11.1285C103.623 9.93475 102.657 8.96838 101.464 8.96838ZM127.867 19.1874C126.673 19.1874 125.747 18.2297 125.747 17.0666C125.747 15.9035 126.687 14.9327 127.88 14.9327C129.073 14.9327 130 15.8903 130 17.0535C130 18.2166 129.056 19.1874 127.867 19.1874ZM127.88 15.1426C126.791 15.1426 125.97 16.0084 125.97 17.0666C125.97 18.1248 126.787 18.9775 127.867 18.9775C128.951 18.9775 129.777 18.116 129.777 17.0535C129.777 15.9953 128.96 15.1426 127.88 15.1426ZM128.348 17.2721L128.947 18.1117H128.439L127.897 17.3421H127.434V18.1117H127.01V15.886H128.002C128.518 15.886 128.859 16.1527 128.859 16.5944C128.868 16.9617 128.654 17.1847 128.348 17.2721ZM127.989 16.2664H127.438V16.9704H127.989C128.265 16.9704 128.431 16.8348 128.431 16.6162C128.431 16.3888 128.265 16.2664 127.989 16.2664Z" fill="#1E2C4D"></path></svg>