<svg xmlns="http://www.w3.org/2000/svg" width="93" height="39" viewBox="0 0 93 39" fill="none"><path fill-rule="evenodd" clip-rule="evenodd" d="M92.9998 20.151C92.9998 13.4861 89.7965 8.22705 83.674 8.22705C77.5257 8.22705 73.8057 13.4861 73.8057 20.0989C73.8057 27.9353 78.1973 31.8926 84.5007 31.8926C87.5748 31.8926 89.8998 31.1897 91.6565 30.2003V24.9934C89.8998 25.8786 87.8848 26.4253 85.3273 26.4253C82.8215 26.4253 80.5998 25.5401 80.3157 22.468H92.9482C92.9482 22.1296 92.9998 20.7758 92.9998 20.151ZM80.2382 17.6777C80.2382 14.7357 82.0207 13.5121 83.6482 13.5121C85.224 13.5121 86.9032 14.7357 86.9032 17.6777H80.2382Z" fill="#1E2C4D"></path><path fill-rule="evenodd" clip-rule="evenodd" d="M63.8345 8.22705C61.3028 8.22705 59.6753 9.42465 58.7711 10.2578L58.4353 8.64361H52.752V39.0001L59.2103 37.6202L59.2361 30.2524C60.1661 30.9293 61.5353 31.8926 63.8086 31.8926C68.4328 31.8926 72.6436 28.1436 72.6436 19.8906C72.6178 12.3405 68.3553 8.22705 63.8345 8.22705ZM62.2845 26.165C60.7603 26.165 59.8561 25.6182 59.2361 24.9413L59.2103 15.2825C59.882 14.5275 60.812 14.0068 62.2845 14.0068C64.6353 14.0068 66.2628 16.6623 66.2628 20.0728C66.2628 23.5615 64.6611 26.165 62.2845 26.165Z" fill="#1E2C4D"></path><path fill-rule="evenodd" clip-rule="evenodd" d="M43.8652 6.69092L50.3494 5.28505V0L43.8652 1.37984V6.69092Z" fill="#1E2C4D"></path><path d="M50.3494 8.66943H43.8652V31.4498H50.3494V8.66943Z" fill="#1E2C4D"></path><path fill-rule="evenodd" clip-rule="evenodd" d="M36.9162 10.5961L36.5029 8.6695H30.9229V31.4499H37.3812V16.0113C38.9054 14.0066 41.4887 14.3711 42.2895 14.6575V8.6695C41.4629 8.35708 38.4404 7.78432 36.9162 10.5961Z" fill="#1E2C4D"></path><path fill-rule="evenodd" clip-rule="evenodd" d="M23.9991 3.02002L17.6958 4.37382L17.6699 25.2276C17.6699 29.0808 20.5374 31.9186 24.3608 31.9186C26.4791 31.9186 28.0291 31.528 28.8816 31.0594V25.7744C28.0549 26.1128 23.9733 27.3104 23.9733 23.4573V14.2149H28.8816V8.66955H23.9733L23.9991 3.02002Z" fill="#1E2C4D"></path><path fill-rule="evenodd" clip-rule="evenodd" d="M6.53583 15.2825C6.53583 14.2671 7.3625 13.8766 8.73167 13.8766C10.695 13.8766 13.175 14.4754 15.1383 15.5428V9.42465C12.9942 8.5655 10.8758 8.22705 8.73167 8.22705C3.4875 8.22705 0 10.9867 0 15.5949C0 22.7805 9.81667 21.6089 9.81667 24.707C9.81667 25.9046 8.78333 26.2951 7.33667 26.2951C5.1925 26.2951 2.45417 25.41 0.284167 24.2124V30.4086C2.68667 31.45 5.115 31.8926 7.33667 31.8926C12.71 31.8926 16.4042 29.211 16.4042 24.5508C16.3783 16.8185 6.53583 18.1983 6.53583 15.2825Z" fill="#1E2C4D"></path></svg>