<svg xmlns="http://www.w3.org/2000/svg" width="162" height="38" viewBox="0 0 162 38" fill="none"><path d="M142.302 12.7946C143.201 12.7946 143.944 12.334 144.048 11.7369L144.938 1.79125C144.938 0.810325 143.771 0 142.302 0C140.832 0 139.674 0.810325 139.674 1.79125L140.564 11.7369C140.66 12.3255 141.403 12.7946 142.302 12.7946ZM136.857 15.8994C137.306 15.1318 137.271 14.2617 136.796 13.8779L128.516 8.1459C127.651 7.65118 126.364 8.24826 125.629 9.50213C124.894 10.756 125.024 12.1549 125.88 12.6411L135.05 16.8548C135.629 17.068 136.407 16.6586 136.857 15.8994ZM147.747 15.8909C148.196 16.6586 148.974 17.068 149.553 16.8548L158.724 12.6411C159.588 12.1464 159.709 10.7475 158.983 9.50213C158.249 8.24826 156.952 7.65971 156.096 8.1459L147.816 13.8779C147.341 14.2617 147.306 15.1318 147.747 15.8909ZM142.302 25.2139C143.201 25.2139 143.944 25.6745 144.048 26.2716L144.938 36.2088C144.938 37.1982 143.771 38 142.302 38C140.832 38 139.674 37.1982 139.674 36.2088L140.564 26.2716C140.66 25.6745 141.403 25.2139 142.302 25.2139ZM147.747 22.1091C148.196 21.3414 148.974 20.9405 149.553 21.1452L158.724 25.3589C159.588 25.8536 159.709 27.2525 158.983 28.5064C158.249 29.7517 156.952 30.3488 156.096 29.8626L147.816 24.1392C147.341 23.7383 147.306 22.8768 147.747 22.1091ZM136.857 22.1006C137.306 22.8682 137.271 23.7383 136.796 24.1221L128.516 29.8456C127.651 30.3403 126.364 29.7432 125.629 28.4893C124.894 27.2355 125.024 25.8366 125.88 25.3419L135.05 21.1282C135.629 20.932 136.407 21.3329 136.857 22.1006Z" fill="#1E2C4C"></path><path d="M90.0711 24.1051C90.0711 24.4121 90.0451 24.7277 89.9587 25.0007C89.6043 26.1522 88.4029 27.1161 86.899 27.1161C85.6457 27.1161 84.6431 26.4081 84.6431 24.9239C84.6431 22.6465 87.1842 22.0153 90.0711 22.0323V24.1051ZM94.6001 20.1387C94.6001 16.3857 92.9752 13.0846 87.4867 13.0846C84.669 13.0846 82.4304 13.8694 81.2118 14.5603L82.102 17.5798C83.217 16.8804 84.9975 16.3089 86.6829 16.3089C89.466 16.3004 89.9241 17.8698 89.9241 18.8678V19.1066C83.8566 19.0981 80.0103 21.1708 80.0103 25.4016C80.0103 27.9861 81.9637 30.4 85.3605 30.4C87.4522 30.4 89.1981 29.5812 90.2439 28.2591H90.3476C90.3476 28.2591 91.0391 31.125 94.8594 30.0247C94.6606 28.8305 94.5915 27.5596 94.5915 26.0328L94.6001 20.1387ZM0 7.97533C0 7.97533 3.96724 24.0198 4.5982 26.6213C5.34151 29.6579 6.67257 30.7839 10.5102 30.0247L12.9908 20.079C13.6217 17.6054 14.0366 15.8483 14.4428 13.332H14.512C14.7972 15.8739 15.2034 17.6139 15.7134 20.0876C15.7134 20.0876 16.7246 24.5998 17.2346 26.9711C17.7532 29.3423 19.1966 30.835 22.9564 30.0247L28.8597 7.97533H24.0973L22.0834 17.5116C21.5389 20.2837 21.0463 22.4588 20.6746 24.9922H20.6055C20.2597 22.4759 19.8189 20.3946 19.2744 17.6907L17.1741 7.97533H12.2129L9.96564 17.4433C9.32604 20.3264 8.7383 22.6465 8.358 25.0945H8.28885C7.89991 22.783 7.38132 19.8658 6.82815 17.0766C6.82815 17.0766 5.49709 10.3039 5.03036 7.9668L0 7.97533ZM37.8746 24.1051C37.8746 24.4121 37.8487 24.7277 37.7623 25.0007C37.4079 26.1522 36.2065 27.1161 34.7026 27.1161C33.4493 27.1161 32.4467 26.4081 32.4467 24.9239C32.4467 22.6465 34.9878 22.0153 37.8746 22.0323V24.1051ZM42.4123 20.1387C42.4123 16.3857 40.7874 13.0846 35.2989 13.0846C32.4812 13.0846 30.2426 13.8694 29.024 14.5603L29.9142 17.5798C31.0292 16.8804 32.8097 16.3089 34.4951 16.3089C37.2869 16.3004 37.7363 17.8698 37.7363 18.8678V19.1066C31.6601 19.0981 27.8225 21.1708 27.8225 25.4016C27.8225 27.9861 29.7759 30.4 33.1727 30.4C35.2644 30.4 37.0103 29.5812 38.0561 28.2591H38.1598C38.1598 28.2591 38.8513 31.125 42.6803 30.0247C42.4815 28.8305 42.4123 27.5596 42.4123 26.0328V20.1387ZM49.9751 25.3419V7.97533H45.4374V30.0247H49.9751V25.3419ZM109.345 7.97533V24.2415C109.345 26.4849 109.778 28.0543 110.685 29.0182C111.489 29.8626 112.803 30.4 114.376 30.4C115.716 30.4 117.038 30.1441 117.66 29.9224L117.6 26.4252C117.133 26.536 116.606 26.6299 115.88 26.6299C114.333 26.6299 113.814 25.649 113.814 23.6359V17.4092H117.764V13.187H113.814V7.97533H109.345ZM97.6252 13.46V30.0247H102.31V21.5461C102.31 21.0855 102.336 20.6846 102.414 20.3264C102.759 18.5522 104.134 17.4178 106.113 17.4178C106.657 17.4178 107.046 17.4775 107.461 17.5372V13.2041C107.107 13.1358 106.865 13.1017 106.433 13.1017C104.687 13.1017 102.699 14.2106 101.86 16.5989H101.731V13.477H97.6252M53.1472 13.46V30.0247H57.7108V20.3093C57.7108 19.8573 57.7627 19.3711 57.9269 18.9531C58.3072 17.9722 59.2234 16.8292 60.7014 16.8292C62.5424 16.8292 63.4067 18.3646 63.4067 20.5823V30.0247H67.9617V20.1899C67.9617 19.7549 68.0222 19.2346 68.1518 18.8507C68.5235 17.7419 69.5175 16.8292 70.8917 16.8292C72.7587 16.8292 73.6489 18.339 73.6489 20.9491V30.0247H78.2126V20.2667C78.2126 15.1233 75.5677 13.0846 72.5772 13.0846C71.2548 13.0846 70.2089 13.4088 69.2668 13.9803C68.4716 14.4665 67.7629 15.1488 67.1406 16.0445H67.0714C66.354 14.2617 64.6513 13.0846 62.4473 13.0846C59.6123 13.0846 58.3331 14.5006 57.5552 15.7118H57.4775V13.46H53.1472Z" fill="#1E2C4C"></path><path d="M161.023 29.2227H161.092C161.187 29.2227 161.239 29.1886 161.239 29.1289C161.239 29.0692 161.187 29.035 161.101 29.035C161.075 29.035 161.04 29.0436 161.023 29.0436V29.2227ZM161.014 29.6662H160.772V28.89C160.824 28.8815 160.954 28.8644 161.118 28.8644C161.299 28.8644 161.377 28.89 161.438 28.9242C161.49 28.9583 161.524 29.018 161.524 29.0947C161.524 29.1715 161.446 29.2398 161.343 29.2739V29.2824C161.429 29.308 161.481 29.3677 161.507 29.4871C161.533 29.598 161.55 29.6492 161.559 29.6748H161.282C161.256 29.6492 161.248 29.5809 161.23 29.5042C161.213 29.4274 161.178 29.3848 161.092 29.3848H161.014V29.6662ZM161.109 28.6341C160.764 28.6341 160.496 28.9156 160.496 29.2739C160.496 29.6236 160.755 29.9051 161.118 29.9051C161.472 29.9136 161.74 29.6236 161.74 29.2653C161.74 28.9156 161.481 28.6341 161.109 28.6341ZM161.127 28.4209C161.611 28.4209 162 28.7962 162 29.2653C162 29.7345 161.611 30.1098 161.118 30.1098C160.625 30.1098 160.236 29.7345 160.236 29.2653C160.236 28.7962 160.625 28.4209 161.127 28.4209Z" fill="#1E2C4C"></path></svg>