<svg xmlns="http://www.w3.org/2000/svg" width="119" height="37" viewBox="0 0 119 37" fill="none"><g clip-path="url(#clip0_343_719)"><mask id="mask0_343_719" style="mask-type:luminance" maskUnits="userSpaceOnUse" x="0" y="0" width="119" height="37"><path d="M119 0H0V37H119V0Z" fill="white"></path></mask><g mask="url(#mask0_343_719)"><path d="M62.7016 9.29744C62.7016 10.632 61.6226 11.7072 60.2834 11.7072C58.9442 11.7072 57.8652 10.632 57.8652 9.29744C57.8652 7.96291 58.9061 6.88769 60.2834 6.88769C61.6607 6.92564 62.7016 8.00085 62.7016 9.29744ZM52.7432 14.1485V14.7431C52.7432 14.7431 51.5943 13.2631 49.1381 13.2631C45.0887 13.2631 41.9279 16.3369 41.9279 20.5935C41.9279 24.8185 45.0506 27.9239 49.1381 27.9239C51.6261 27.9239 52.7432 26.406 52.7432 26.406V27.0385C52.7432 27.3357 52.9653 27.5571 53.2636 27.5571H56.2721V13.6299H53.2636C52.9653 13.6299 52.7432 13.8892 52.7432 14.1485ZM52.7432 23.0728C52.1846 23.8887 51.0739 24.5908 49.7347 24.5908C47.3545 24.5908 45.533 23.1108 45.533 20.5872C45.533 18.0699 47.3545 16.5899 49.7347 16.5899C51.0358 16.5899 52.2227 17.3299 52.7432 18.1079V23.0728ZM58.4999 13.6299H62.0669V27.5571H58.4999V13.6299ZM111.796 13.2568C109.346 13.2568 108.191 14.7368 108.191 14.7368V6.92564H104.624V27.5571H107.632C107.93 27.5571 108.153 27.2978 108.153 27.0385V26.4123C108.153 26.4123 109.308 27.9303 111.758 27.9303C115.807 27.9303 118.968 24.8185 118.968 20.5998C118.968 16.3685 115.813 13.2568 111.796 13.2568ZM111.205 24.5528C109.828 24.5528 108.755 23.8508 108.197 23.0349V18.0699C108.755 17.3299 109.942 16.552 111.205 16.552C113.586 16.552 115.407 18.032 115.407 20.5492C115.401 23.0728 113.586 24.5528 111.205 24.5528ZM102.764 19.2969V27.595H99.1969V19.7017C99.1969 17.4058 98.4543 16.4824 96.4486 16.4824C95.3696 16.4824 94.2589 17.039 93.548 17.8549V27.5571H89.981V13.6299H92.8054C93.1038 13.6299 93.3259 13.8892 93.3259 14.1485V14.7431C94.3668 13.6679 95.7441 13.2631 97.1151 13.2631C98.6764 13.2631 99.9776 13.7058 101.018 14.5976C102.282 15.6285 102.764 16.9631 102.764 19.2969ZM81.3237 13.2568C78.8738 13.2568 77.7186 14.7368 77.7186 14.7368V6.92564H74.1516V27.5571H77.1601C77.4584 27.5571 77.6805 27.2978 77.6805 27.0385V26.4123C77.6805 26.4123 78.8357 27.9303 81.2856 27.9303C85.335 27.9303 88.4958 24.8185 88.4958 20.5998C88.5339 16.3685 85.3731 13.2568 81.3237 13.2568ZM80.7271 24.5528C79.3498 24.5528 78.2772 23.8508 77.7186 23.0349V18.0699C78.2772 17.3299 79.4641 16.552 80.7271 16.552C83.1072 16.552 84.9288 18.032 84.9288 20.5492C84.9288 23.0728 83.1072 24.5528 80.7271 24.5528ZM71.0606 13.2568C72.1396 13.2568 72.6981 13.4402 72.6981 13.4402V16.7354C72.6981 16.7354 69.7277 15.7361 67.8681 17.8485V27.5887H64.301V13.6299H67.3095C67.6078 13.6299 67.83 13.8892 67.83 14.1485V14.7431C68.4964 13.9651 69.9499 13.2568 71.0606 13.2568ZM34.0068 26.2985C33.8227 25.8557 33.6323 25.375 33.4483 24.9639C33.1499 24.2998 32.8516 23.6673 32.5914 23.0728L32.5533 23.0349C29.9891 17.4817 27.2409 11.8526 24.3403 6.29316L24.2261 6.07179C23.9214 5.49624 23.6231 4.91436 23.3375 4.33248C22.963 3.66838 22.5949 2.96 21.9983 2.2959C20.8177 0.815897 19.104 0 17.2824 0C15.4228 0 13.7535 0.815897 12.5285 2.22C11.97 2.8841 11.5638 3.59248 11.1893 4.25658C10.8973 4.83846 10.6054 5.42034 10.3007 5.9959L10.1865 6.21726C7.32399 11.7704 4.53765 17.3995 1.97346 22.959L1.93538 23.0349C1.67515 23.6294 1.37684 24.2556 1.07853 24.926C0.894469 25.3308 0.710406 25.7798 0.519996 26.2605C0.0376235 27.633 -0.114705 28.9296 0.0757055 30.2641C0.481914 33.0407 2.34159 35.3745 4.90578 36.4118C5.87052 36.8166 6.87335 37.0063 7.91426 37.0063C8.21257 37.0063 8.58069 36.9684 8.879 36.9304C10.104 36.785 11.367 36.3738 12.5983 35.6718C14.1216 34.8179 15.5687 33.5973 17.2063 31.82C18.8438 33.5973 20.329 34.8179 21.8142 35.6718C23.0392 36.3738 24.3022 36.785 25.5335 36.9304C25.8319 36.9684 26.2063 37.0063 26.4983 37.0063C27.5392 37.0063 28.5801 36.8229 29.5068 36.4118C32.109 35.3745 33.9306 33.0027 34.3368 30.2641C34.6415 28.9612 34.4892 27.6646 34.0068 26.2985ZM17.2444 28.2212C15.2387 25.7039 13.9376 23.3321 13.4933 21.3335C13.3092 20.4797 13.2711 19.7397 13.379 19.0756C13.4552 18.481 13.6773 17.9624 13.9756 17.5197C14.6802 16.5203 15.8734 15.8879 17.2444 15.8879C18.6217 15.8879 19.8466 16.4824 20.5131 17.5197C20.8114 17.9624 21.0335 18.481 21.1097 19.0756C21.2239 19.7397 21.1858 20.5176 20.9954 21.3335C20.5575 23.2942 19.2564 25.666 17.2444 28.2212ZM32.0773 29.9605C31.8171 31.8832 30.5159 33.553 28.6944 34.293C27.7994 34.6598 26.8347 34.7737 25.8699 34.6598C24.9433 34.546 24.0103 34.255 23.0455 33.6985C21.7063 32.9585 20.3671 31.8073 18.8057 30.106C21.2557 27.108 22.7472 24.3631 23.3057 21.9217C23.566 20.7706 23.6041 19.7333 23.4898 18.772C23.3438 17.8485 23.0074 16.9947 22.487 16.2547C21.3318 14.585 19.4023 13.6236 17.2444 13.6236C15.0864 13.6236 13.1569 14.6229 12.0017 16.2547C11.4813 16.9947 11.1449 17.8485 10.9989 18.772C10.8529 19.7333 10.8847 20.8085 11.183 21.9217C11.7415 24.3631 13.2648 27.146 15.6766 30.1439C14.1534 31.8453 12.7761 32.9964 11.4368 33.7364C10.4721 34.293 9.53909 34.5903 8.61243 34.6978C7.6096 34.8116 6.64486 34.6598 5.78801 34.3309C3.96642 33.5909 2.66528 31.9212 2.40506 29.9985C2.29081 29.075 2.36697 28.1453 2.74145 27.108C2.84935 26.7349 3.03976 26.368 3.22382 25.9253C3.48405 25.3308 3.78236 24.7046 4.08067 24.0721L4.11875 23.9962C6.68294 18.4747 9.43119 12.8456 12.2937 7.36838L12.4079 7.14701C12.7062 6.59043 13.0046 6.00222 13.3029 5.44564C13.6012 4.85111 13.9376 4.29453 14.3438 3.81385C15.1245 2.92838 16.1654 2.44137 17.3142 2.44137C18.4693 2.44137 19.5039 2.92205 20.2846 3.81385C20.6908 4.29453 21.0272 4.85111 21.3255 5.44564C21.6238 6.00222 21.9221 6.59675 22.2204 7.14701L22.3347 7.36838C25.1527 12.8709 27.8692 18.4304 30.4715 24.0342V24.0721C30.7698 24.6667 31.0301 25.3308 31.3284 25.9253C31.5124 26.368 31.7028 26.7412 31.8107 27.108C32.1154 28.0757 32.2233 28.9991 32.0773 29.9605Z" fill="#1E2C4D"></path></g></g><defs><clipPath id="clip0_343_719"><rect width="119" height="37" fill="white"></rect></clipPath></defs></svg>