<svg xmlns="http://www.w3.org/2000/svg" width="26" height="26" viewBox="0 0 26 26" fill="none"><mask id="mask0_235_369" style="mask-type:luminance" maskUnits="userSpaceOnUse" x="0" y="0" width="26" height="26"><path d="M26 13C26 16.4478 24.6304 19.7544 22.1924 22.1924C19.7544 24.6304 16.4478 26 13 26C9.55219 26 6.24559 24.6304 3.80761 22.1924C1.36964 19.7544 0 16.4478 0 13C0 9.55219 1.36964 6.24558 3.80761 3.80761C6.24559 1.36964 9.55219 0 13 0C16.4478 0 19.7544 1.36964 22.1924 3.80761C24.6304 6.24558 26 9.55219 26 13Z" fill="white"></path></mask><g mask="url(#mask0_235_369)"><path d="M0.0065918 25.9971L0.0065918 17.3316H26.0031V25.9971H0.0065918Z" fill="#27AE60"></path><path d="M0.0065918 17.3315L0.0065918 8.66603L26.0031 8.66603V17.3315H0.0065918Z" fill="white"></path><path d="M0.0065918 8.66577L0.0065918 0.00026226L26.0031 0.00026226V8.66577L0.0065918 8.66577Z" fill="#F39C12"></path><path d="M13.0003 16.7925C15.0933 16.7925 16.7901 15.0958 16.7901 13.0027C16.7901 10.9096 15.0933 9.21289 13.0003 9.21289C10.9072 9.21289 9.21045 10.9096 9.21045 13.0027C9.21045 15.0958 10.9072 16.7925 13.0003 16.7925Z" fill="#000088"></path><path d="M13.0002 16.3187C14.8316 16.3187 16.3162 14.834 16.3162 13.0026C16.3162 11.1712 14.8316 9.68652 13.0002 9.68652C11.1687 9.68652 9.68408 11.1712 9.68408 13.0026C9.68408 14.834 11.1687 16.3187 13.0002 16.3187Z" fill="white"></path><path d="M13.0004 13.6658C13.3667 13.6658 13.6636 13.3689 13.6636 13.0026C13.6636 12.6363 13.3667 12.3394 13.0004 12.3394C12.6341 12.3394 12.3372 12.6363 12.3372 13.0026C12.3372 13.3689 12.6341 13.6658 13.0004 13.6658Z" fill="#000088"></path><path d="M16.2661 13.5997C16.3568 13.6117 16.4402 13.5479 16.4522 13.4571C16.4642 13.3663 16.4003 13.283 16.3095 13.271C16.2187 13.259 16.1354 13.3229 16.1234 13.4136C16.1114 13.5044 16.1753 13.5877 16.2661 13.5997Z" fill="#000088"></path><path d="M12.9999 16.3189L13.1136 14.3293L12.9999 13.3818L12.8862 14.3293L12.9999 16.3189Z" fill="#000088"></path><path d="M16.0004 14.425C16.085 14.4601 16.182 14.42 16.2171 14.3354C16.2522 14.2508 16.2121 14.1538 16.1275 14.1187C16.0429 14.0836 15.9459 14.1237 15.9108 14.2083C15.8757 14.2929 15.9158 14.3899 16.0004 14.425Z" fill="#000088"></path><path d="M12.1411 16.206L12.7663 14.3135L12.9018 13.3688L12.5466 14.2546L12.1411 16.206Z" fill="#000088"></path><path d="M15.5298 15.1525C15.6024 15.2083 15.7065 15.1947 15.7622 15.1221C15.818 15.0494 15.8044 14.9454 15.7318 14.8896C15.6591 14.8338 15.5551 14.8474 15.4993 14.9201C15.4435 14.9927 15.4571 15.0968 15.5298 15.1525Z" fill="#000088"></path><path d="M11.3423 15.8738L12.4355 14.2076L12.8108 13.3303L12.2386 14.0939L11.3423 15.8738Z" fill="#000088"></path><path d="M14.8871 15.7351C14.9428 15.8078 15.0469 15.8216 15.1196 15.7659C15.1923 15.7102 15.206 15.6061 15.1503 15.5335C15.0946 15.4608 14.9906 15.447 14.9179 15.5027C14.8452 15.5584 14.8314 15.6625 14.8871 15.7351Z" fill="#000088"></path><path d="M10.6545 15.3471L12.1422 14.0207L12.7319 13.2704L11.9814 13.8598L10.6545 15.3471Z" fill="#000088"></path><path d="M14.1156 16.1296C14.1506 16.2142 14.2476 16.2544 14.3322 16.2194C14.4168 16.1844 14.457 16.0874 14.422 16.0028C14.387 15.9182 14.29 15.878 14.2054 15.913C14.1208 15.948 14.0806 16.0449 14.1156 16.1296Z" fill="#000088"></path><path d="M10.1282 14.6603L11.9081 13.7639L12.6717 13.1917L11.7944 13.567L10.1282 14.6603Z" fill="#000088"></path><path d="M13.2679 16.312C13.2798 16.4027 13.3631 16.4667 13.4539 16.4548C13.5447 16.4429 13.6086 16.3597 13.5967 16.2689C13.5848 16.1781 13.5016 16.1141 13.4108 16.126C13.32 16.1379 13.256 16.2212 13.2679 16.312Z" fill="#000088"></path><path d="M9.79656 13.8604L11.7481 13.4555L12.634 13.1006L11.6893 13.2358L9.79656 13.8604Z" fill="#000088"></path><path d="M12.4027 16.2686C12.3907 16.3594 12.4545 16.4427 12.5453 16.4547C12.6361 16.4667 12.7194 16.4028 12.7314 16.3121C12.7434 16.2213 12.6795 16.138 12.5887 16.126C12.498 16.114 12.4147 16.1778 12.4027 16.2686Z" fill="#000088"></path><path d="M9.68412 13.0026L11.6737 13.1163L12.6211 13.0026L11.6737 12.8889L9.68412 13.0026Z" fill="#000088"></path><path d="M11.5773 16.0023C11.5422 16.0869 11.5823 16.1839 11.6668 16.219C11.7514 16.2541 11.8484 16.214 11.8835 16.1295C11.9186 16.0449 11.8785 15.9479 11.7939 15.9128C11.7094 15.8777 11.6124 15.9178 11.5773 16.0023Z" fill="#000088"></path><path d="M9.79671 12.1433L11.6892 12.7685L12.6338 12.904L11.7481 12.5488L9.79671 12.1433Z" fill="#000088"></path><path d="M10.85 15.5333C10.7942 15.6059 10.8079 15.71 10.8805 15.7658C10.9532 15.8215 11.0573 15.8079 11.113 15.7353C11.1688 15.6626 11.1552 15.5585 11.0825 15.5028C11.0099 15.447 10.9058 15.4606 10.85 15.5333Z" fill="#000088"></path><path d="M10.1281 11.3448L11.7946 12.4381L12.672 12.8133L11.9083 12.2411L10.1281 11.3448Z" fill="#000088"></path><path d="M10.2677 14.8899C10.195 14.9456 10.1813 15.0497 10.237 15.1224C10.2927 15.195 10.3968 15.2088 10.4695 15.1531C10.5421 15.0974 10.5559 14.9933 10.5002 14.9206C10.4445 14.8479 10.3404 14.8342 10.2677 14.8899Z" fill="#000088"></path><path d="M10.6551 10.6572L11.9818 12.1449L12.7322 12.7347L12.1426 11.9841L10.6551 10.6572Z" fill="#000088"></path><path d="M9.87279 14.1183C9.78816 14.1533 9.74794 14.2502 9.78294 14.3349C9.81795 14.4195 9.91492 14.4597 9.99955 14.4247C10.0842 14.3897 10.1244 14.2927 10.0894 14.2081C10.0544 14.1235 9.95741 14.0833 9.87279 14.1183Z" fill="#000088"></path><path d="M11.3417 10.1308L12.2382 11.9108L12.8105 12.6745L12.4351 11.7971L11.3417 10.1308Z" fill="#000088"></path><path d="M9.69004 13.2711C9.59923 13.283 9.53527 13.3662 9.54716 13.457C9.55906 13.5478 9.64231 13.6118 9.73311 13.5999C9.82391 13.588 9.88788 13.5048 9.87598 13.414C9.86409 13.3232 9.78084 13.2592 9.69004 13.2711Z" fill="#000088"></path><path d="M12.1418 9.79871L12.5468 11.7504L12.9018 12.6364L12.7665 11.6916L12.1418 9.79871Z" fill="#000088"></path><path d="M9.73379 12.4051C9.643 12.3931 9.55968 12.457 9.54768 12.5478C9.53569 12.6386 9.59956 12.7219 9.69035 12.7339C9.78114 12.7459 9.86446 12.682 9.87646 12.5912C9.88845 12.5004 9.82458 12.4171 9.73379 12.4051Z" fill="#000088"></path><path d="M13 9.68574L12.8864 11.6755L13.0002 12.6231L13.1138 11.6755L13 9.68574Z" fill="#000088"></path><path d="M9.99958 11.5798C9.91499 11.5448 9.81797 11.5849 9.78287 11.6695C9.74778 11.754 9.7879 11.8511 9.87248 11.8862C9.95707 11.9213 10.0541 11.8811 10.0892 11.7966C10.1243 11.712 10.0842 11.6149 9.99958 11.5798Z" fill="#000088"></path><path d="M13.8588 9.79859L13.2337 11.6913L13.0982 12.6361L13.4534 11.7502L13.8588 9.79859Z" fill="#000088"></path><path d="M10.4704 10.8523C10.3978 10.7965 10.2937 10.8102 10.2379 10.8828C10.1821 10.9554 10.1958 11.0595 10.2684 11.1153C10.341 11.1711 10.4451 11.1574 10.5009 11.0848C10.5567 11.0122 10.543 10.9081 10.4704 10.8523Z" fill="#000088"></path><path d="M14.6583 10.1303L13.5651 11.7967L13.1899 12.6741L13.762 11.9104L14.6583 10.1303Z" fill="#000088"></path><path d="M11.1131 10.2702C11.0574 10.1975 10.9533 10.1837 10.8806 10.2394C10.808 10.2951 10.7942 10.3992 10.8499 10.4719C10.9056 10.5446 11.0097 10.5584 11.0824 10.5027C11.155 10.447 11.1688 10.3429 11.1131 10.2702Z" fill="#000088"></path><path d="M15.3456 10.6578L13.858 11.9844L13.2682 12.7348L14.0188 12.1452L15.3456 10.6578Z" fill="#000088"></path><path d="M11.8845 9.87433C11.8495 9.7897 11.7525 9.74946 11.6679 9.78446C11.5832 9.81946 11.543 9.91643 11.578 10.0011C11.613 10.0857 11.71 10.1259 11.7946 10.0909C11.8792 10.0559 11.9195 9.95896 11.8845 9.87433Z" fill="#000088"></path><path d="M15.8723 11.3436L14.0921 12.24L13.3283 12.8122L14.2058 12.4369L15.8723 11.3436Z" fill="#000088"></path><path d="M12.7325 9.69146C12.7207 9.60066 12.6374 9.53668 12.5466 9.54857C12.4558 9.56046 12.3918 9.6437 12.4037 9.73451C12.4156 9.82531 12.4988 9.88929 12.5896 9.8774C12.6805 9.86552 12.7444 9.78227 12.7325 9.69146Z" fill="#000088"></path><path d="M16.2041 12.1436L14.2523 12.5484L13.3663 12.9033L14.3111 12.7681L16.2041 12.1436Z" fill="#000088"></path><path d="M13.5977 9.73603C13.6097 9.64524 13.5458 9.56191 13.4551 9.54991C13.3643 9.5379 13.2809 9.60176 13.2689 9.69255C13.2569 9.78334 13.3208 9.86667 13.4116 9.87867C13.5024 9.89068 13.5857 9.82682 13.5977 9.73603Z" fill="#000088"></path><path d="M16.3165 13.0025L14.3267 12.8886L13.3792 13.0023L14.3267 13.116L16.3165 13.0025Z" fill="#000088"></path><path d="M14.4231 10.0018C14.4583 9.91725 14.4182 9.82022 14.3336 9.78511C14.249 9.75 14.152 9.79011 14.1169 9.87469C14.0817 9.95927 14.1218 10.0563 14.2064 10.0914C14.291 10.1265 14.388 10.0864 14.4231 10.0018Z" fill="#000088"></path><path d="M16.2036 13.8608L14.3109 13.2355L13.3662 13.0999L14.252 13.4552L16.2036 13.8608Z" fill="#000088"></path><path d="M15.1502 10.4722C15.206 10.3995 15.1923 10.2954 15.1197 10.2396C15.0471 10.1839 14.943 10.1975 14.8872 10.2701C14.8314 10.3427 14.8451 10.4468 14.9177 10.5026C14.9903 10.5584 15.0944 10.5448 15.1502 10.4722Z" fill="#000088"></path><path d="M15.8717 14.6603L14.2054 13.5669L13.328 13.1916L14.0917 13.7638L15.8717 14.6603Z" fill="#000088"></path><path d="M15.7322 11.1155C15.8049 11.0598 15.8187 10.9557 15.763 10.8831C15.7073 10.8104 15.6032 10.7966 15.5305 10.8523C15.4579 10.908 15.4441 11.0121 15.4998 11.0847C15.5555 11.1574 15.6595 11.1712 15.7322 11.1155Z" fill="#000088"></path><path d="M15.3444 15.3478L14.018 13.86L13.2676 13.2702L13.8571 14.0208L15.3444 15.3478Z" fill="#000088"></path><path d="M16.1267 11.8862C16.2113 11.8512 16.2516 11.7542 16.2166 11.6696C16.1816 11.5849 16.0846 11.5447 16 11.5797C15.9153 11.6147 15.8751 11.7117 15.9101 11.7963C15.9451 11.8809 16.0421 11.9212 16.1267 11.8862Z" fill="#000088"></path><path d="M14.6576 15.8737L13.7613 14.0936L13.1891 13.3299L13.5643 14.2073L14.6576 15.8737Z" fill="#000088"></path><path d="M16.3096 12.7338C16.4004 12.7219 16.4644 12.6387 16.4525 12.5479C16.4406 12.4571 16.3574 12.3931 16.2666 12.405C16.1758 12.4169 16.1118 12.5001 16.1237 12.5909C16.1356 12.6817 16.2188 12.7457 16.3096 12.7338Z" fill="#000088"></path><path d="M13.8573 16.2052L13.4525 14.2535L13.0976 13.3676L13.2328 14.3123L13.8573 16.2052Z" fill="#000088"></path></g></svg>