<svg xmlns="http://www.w3.org/2000/svg" width="40" height="41" viewBox="0 0 40 41" fill="none"><path d="M20 0.625C30.9375 0.625 39.375 8.67188 39.375 19.4531C39.375 33.125 26.3281 40.7812 14.375 37.5C13.6719 37.3438 13.5938 37.5 9.53125 39.2969C8.51562 39.6875 7.34375 38.9844 7.34375 37.8906C7.1875 34.2969 7.34375 33.9844 6.71875 33.3594C2.89062 30 0.625 25.0781 0.625 19.4531C0.625 8.67188 9.0625 0.625 20 0.625ZM31.6406 15.1562C32.1875 14.2969 31.1719 13.2812 30.3125 13.9062L24.2188 18.5156C23.75 18.8281 23.2031 18.8281 22.8125 18.5156L18.2812 15.1562C16.875 14.1406 14.9219 14.4531 14.0625 15.9375L8.35938 24.9219C7.8125 25.7812 8.82812 26.7969 9.6875 26.1719L15.7812 21.5625C16.25 21.25 16.7969 21.25 17.1875 21.5625L21.7188 24.9219C23.125 25.9375 25.0781 25.625 25.9375 24.1406L31.6406 15.1562Z" fill="#3F3EED"></path></svg>