<svg xmlns="http://www.w3.org/2000/svg" width="119" height="37" viewBox="0 0 119 37" fill="none"><mask id="mask0_90_378" style="mask-type:luminance" maskUnits="userSpaceOnUse" x="0" y="0" width="119" height="37"><path d="M119 0H0V37H119V0Z" fill="white"></path></mask><g mask="url(#mask0_90_378)"><path d="M62.702 9.29744C62.702 10.632 61.623 11.7072 60.2838 11.7072C58.9445 11.7072 57.8656 10.632 57.8656 9.29744C57.8656 7.96291 58.9065 6.88769 60.2838 6.88769C61.6611 6.92564 62.702 8.00085 62.702 9.29744ZM52.7435 14.1485V14.7431C52.7435 14.7431 51.5947 13.2631 49.1384 13.2631C45.089 13.2631 41.9282 16.3369 41.9282 20.5935C41.9282 24.8185 45.0509 27.9239 49.1384 27.9239C51.6264 27.9239 52.7435 26.406 52.7435 26.406V27.0385C52.7435 27.3357 52.9657 27.5571 53.264 27.5571H56.2725V13.6299H53.264C52.9657 13.6299 52.7435 13.8892 52.7435 14.1485ZM52.7435 23.0728C52.185 23.8887 51.0743 24.5908 49.735 24.5908C47.3549 24.5908 45.5333 23.1108 45.5333 20.5872C45.5333 18.0699 47.3549 16.5899 49.735 16.5899C51.0362 16.5899 52.2231 17.3299 52.7435 18.1079V23.0728ZM58.5003 13.6299H62.0673V27.5571H58.5003V13.6299ZM111.796 13.2568C109.346 13.2568 108.191 14.7368 108.191 14.7368V6.92564H104.624V27.5571H107.632C107.931 27.5571 108.153 27.2978 108.153 27.0385V26.4123C108.153 26.4123 109.308 27.9303 111.758 27.9303C115.807 27.9303 118.968 24.8185 118.968 20.5998C118.968 16.3685 115.814 13.2568 111.796 13.2568ZM111.206 24.5528C109.828 24.5528 108.756 23.8508 108.197 23.0349V18.0699C108.756 17.3299 109.943 16.552 111.206 16.552C113.586 16.552 115.408 18.032 115.408 20.5492C115.401 23.0728 113.586 24.5528 111.206 24.5528ZM102.764 19.2969V27.595H99.1973V19.7017C99.1973 17.4058 98.4547 16.4824 96.449 16.4824C95.37 16.4824 94.2593 17.039 93.5484 17.8549V27.5571H89.9814V13.6299H92.8058C93.1041 13.6299 93.3263 13.8892 93.3263 14.1485V14.7431C94.3672 13.6679 95.7445 13.2631 97.1154 13.2631C98.6768 13.2631 99.9779 13.7058 101.019 14.5976C102.282 15.6285 102.764 16.9631 102.764 19.2969ZM81.3241 13.2568C78.8741 13.2568 77.719 14.7368 77.719 14.7368V6.92564H74.152V27.5571H77.1604C77.4588 27.5571 77.6809 27.2978 77.6809 27.0385V26.4123C77.6809 26.4123 78.8361 27.9303 81.286 27.9303C85.3354 27.9303 88.4962 24.8185 88.4962 20.5998C88.5343 16.3685 85.3735 13.2568 81.3241 13.2568ZM80.7275 24.5528C79.3502 24.5528 78.2775 23.8508 77.719 23.0349V18.0699C78.2775 17.3299 79.4644 16.552 80.7275 16.552C83.1076 16.552 84.9292 18.032 84.9292 20.5492C84.9292 23.0728 83.1076 24.5528 80.7275 24.5528ZM71.061 13.2568C72.14 13.2568 72.6985 13.4402 72.6985 13.4402V16.7354C72.6985 16.7354 69.7281 15.7361 67.8684 17.8485V27.5887H64.3014V13.6299H67.3099C67.6082 13.6299 67.8303 13.8892 67.8303 14.1485V14.7431C68.4968 13.9651 69.9502 13.2568 71.061 13.2568ZM34.0072 26.2985C33.8231 25.8557 33.6327 25.375 33.4486 24.9639C33.1503 24.2998 32.852 23.6673 32.5918 23.0728L32.5537 23.0349C29.9895 17.4817 27.2413 11.8526 24.3407 6.29316L24.2264 6.07179C23.9218 5.49624 23.6235 4.91436 23.3378 4.33248C22.9634 3.66838 22.5952 2.96 21.9986 2.2959C20.8181 0.815897 19.1044 0 17.2828 0C15.4231 0 13.7539 0.815897 12.5289 2.22C11.9704 2.8841 11.5642 3.59248 11.1897 4.25658C10.8977 4.83846 10.6058 5.42034 10.3011 5.9959L10.1869 6.21726C7.32435 11.7704 4.53802 17.3995 1.97383 22.959L1.93574 23.0349C1.67552 23.6294 1.37721 24.2556 1.0789 24.926C0.894835 25.3308 0.710772 25.7798 0.520362 26.2605C0.0379897 27.633 -0.114338 28.9296 0.0760717 30.2641C0.48228 33.0407 2.34195 35.3745 4.90614 36.4118C5.87089 36.8166 6.87371 37.0063 7.91462 37.0063C8.21293 37.0063 8.58106 36.9684 8.87937 36.9304C10.1043 36.785 11.3674 36.3738 12.5987 35.6718C14.122 34.8179 15.5691 33.5973 17.2066 31.82C18.8442 33.5973 20.3294 34.8179 21.8146 35.6718C23.0395 36.3738 24.3026 36.785 25.5339 36.9304C25.8322 36.9684 26.2067 37.0063 26.4987 37.0063C27.5396 37.0063 28.5805 36.8229 29.5071 36.4118C32.1094 35.3745 33.931 33.0027 34.3372 30.2641C34.6419 28.9612 34.4895 27.6646 34.0072 26.2985ZM17.2447 28.2212C15.2391 25.7039 13.9379 23.3321 13.4936 21.3335C13.3096 20.4797 13.2715 19.7397 13.3794 19.0756C13.4556 18.481 13.6777 17.9624 13.976 17.5197C14.6805 16.5203 15.8738 15.8879 17.2447 15.8879C18.622 15.8879 19.847 16.4824 20.5134 17.5197C20.8117 17.9624 21.0339 18.481 21.11 19.0756C21.2243 19.7397 21.1862 20.5176 20.9958 21.3335C20.5579 23.2942 19.2567 25.666 17.2447 28.2212ZM32.0777 29.9605C31.8174 31.8832 30.5163 33.553 28.6947 34.293C27.7998 34.6598 26.835 34.7737 25.8703 34.6598C24.9436 34.546 24.0106 34.255 23.0459 33.6985C21.7067 32.9585 20.3674 31.8073 18.8061 30.106C21.256 27.108 22.7476 24.3631 23.3061 21.9217C23.5663 20.7706 23.6044 19.7333 23.4902 18.772C23.3442 17.8485 23.0078 16.9947 22.4873 16.2547C21.3322 14.585 19.4027 13.6236 17.2447 13.6236C15.0867 13.6236 13.1572 14.6229 12.0021 16.2547C11.4816 16.9947 11.1452 17.8485 10.9993 18.772C10.8533 19.7333 10.885 20.8085 11.1833 21.9217C11.7419 24.3631 13.2651 27.146 15.677 30.1439C14.1537 31.8453 12.7764 32.9964 11.4372 33.7364C10.4725 34.293 9.53946 34.5903 8.61279 34.6978C7.60997 34.8116 6.64522 34.6598 5.78838 34.3309C3.96679 33.5909 2.66565 31.9212 2.40542 29.9985C2.29118 29.075 2.36734 28.1453 2.74181 27.108C2.84971 26.7349 3.04012 26.368 3.22419 25.9253C3.48441 25.3308 3.78272 24.7046 4.08103 24.0721L4.11911 23.9962C6.6833 18.4747 9.43156 12.8456 12.2941 7.36838L12.4083 7.14701C12.7066 6.59043 13.0049 6.00222 13.3032 5.44564C13.6015 4.85111 13.9379 4.29453 14.3441 3.81385C15.1248 2.92838 16.1657 2.44137 17.3145 2.44137C18.4697 2.44137 19.5043 2.92205 20.2849 3.81385C20.6911 4.29453 21.0275 4.85111 21.3258 5.44564C21.6242 6.00222 21.9225 6.59675 22.2208 7.14701L22.335 7.36838C25.1531 12.8709 27.8696 18.4304 30.4719 24.0342V24.0721C30.7702 24.6667 31.0304 25.3308 31.3287 25.9253C31.5128 26.368 31.7032 26.7412 31.8111 27.108C32.1158 28.0757 32.2237 28.9991 32.0777 29.9605Z" fill="#083A5E"></path></g></svg>