<svg xmlns="http://www.w3.org/2000/svg" width="26" height="26" viewBox="0 0 26 26" fill="none"><path d="M0.808685 17.5215C2.64549 22.4719 7.41055 25.9998 13.0001 25.9998C18.5896 25.9998 23.3547 22.4719 25.1915 17.5215L13.0001 16.3911L0.808685 17.5215Z" fill="#FFDA44"></path><path d="M13.0001 0C7.41055 0 2.64549 3.52787 0.808685 8.47828L13.0001 9.60868L25.1915 8.47823C23.3547 3.52787 18.5896 0 13.0001 0Z" fill="black"></path><path d="M0.80859 8.47852C0.286051 9.88683 0 11.4101 0 13.0002C0 14.5904 0.286051 16.1136 0.80859 17.5219H25.1915C25.714 16.1136 26 14.5904 26 13.0002C26 11.4101 25.714 9.88683 25.1914 8.47852H0.80859Z" fill="#D80027"></path></svg>