<svg xmlns="http://www.w3.org/2000/svg" width="87" height="44" viewBox="0 0 87 44" fill="none"><circle cx="70" cy="22" r="17" fill="#D9FFE9"></circle><mask id="mask0_608_3" style="mask-type:luminance" maskUnits="userSpaceOnUse" x="57" y="9" width="26" height="26"><path d="M83 22C83 25.4478 81.6304 28.7544 79.1924 31.1924C76.7544 33.6304 73.4478 35 70 35C66.5522 35 63.2456 33.6304 60.8076 31.1924C58.3696 28.7544 57 25.4478 57 22C57 18.5522 58.3696 15.2456 60.8076 12.8076C63.2456 10.3696 66.5522 9 70 9C73.4478 9 76.7544 10.3696 79.1924 12.8076C81.6304 15.2456 83 18.5522 83 22Z" fill="white"></path></mask><g mask="url(#mask0_608_3)"><path d="M83.0013 34.9988H74.3352V9.00044H83.0013V34.9988Z" fill="#F39C12"></path><path d="M74.3354 34.9988H65.6693V9.00044H74.3354V34.9988Z" fill="white"></path><path d="M65.6692 34.9988H57.0031V9.00044H65.6692V34.9988Z" fill="#27AE60"></path></g><circle cx="44" cy="22" r="22" fill="white"></circle><circle cx="44" cy="22" r="17" fill="#FFECEC"></circle><path d="M44 35C51.1797 35 57 29.1797 57 22C57 14.8203 51.1797 9 44 9C36.8203 9 31 14.8203 31 22C31 29.1797 36.8203 35 44 35Z" fill="#F0F0F0"></path><path d="M57.0001 22.0001C57.0001 16.8461 54.0007 12.3928 49.6522 10.29V33.7101C54.0007 31.6074 57.0001 27.1541 57.0001 22.0001Z" fill="#D80027"></path><path d="M31 21.9998C31 27.1538 33.9994 31.6072 38.3478 33.7099V10.2898C33.9994 12.3925 31 16.8459 31 21.9998Z" fill="#D80027"></path><path d="M46.2609 23.6956L48.5218 22.5652L47.3914 22V20.8695L45.1305 22L46.2609 19.7391H45.1305L44 18.0435L42.8696 19.7391H41.7392L42.8696 22L40.6087 20.8695V22L39.4783 22.5652L41.7392 23.6956L41.174 24.8261H43.4349V26.5217H44.5652V24.8261H46.8261L46.2609 23.6956Z" fill="#D80027"></path><circle cx="22" cy="22" r="22" fill="white"></circle><circle cx="22" cy="22" r="17" fill="#FFECEC"></circle><path d="M9.80872 26.5215C11.6455 31.4719 16.4106 34.9998 22.0001 34.9998C27.5897 34.9998 32.3547 31.4719 34.1915 26.5215L22.0001 25.3911L9.80872 26.5215Z" fill="#FFDA44"></path><path d="M22.0001 9C16.4106 9 11.6455 12.5279 9.80872 17.4783L22.0001 18.6087L34.1915 17.4782C32.3547 12.5279 27.5897 9 22.0001 9Z" fill="black"></path><path d="M9.80859 17.4785C9.28605 18.8868 9 20.4101 9 22.0002C9 23.5904 9.28605 25.1136 9.80859 26.5219H34.1915C34.714 25.1136 35 23.5904 35 22.0002C35 20.4101 34.714 18.8868 34.1914 17.4785H9.80859Z" fill="#D80027"></path><path d="M39 22C39 31.3888 31.3888 39 22 39C12.6112 39 5 31.3888 5 22C5 12.6112 12.6112 5 22 5C31.3888 5 39 12.6112 39 22Z" fill="#010101" fill-opacity="0.5"></path><path d="M28.5 22C28.5 22.4375 28.1562 22.75 27.75 22.75H22.75V27.75C22.75 28.1875 22.4062 28.5312 22 28.5312C21.5625 28.5312 21.25 28.1875 21.25 27.75V22.75H16.25C15.8125 22.75 15.5 22.4375 15.5 22.0312C15.5 21.5938 15.8125 21.25 16.25 21.25H21.25V16.25C21.25 15.8438 21.5625 15.5312 22 15.5312C22.4062 15.5312 22.75 15.8438 22.75 16.25V21.25H27.75C28.1562 21.25 28.5 21.5938 28.5 22Z" fill="white"></path></svg>