<svg xmlns="http://www.w3.org/2000/svg" width="56" height="56" viewBox="0 0 56 56" fill="none"><rect width="56" height="56" rx="28" fill="#EDEDFF"></rect><path d="M21.75 17.5469C25.125 17.5938 27.3281 19.0938 27.4219 19.1406C27.6094 19.2812 27.75 19.5156 27.75 19.7969V37.7969C27.75 37.9844 27.5625 38.5 27 38.5C26.8125 38.5 26.6719 38.4531 26.5312 38.3594C26.3438 38.2188 21.9375 34.9375 16.0312 37.7031C15.5156 37.9375 15 37.5625 15 37.0469V20.2656C15 19.6562 15.3281 19.1406 15.8438 18.9062C17.9531 17.9688 19.9688 17.5 21.75 17.5469ZM41.1094 18.9062C41.625 19.1406 41.9531 19.6562 42 20.2656V37.0469C42 37.5625 41.4375 37.9375 40.9219 37.7031C35.0156 34.9375 30.6094 38.2188 30.4219 38.3594C30.2812 38.4531 30.1406 38.5 30 38.5C29.3906 38.5 29.25 37.9844 29.25 37.75V19.7969C29.25 19.5156 29.3438 19.2812 29.5312 19.1406C29.6719 19.0938 31.8281 17.5938 35.2031 17.5469C36.9375 17.5 39 17.9688 41.1094 18.9062Z" fill="#7877FF"></path></svg>