<svg xmlns="http://www.w3.org/2000/svg" width="56" height="56" viewBox="0 0 56 56" fill="none"><rect width="56" height="56" rx="28" fill="#EDEDFF"></rect><path d="M42.2031 22.4219C42.6719 22.6094 43 23.0312 43 23.5C43 24.0156 42.6719 24.4375 42.2031 24.625L28.9844 29.3594C28.3281 29.5938 27.625 29.5938 26.9688 29.3594L18.0625 26.1719C17.5 26.7812 17.0781 27.5312 16.8906 28.375C17.2188 28.6094 17.5 29.0312 17.5 29.5C17.5 29.9688 17.2656 30.3906 16.9375 30.6719L18.0625 37.6562C18.1562 38.125 17.7812 38.5 17.3594 38.5H14.5938C14.1719 38.5 13.7969 38.125 13.8906 37.6562L15.0156 30.6719C14.6875 30.3906 14.5 29.9688 14.5 29.5C14.5 28.8906 14.875 28.375 15.3906 28.1406C15.5781 27.2031 16 26.3594 16.5625 25.6094L13.75 24.625C13.2812 24.4375 13 24.0156 13 23.5C13 23.0312 13.2812 22.6094 13.75 22.4219L26.9219 17.6875C27.5781 17.4531 28.2812 17.4531 28.9375 17.6875L42.2031 22.4219ZM29.4531 30.7656L36.2969 28.3281L37 35.0312C37 36.9531 32.9219 38.5 28 38.5C22.9844 38.5 19 36.9531 19 35.0312L19.6562 28.3281L26.5 30.7656C26.9688 30.9531 27.4844 31 28 31C28.4688 31 28.9844 30.9531 29.4531 30.7656Z" fill="#7877FF"></path></svg>