<svg xmlns="http://www.w3.org/2000/svg" width="56" height="56" viewBox="0 0 56 56" fill="none"><rect width="56" height="56" rx="28" fill="#E7F5FF"></rect><path d="M40.7344 21.8594C41.2969 23.8281 41.2969 28.0469 41.2969 28.0469C41.2969 28.0469 41.2969 32.2188 40.7344 34.2344C40.4531 35.3594 39.5625 36.2031 38.4844 36.4844C36.4688 37 28.5 37 28.5 37C28.5 37 20.4844 37 18.4688 36.4844C17.3906 36.2031 16.5 35.3594 16.2188 34.2344C15.6562 32.2188 15.6562 28.0469 15.6562 28.0469C15.6562 28.0469 15.6562 23.8281 16.2188 21.8594C16.5 20.7344 17.3906 19.8438 18.4688 19.5625C20.4844 19 28.5 19 28.5 19C28.5 19 36.4688 19 38.4844 19.5625C39.5625 19.8438 40.4531 20.7344 40.7344 21.8594ZM25.875 31.8438L32.5312 28.0469L25.875 24.25V31.8438Z" fill="#083A5E"></path></svg>