<svg xmlns="http://www.w3.org/2000/svg" width="56" height="56" viewBox="0 0 56 56" fill="none"><rect width="56" height="56" rx="28" fill="#EDEDFF"></rect><path d="M28 32.5C25.4688 32.5 23.5 30.4844 23.5 28V20.5C23.5 18.0156 25.4688 16 28 16C30.4844 16 32.5 18.0156 32.5 20.5H28.75C28.3281 20.5 28 20.8281 28 21.25C28 21.625 28.3281 22 28.75 22H32.5V23.5H28.75C28.3281 23.5 28 23.875 28 24.25C28 24.6719 28.3281 25 28.75 25H32.5V26.5H28.75C28.3281 26.5 28 26.875 28 27.25C28 27.6719 28.3281 28 28.75 28H32.5C32.5 30.5312 30.4844 32.5 28 32.5ZM35.125 25C35.7344 25 36.25 25.5156 36.25 26.125V28C36.25 32.1719 33.1094 35.6406 29.125 36.2031V37.75H31C31.8438 37.75 32.5 38.5 32.4531 39.3438C32.4531 39.7188 32.125 40 31.75 40H24.25C23.8281 40 23.5 39.7188 23.5 39.3438C23.4531 38.5 24.1094 37.75 25 37.75H26.875V36.1094C22.7031 35.5469 19.75 31.7969 19.75 27.625V26.125C19.75 25.5156 20.2188 25 20.875 25C21.4844 25 22 25.5156 22 26.125V27.7656C22 30.9062 24.4844 33.8125 27.5781 34C31.0938 34.2344 34 31.4688 34 28V26.125C34 25.5156 34.4688 25 35.125 25Z" fill="#7877FF"></path></svg>