<svg xmlns="http://www.w3.org/2000/svg" width="18" height="14" viewBox="0 0 18 14" fill="none"><path d="M18 1V13C18 13.5625 17.5312 14 17 14C16.4375 14 16 13.5625 16 13V1C16 0.46875 16.4375 0 17 0C17.5312 0 18 0.46875 18 1ZM1.96875 4.96875L15 1V13L10.875 11.7812C10.5625 13.0625 9.375 14 8 14C6.3125 14 5 12.6562 5 11C5 10.6562 5.03125 10.3438 5.15625 10.0312L1.96875 9.0625C1.96875 9.59375 1.53125 10 1 10C0.4375 10 0 9.5625 0 9V5C0 4.46875 0.4375 4 1 4C1.53125 4 1.96875 4.4375 1.96875 4.96875ZM9.4375 11.3438L6.59375 10.4688C6.53125 10.625 6.5 10.8125 6.5 11C6.5 11.8438 7.15625 12.5 8 12.5C8.6875 12.5 9.3125 12 9.4375 11.3438Z" fill="#3F3EED"></path></svg>