<svg xmlns="http://www.w3.org/2000/svg" width="41" height="40" viewBox="0 0 41 40" fill="none"><path d="M35.9219 0C38.7344 0 40.9219 2.26562 40.9219 5V27.3438C40.9219 30 38.6562 32.2656 35.9219 32.2656H24.6719L14.9062 39.6094C14.2812 40 13.4219 39.6094 13.4219 38.8281V32.3438H5.92188C3.10938 32.3438 0.921875 30.1562 0.921875 27.4219V5C0.921875 2.26562 3.10938 0 5.92188 0H35.9219ZM10.9219 18.75C12.3281 18.75 13.4219 17.5781 13.4219 16.25C13.4219 15 12.25 13.8281 10.9219 13.8281C9.51562 13.8281 8.42188 15 8.42188 16.25C8.42188 17.5781 9.51562 18.75 10.9219 18.75ZM20.9219 18.75C22.3281 18.75 23.4219 17.5781 23.4219 16.25C23.4219 15 22.25 13.8281 20.9219 13.8281C19.5156 13.8281 18.4219 15 18.4219 16.25C18.4219 17.5781 19.5156 18.75 20.9219 18.75ZM30.9219 18.75C32.3281 18.75 33.4219 17.5781 33.4219 16.25C33.4219 15 32.25 13.8281 30.9219 13.8281C29.5156 13.8281 28.4219 15 28.4219 16.25C28.4219 17.5781 29.5156 18.75 30.9219 18.75Z" fill="#3F3EED"></path></svg>