<svg xmlns="http://www.w3.org/2000/svg" width="12" height="16" viewBox="0 0 12 16" fill="none"><path d="M6 11C4.3125 11 3 9.65625 3 8V3C3 1.34375 4.3125 0 6 0C7.65625 0 9 1.34375 9 3V8C9 9.6875 7.65625 11 6 11ZM10.75 6C11.1562 6 11.5 6.34375 11.5 6.75V8C11.5 10.7812 9.40625 13.0938 6.75 13.4688V14.5H8C8.5625 14.5 9 15 8.96875 15.5625C8.96875 15.8125 8.75 16 8.5 16H3.5C3.21875 16 3 15.8125 3 15.5625C2.96875 15 3.40625 14.5 4 14.5H5.25V13.4062C2.46875 13.0312 0.5 10.5312 0.5 7.75V6.75C0.5 6.34375 0.8125 6 1.25 6C1.65625 6 2 6.34375 2 6.75V7.84375C2 9.9375 3.65625 11.875 5.71875 12C8.0625 12.1562 10 10.3125 10 8V6.75C10 6.34375 10.3125 6 10.75 6Z" fill="#3F3EED"></path></svg>