<svg xmlns="http://www.w3.org/2000/svg" width="20" height="16" viewBox="0 0 20 16" fill="none"><path d="M19.3125 5.03125C19.6562 4.9375 20 5.1875 20 5.5V12.5C20 13.3438 19.0938 14 18 14C16.875 14 16 13.3438 16 12.5C16 11.6875 16.875 11 18 11C18.1562 11 18.3125 11.0312 18.5 11.0625V8.46875L14 9.96875V14.5C14 15.3438 13.0938 16 12 16C10.875 16 10 15.3438 10 14.5C10 13.6875 10.875 13 12 13C12.1562 13 12.3125 13.0312 12.5 13.0625V7.6875C12.5 7.46875 12.625 7.28125 12.8125 7.21875L19.3125 5.03125ZM5.5 12.25H10.6875C9.84375 12.5938 9.21875 13.2188 9.03125 14H1.25C0.53125 14 0 13.4688 0 12.75V4.28125C0 3.5625 0.53125 3 1.25 3H5V11.75C5 12.0312 5.21875 12.25 5.5 12.25ZM3.25 12V11C3.25 10.875 3.125 10.75 3 10.75H2C1.84375 10.75 1.75 10.875 1.75 11V12C1.75 12.1562 1.84375 12.25 2 12.25H3C3.125 12.25 3.25 12.1562 3.25 12ZM3.25 9V8C3.25 7.875 3.125 7.75 3 7.75H2C1.84375 7.75 1.75 7.875 1.75 8V9C1.75 9.15625 1.84375 9.25 2 9.25H3C3.125 9.25 3.25 9.15625 3.25 9ZM3.25 6V5C3.25 4.875 3.125 4.75 3 4.75H2C1.84375 4.75 1.75 4.875 1.75 5V6C1.75 6.15625 1.84375 6.25 2 6.25H3C3.125 6.25 3.25 6.15625 3.25 6ZM7.34375 10C6.59375 10 6 9.375 6 8.625V1.40625C6 0.625 6.59375 0 7.34375 0H17.625C18.375 0 19 0.625 19 1.40625V4.09375L15.7812 5.15625L14.4688 3.1875C14.4062 3.09375 14.25 3 14.125 3C13.9688 3 13.8438 3.09375 13.7812 3.1875L12.1562 5.65625L11.5625 4.84375C11.4688 4.75 11.3438 4.6875 11.2188 4.6875C11.0938 4.6875 10.9688 4.75 10.875 4.84375L9.0625 7.34375C8.96875 7.46875 8.96875 7.65625 9.03125 7.78125C9.09375 7.9375 9.25 8 9.40625 8H11.5V10H7.34375ZM9 2C8.4375 2 8 2.46875 8 3C8 3.5625 8.4375 4 9 4C9.53125 4 10 3.5625 10 3C10 2.46875 9.53125 2 9 2Z" fill="#3F3EED"></path></svg>