<svg xmlns="http://www.w3.org/2000/svg" width="35" height="36" viewBox="0 0 35 36" fill="none"><path d="M7.34375 22.6875C7.34375 24.6406 5.625 26.3594 3.67188 26.3594C1.64062 26.3594 0 24.6406 0 22.6875C0 20.6562 1.64062 19.0156 3.67188 19.0156H7.34375V22.6875ZM9.14062 22.6875C9.14062 20.6562 10.8594 19.0156 12.8125 19.0156C14.8438 19.0156 16.4844 20.6562 16.4844 22.6875V31.8281C16.4844 33.8594 14.8438 35.5 12.8125 35.5C10.8594 35.5 9.14062 33.8594 9.14062 31.8281V22.6875ZM12.8125 7.92188C10.8594 7.92188 9.14062 6.20312 9.14062 4.25C9.14062 2.21875 10.8594 0.5 12.8125 0.5C14.8438 0.5 16.4844 2.21875 16.4844 4.25V7.92188H12.8125ZM12.8125 9.71875C14.8438 9.71875 16.4844 11.3594 16.4844 13.3906C16.4844 15.4219 14.8438 17.0625 12.8125 17.0625H3.67188C1.64062 17.0625 0 15.4219 0 13.3906C0 11.3594 1.64062 9.71875 3.67188 9.71875H12.8125ZM27.5781 13.3906C27.5781 11.3594 29.2969 9.71875 31.25 9.71875C33.2812 9.71875 35 11.3594 35 13.3906C35 15.4219 33.2812 17.0625 31.25 17.0625H27.5781V13.3906ZM25.7812 13.3906C25.7812 15.4219 24.1406 17.0625 22.1094 17.0625C20.0781 17.0625 18.4375 15.4219 18.4375 13.3906V4.25C18.4375 2.21875 20.0781 0.5 22.1094 0.5C24.1406 0.5 25.7812 2.21875 25.7812 4.25V13.3906ZM22.1094 28.1562C24.1406 28.1562 25.7812 29.875 25.7812 31.8281C25.7812 33.8594 24.1406 35.5 22.1094 35.5C20.0781 35.5 18.4375 33.8594 18.4375 31.8281V28.1562H22.1094ZM22.1094 26.3594C20.0781 26.3594 18.4375 24.6406 18.4375 22.6875C18.4375 20.6562 20.0781 19.0156 22.1094 19.0156H31.25C33.2812 19.0156 35 20.6562 35 22.6875C35 24.6406 33.2812 26.3594 31.25 26.3594H22.1094Z" fill="#3F3EED"></path></svg>