<svg xmlns="http://www.w3.org/2000/svg" width="93" height="39" viewBox="0 0 93 39" fill="none"><path fill-rule="evenodd" clip-rule="evenodd" d="M93.0001 20.151C93.0001 13.4861 89.7967 8.22705 83.6742 8.22705C77.5259 8.22705 73.8059 13.4861 73.8059 20.0989C73.8059 27.9353 78.1976 31.8926 84.5009 31.8926C87.5751 31.8926 89.9001 31.1897 91.6567 30.2003V24.9934C89.9001 25.8786 87.8851 26.4253 85.3276 26.4253C82.8217 26.4253 80.6001 25.5401 80.3159 22.468H92.9484C92.9484 22.1296 93.0001 20.7758 93.0001 20.151ZM80.2384 17.6777C80.2384 14.7357 82.0209 13.5121 83.6484 13.5121C85.2242 13.5121 86.9034 14.7357 86.9034 17.6777H80.2384Z" fill="#083A5E"></path><path fill-rule="evenodd" clip-rule="evenodd" d="M63.8342 8.22705C61.3025 8.22705 59.675 9.42465 58.7709 10.2578L58.435 8.64361H52.7517V39.0001L59.21 37.6202L59.2359 30.2524C60.1659 30.9293 61.535 31.8926 63.8084 31.8926C68.4325 31.8926 72.6434 28.1436 72.6434 19.8906C72.6175 12.3405 68.355 8.22705 63.8342 8.22705ZM62.2842 26.165C60.76 26.165 59.8559 25.6182 59.2359 24.9413L59.21 15.2825C59.8817 14.5275 60.8117 14.0068 62.2842 14.0068C64.635 14.0068 66.2625 16.6623 66.2625 20.0728C66.2625 23.5615 64.6609 26.165 62.2842 26.165Z" fill="#083A5E"></path><path fill-rule="evenodd" clip-rule="evenodd" d="M43.865 6.69092L50.3492 5.28505V0L43.865 1.37984V6.69092Z" fill="#083A5E"></path><path d="M50.3492 8.66943H43.865V31.4498H50.3492V8.66943Z" fill="#083A5E"></path><path fill-rule="evenodd" clip-rule="evenodd" d="M36.9159 10.5961L36.5026 8.6695H30.9226V31.4499H37.3809V16.0113C38.9051 14.0066 41.4884 14.3711 42.2893 14.6575V8.6695C41.4626 8.35708 38.4401 7.78432 36.9159 10.5961Z" fill="#083A5E"></path><path fill-rule="evenodd" clip-rule="evenodd" d="M23.9991 3.02002L17.6958 4.37382L17.6699 25.2276C17.6699 29.0808 20.5374 31.9186 24.3608 31.9186C26.4791 31.9186 28.0291 31.528 28.8816 31.0594V25.7744C28.0549 26.1128 23.9733 27.3104 23.9733 23.4573V14.2149H28.8816V8.66955H23.9733L23.9991 3.02002Z" fill="#083A5E"></path><path fill-rule="evenodd" clip-rule="evenodd" d="M6.53583 15.2825C6.53583 14.2671 7.3625 13.8766 8.73167 13.8766C10.695 13.8766 13.175 14.4754 15.1383 15.5428V9.42465C12.9942 8.5655 10.8758 8.22705 8.73167 8.22705C3.4875 8.22705 0 10.9867 0 15.5949C0 22.7805 9.81667 21.6089 9.81667 24.707C9.81667 25.9046 8.78333 26.2951 7.33667 26.2951C5.1925 26.2951 2.45417 25.41 0.284167 24.2124V30.4086C2.68667 31.45 5.115 31.8926 7.33667 31.8926C12.71 31.8926 16.4042 29.211 16.4042 24.5508C16.3783 16.8185 6.53583 18.1983 6.53583 15.2825Z" fill="#083A5E"></path></svg>