<svg xmlns="http://www.w3.org/2000/svg" width="26" height="26" viewBox="0 0 26 26" fill="none"><path d="M13 26C20.1797 26 26 20.1797 26 13C26 5.8203 20.1797 0 13 0C5.8203 0 0 5.8203 0 13C0 20.1797 5.8203 26 13 26Z" fill="#F0F0F0"></path><path d="M2.68726 5.08594C1.6661 6.41453 0.896102 7.94584 0.447754 9.60938H7.2107L2.68726 5.08594Z" fill="#0052B4"></path><path d="M25.552 9.60933C25.1037 7.94584 24.3336 6.41453 23.3125 5.08594L18.7892 9.60933H25.552Z" fill="#0052B4"></path><path d="M0.447754 16.3914C0.896152 18.0548 1.66615 19.5862 2.68726 20.9147L7.21055 16.3914H0.447754Z" fill="#0052B4"></path><path d="M20.9144 2.6878C19.5859 1.66664 18.0546 0.896641 16.3911 0.448242V7.21114L20.9144 2.6878Z" fill="#0052B4"></path><path d="M5.08511 23.3131C6.4137 24.3342 7.94501 25.1042 9.6085 25.5526V18.7898L5.08511 23.3131Z" fill="#0052B4"></path><path d="M9.60845 0.448242C7.94496 0.896641 6.41365 1.66664 5.08511 2.68775L9.60845 7.21109V0.448242Z" fill="#0052B4"></path><path d="M16.3911 25.5526C18.0545 25.1042 19.5859 24.3342 20.9144 23.3131L16.3911 18.7898V25.5526Z" fill="#0052B4"></path><path d="M18.7892 16.3914L23.3125 20.9147C24.3336 19.5862 25.1037 18.0548 25.552 16.3914H18.7892Z" fill="#0052B4"></path><path d="M25.89 11.3044H14.6957H14.6957V0.110043C14.1406 0.0377813 13.5747 0 13 0C12.4252 0 11.8594 0.0377813 11.3044 0.110043V11.3043V11.3043H0.110043C0.0377813 11.8594 0 12.4253 0 13C0 13.5748 0.0377813 14.1406 0.110043 14.6956H11.3043H11.3043V25.89C11.8594 25.9622 12.4252 26 13 26C13.5747 26 14.1406 25.9623 14.6956 25.89V14.6957V14.6957H25.89C25.9622 14.1406 26 13.5748 26 13C26 12.4253 25.9622 11.8594 25.89 11.3044Z" fill="#D80027"></path><path d="M16.3912 16.3912L22.1922 22.1922C22.459 21.9255 22.7135 21.6467 22.9564 21.3576L17.9899 16.3911H16.3912V16.3912Z" fill="#D80027"></path><path d="M9.60893 16.3911H9.60883L3.80783 22.1921C4.07453 22.4589 4.35337 22.7134 4.64242 22.9563L9.60893 17.9897V16.3911Z" fill="#D80027"></path><path d="M9.60854 9.60882V9.60871L3.80749 3.80762C3.54069 4.07432 3.28617 4.35316 3.04333 4.64221L8.00989 9.60877L9.60854 9.60882Z" fill="#D80027"></path><path d="M16.3912 9.6092L22.1923 3.80805C21.9256 3.54125 21.6467 3.28673 21.3577 3.04395L16.3912 8.0105V9.6092Z" fill="#D80027"></path></svg>