<svg xmlns="http://www.w3.org/2000/svg" width="194" height="50" viewBox="0 0 194 50" fill="none"><rect width="194" height="50" rx="6" fill="#E3F3FF"></rect><g clip-path="url(#clip0_309_260)"><path d="M41.3597 38.6207C41.3107 38.8038 41.2093 38.9728 41.0679 39.1032L37.9305 42.0248C37.7556 42.1966 37.4626 42.1182 37.3969 41.8819L36.14 37.7832C36.0827 37.5996 36.0794 37.4025 36.1284 37.2194L36.7917 36.8364L40.9767 37.9574L41.3597 38.6207Z" fill="#F7E0B0"></path><path d="M44.7225 26.0655L41.3596 38.6206L36.1283 37.2194L39.4912 24.6642L40.1545 24.2812L44.3395 25.4022L44.7225 26.0655Z" fill="#F7CA3C"></path><path d="M45.2831 23.9727L44.7226 26.0652L39.4913 24.664L40.0518 22.5715L40.715 22.1885L44.9001 23.3095L45.2831 23.9727Z" fill="#E4EAEF"></path><path d="M45.8436 21.8801L45.2831 23.9726L40.0518 22.5714L40.6123 20.4789C40.7665 19.9034 41.3634 19.5587 41.9388 19.7129L45.0776 20.5536C45.6531 20.7077 45.9978 21.3047 45.8436 21.8801Z" fill="#EA4458"></path><path d="M39.4062 16.2312C39.4326 16.3841 39.4247 16.539 39.3841 16.6907L32.9146 40.8436C32.7604 41.419 32.1635 41.7637 31.5881 41.6096L11.7091 36.2849C11.1337 36.1308 10.789 35.5338 10.9431 34.9584L18.5098 6.70935C18.6639 6.1339 19.2609 5.7892 19.8363 5.94333L35.6191 10.1709C35.7709 10.2115 35.9089 10.2821 36.0281 10.3813L39.4062 16.2312Z" fill="#E4EAEF"></path><path d="M39.4064 16.2313L35.8387 15.2756C35.2632 15.1215 34.9185 14.5245 35.0727 13.9491L36.0283 10.3813C36.1294 10.4645 36.2144 10.5658 36.2795 10.6785L39.2746 15.8652C39.3397 15.9779 39.385 16.1021 39.4064 16.2313Z" fill="#B3C1C9"></path><path d="M30.327 14.9208L26.142 13.7998C25.5641 13.645 24.9702 13.988 24.8155 14.5658L23.6945 18.7508C23.5397 19.3287 23.8826 19.9226 24.4605 20.0773L28.6455 21.1983C29.2234 21.3531 29.8173 21.0102 29.972 20.4323L31.093 16.2473C31.2478 15.6694 30.9048 15.0755 30.327 14.9208Z" fill="#33B89F"></path><path d="M37.4826 42.6282C37.7746 42.7063 38.0803 42.6301 38.3009 42.424L41.4389 39.498C41.653 39.2975 41.8064 39.0431 41.882 38.7606L46.366 22.0204C46.5977 21.1552 46.0822 20.2624 45.217 20.0306L42.0782 19.1899C41.2129 18.9581 40.3202 19.4737 40.0884 20.3389L35.6045 37.0791C35.5288 37.3616 35.5339 37.6584 35.6196 37.9393L36.8749 42.0421C36.9629 42.3308 37.1902 42.5498 37.4816 42.6279L37.4826 42.6282ZM37.8118 41.3993L36.7554 37.9481L40.4513 38.938L37.8118 41.3993ZM39.407 37.537L42.4897 26.0281L44.0591 26.4485L40.9764 37.9573L39.407 37.537ZM40.1543 24.2812L40.4346 23.235L44.6196 24.356L44.3394 25.4022L40.1543 24.2812ZM41.4435 25.7479L38.3608 37.2567L36.7914 36.8364L39.8741 25.3275L41.4435 25.7479ZM41.7985 20.2363L44.9372 21.077C45.226 21.1544 45.3976 21.4515 45.3202 21.7403L44.8999 23.3097L40.7148 22.1887L41.1352 20.6193C41.2125 20.3305 41.5097 20.159 41.7985 20.2363Z" fill="#083A5E"></path><path d="M11.5692 36.8082L31.4481 42.1329C32.3134 42.3647 33.2061 41.8491 33.4379 40.9839L39.9077 16.8299C40.0199 16.4109 39.9624 15.9727 39.7451 15.5972L36.7469 10.4052C36.5301 10.0298 36.1795 9.76043 35.7605 9.64819L19.9766 5.42037C19.1114 5.18861 18.2186 5.70413 17.9869 6.56939L17.006 10.2313C16.9285 10.5206 17.0997 10.8171 17.389 10.8946C17.6783 10.972 17.9748 10.8008 18.0522 10.5116L19.0331 6.84964C19.1105 6.56087 19.4076 6.38928 19.6964 6.46663L35.3903 10.6703L34.5495 13.8091C34.3178 14.6744 34.8333 15.5671 35.6986 15.7989L38.8373 16.6396L32.3916 40.7036C32.3143 40.9924 32.0172 41.164 31.7284 41.0866L11.8494 35.7619C11.5607 35.6846 11.3891 35.3874 11.4664 35.0987L17.4918 12.6041C17.5692 12.3148 17.398 12.0183 17.1087 11.9408C16.8195 11.8633 16.523 12.0345 16.4455 12.3238L10.4202 34.8184C10.1884 35.6837 10.7039 36.5764 11.5692 36.8082ZM35.5958 14.0894L36.2384 11.6903L38.3779 15.3952L35.9788 14.7526C35.69 14.6753 35.5185 14.3781 35.5958 14.0894Z" fill="#083A5E"></path><path d="M17.3047 23.7673C17.2272 24.0566 17.3984 24.353 17.6877 24.4305L32.3354 28.354C32.6247 28.4315 32.9211 28.2603 32.9986 27.971C33.0761 27.6817 32.9049 27.3852 32.6156 27.3077L17.968 23.3843C17.6787 23.3068 17.3822 23.478 17.3047 23.7673Z" fill="#083A5E"></path><path d="M16.8474 27.5692L31.495 31.4927C31.7843 31.5702 32.0808 31.3989 32.1583 31.1097C32.2358 30.8204 32.0646 30.5239 31.7753 30.4464L17.1276 26.5229C16.8383 26.4454 16.5419 26.6167 16.4644 26.9059C16.3869 27.1952 16.5581 27.4917 16.8474 27.5692Z" fill="#083A5E"></path><path d="M16.0066 30.7084L30.6542 34.6318C30.9435 34.7093 31.24 34.5381 31.3175 34.2488C31.3949 33.9595 31.2237 33.6631 30.9345 33.5856L16.2868 29.6621C15.9975 29.5846 15.701 29.7558 15.6235 30.0451C15.5461 30.3344 15.7173 30.6309 16.0066 30.7084Z" fill="#083A5E"></path><path d="M15.1657 33.847L26.6746 36.9298C26.9639 37.0072 27.2604 36.836 27.3379 36.5467C27.4153 36.2575 27.2441 35.961 26.9549 35.8835L15.446 32.8008C15.1567 32.7233 14.8602 32.8945 14.7827 33.1838C14.7052 33.4731 14.8764 33.7695 15.1657 33.847Z" fill="#083A5E"></path><path d="M21.7421 17.6671C21.4528 17.5896 21.1563 17.7608 21.0788 18.0501C21.0013 18.3394 21.1725 18.6358 21.4618 18.7133L23.1275 19.1595C23.1668 19.6449 23.4222 20.0873 23.823 20.364L23.3768 22.0296C23.2994 22.3189 23.4706 22.6154 23.7599 22.6929C24.0491 22.7704 24.3456 22.5991 24.4231 22.3099L24.8435 20.7405L25.8897 21.0207L25.4694 22.5901C25.3919 22.8794 25.5631 23.1759 25.8524 23.2534C26.1417 23.3308 26.4381 23.1596 26.5156 22.8704L26.936 21.301L27.9823 21.5812L27.5619 23.1506C27.4844 23.4399 27.6556 23.7364 27.9449 23.8139C28.2342 23.8913 28.5307 23.7201 28.6082 23.4308L29.0543 21.7652C29.5397 21.7259 29.9821 21.4704 30.2588 21.0697L31.9244 21.5158C32.2137 21.5933 32.5102 21.4221 32.5877 21.1328C32.6652 20.8435 32.494 20.547 32.2047 20.4696L30.6353 20.0492L30.9155 19.0029L32.4849 19.4233C32.7742 19.5008 33.0707 19.3296 33.1482 19.0403C33.2257 18.751 33.0545 18.4545 32.7652 18.377L31.1958 17.9567L31.476 16.9104L33.0454 17.3308C33.3347 17.4083 33.6312 17.2371 33.7087 16.9478C33.7862 16.6585 33.615 16.362 33.3257 16.2845L31.66 15.8384C31.6207 15.3529 31.3652 14.9106 30.9645 14.6339L31.4106 12.9682C31.4881 12.6789 31.3169 12.3825 31.0276 12.305C30.7383 12.2275 30.4419 12.3987 30.3644 12.688L29.944 14.2574L28.8977 13.9771L29.3181 12.4077C29.3956 12.1185 29.2244 11.822 28.9351 11.7445C28.6458 11.667 28.3493 11.8382 28.2718 12.1275L27.8515 13.6969L26.8052 13.4166L27.2256 11.8472C27.3031 11.558 27.1319 11.2615 26.8426 11.184C26.5533 11.1065 26.2568 11.2777 26.1793 11.567L25.7332 13.2326C25.2478 13.2719 24.8054 13.5274 24.5287 13.9282L22.8631 13.482C22.5738 13.4045 22.2773 13.5757 22.1998 13.865C22.1223 14.1543 22.2935 14.4508 22.5828 14.5283L24.1522 14.9487L23.8719 15.9949L22.3026 15.5746C22.0133 15.4971 21.7168 15.6683 21.6393 15.9576C21.5618 16.2469 21.733 16.5433 22.0223 16.6208L23.5917 17.0412L23.3115 18.0874L21.7421 17.6671ZM26.0018 14.3228L30.1869 15.4438C30.4756 15.5211 30.6472 15.8183 30.5699 16.107L29.4489 20.2921C29.3715 20.5808 29.0744 20.7524 28.7856 20.6751L24.6006 19.5541C24.3118 19.4767 24.1402 19.1796 24.2176 18.8908L25.3386 14.7058C25.4159 14.417 25.7131 14.2454 26.0018 14.3228Z" fill="#083A5E"></path></g><path d="M59.35 30L62.374 20.2H64.446L67.47 30H66.252L65.496 27.522H61.324L60.568 30H59.35ZM61.618 26.458H65.188L63.508 20.914H63.312L61.618 26.458ZM68.9804 30V23.154H70.0864V30H68.9804ZM69.5404 22.09C69.2977 22.09 69.0924 22.0107 68.9244 21.852C68.7657 21.6933 68.6864 21.4927 68.6864 21.25C68.6864 20.998 68.7657 20.7927 68.9244 20.634C69.0924 20.4753 69.2977 20.396 69.5404 20.396C69.783 20.396 69.9837 20.4753 70.1424 20.634C70.301 20.7927 70.3804 20.998 70.3804 21.25C70.3804 21.4927 70.301 21.6933 70.1424 21.852C69.9837 22.0107 69.783 22.09 69.5404 22.09ZM79.5077 30.196C78.341 30.196 77.4124 29.86 76.7217 29.188C76.031 28.5067 75.6857 27.5173 75.6857 26.22V23.98C75.6857 22.6827 76.031 21.698 76.7217 21.026C77.4124 20.3447 78.341 20.004 79.5077 20.004C80.665 20.004 81.5517 20.326 82.1677 20.97C82.793 21.614 83.1057 22.496 83.1057 23.616V23.686H81.9437V23.574C81.9437 22.8367 81.743 22.2347 81.3417 21.768C80.9497 21.292 80.3384 21.054 79.5077 21.054C78.677 21.054 78.0284 21.3107 77.5617 21.824C77.095 22.328 76.8617 23.0373 76.8617 23.952V26.248C76.8617 27.1627 77.095 27.8767 77.5617 28.39C78.0284 28.894 78.677 29.146 79.5077 29.146C80.3384 29.146 80.9497 28.9127 81.3417 28.446C81.743 27.97 81.9437 27.3633 81.9437 26.626V26.402H83.1057V26.584C83.1057 27.704 82.793 28.586 82.1677 29.23C81.5517 29.874 80.665 30.196 79.5077 30.196ZM88.1541 30.196C87.4635 30.196 86.8521 30.0513 86.3201 29.762C85.7975 29.4727 85.3868 29.0667 85.0881 28.544C84.7988 28.012 84.6541 27.3867 84.6541 26.668V26.486C84.6541 25.7767 84.7988 25.156 85.0881 24.624C85.3868 24.092 85.7975 23.6813 86.3201 23.392C86.8521 23.1027 87.4635 22.958 88.1541 22.958C88.8448 22.958 89.4515 23.1027 89.9741 23.392C90.5061 23.6813 90.9168 24.092 91.2061 24.624C91.5048 25.156 91.6541 25.7767 91.6541 26.486V26.668C91.6541 27.3867 91.5048 28.012 91.2061 28.544C90.9168 29.0667 90.5061 29.4727 89.9741 29.762C89.4515 30.0513 88.8448 30.196 88.1541 30.196ZM88.1541 29.202C88.8821 29.202 89.4608 28.9733 89.8901 28.516C90.3288 28.0493 90.5481 27.424 90.5481 26.64V26.514C90.5481 25.73 90.3288 25.1093 89.8901 24.652C89.4608 24.1853 88.8821 23.952 88.1541 23.952C87.4355 23.952 86.8568 24.1853 86.4181 24.652C85.9795 25.1093 85.7601 25.73 85.7601 26.514V26.64C85.7601 27.424 85.9795 28.0493 86.4181 28.516C86.8568 28.9733 87.4355 29.202 88.1541 29.202ZM93.6444 30V23.154H94.7224V24.316H94.9184C95.0678 23.9893 95.3198 23.6953 95.6744 23.434C96.0384 23.1633 96.5704 23.028 97.2704 23.028C97.7838 23.028 98.2411 23.1353 98.6424 23.35C99.0531 23.5647 99.3798 23.882 99.6224 24.302C99.8651 24.722 99.9864 25.24 99.9864 25.856V30H98.8804V25.94C98.8804 25.2587 98.7078 24.764 98.3624 24.456C98.0264 24.148 97.5691 23.994 96.9904 23.994C96.3278 23.994 95.7864 24.2087 95.3664 24.638C94.9558 25.0673 94.7504 25.7067 94.7504 26.556V30H93.6444ZM104.559 30C104.167 30 103.864 29.8927 103.649 29.678C103.444 29.4633 103.341 29.1693 103.341 28.796V24.12H101.283V23.154H103.341V20.718H104.447V23.154H106.687V24.12H104.447V28.628C104.447 28.908 104.582 29.048 104.853 29.048H106.379V30H104.559ZM111.368 30.196C110.678 30.196 110.071 30.0513 109.548 29.762C109.026 29.4633 108.62 29.048 108.33 28.516C108.041 27.984 107.896 27.368 107.896 26.668V26.5C107.896 25.7907 108.041 25.17 108.33 24.638C108.62 24.106 109.021 23.6953 109.534 23.406C110.048 23.1073 110.636 22.958 111.298 22.958C111.942 22.958 112.512 23.098 113.006 23.378C113.501 23.6487 113.888 24.0407 114.168 24.554C114.448 25.0673 114.588 25.6693 114.588 26.36V26.864H109.002C109.03 27.6013 109.268 28.18 109.716 28.6C110.164 29.0107 110.724 29.216 111.396 29.216C111.984 29.216 112.437 29.0807 112.754 28.81C113.072 28.5393 113.314 28.2173 113.482 27.844L114.434 28.306C114.294 28.5953 114.098 28.8847 113.846 29.174C113.604 29.4633 113.282 29.706 112.88 29.902C112.488 30.098 111.984 30.196 111.368 30.196ZM109.016 25.954H113.468C113.431 25.3193 113.212 24.8247 112.81 24.47C112.418 24.1153 111.914 23.938 111.298 23.938C110.673 23.938 110.16 24.1153 109.758 24.47C109.357 24.8247 109.11 25.3193 109.016 25.954ZM116.517 30V23.154H117.595V24.316H117.791C117.941 23.9893 118.193 23.6953 118.547 23.434C118.911 23.1633 119.443 23.028 120.143 23.028C120.657 23.028 121.114 23.1353 121.515 23.35C121.926 23.5647 122.253 23.882 122.495 24.302C122.738 24.722 122.859 25.24 122.859 25.856V30H121.753V25.94C121.753 25.2587 121.581 24.764 121.235 24.456C120.899 24.148 120.442 23.994 119.863 23.994C119.201 23.994 118.659 24.2087 118.239 24.638C117.829 25.0673 117.623 25.7067 117.623 26.556V30H116.517ZM127.432 30C127.04 30 126.737 29.8927 126.522 29.678C126.317 29.4633 126.214 29.1693 126.214 28.796V24.12H124.156V23.154H126.214V20.718H127.32V23.154H129.56V24.12H127.32V28.628C127.32 28.908 127.455 29.048 127.726 29.048H129.252V30H127.432ZM135.803 30L134.207 20.2H135.383L136.769 29.244H136.965L138.771 20.2H140.871L142.663 29.244H142.859L144.245 20.2H145.421L143.825 30H141.725L139.919 20.9H139.723L137.917 30H135.803ZM147.06 30V23.154H148.138V23.994H148.334C148.456 23.6953 148.642 23.476 148.894 23.336C149.146 23.196 149.478 23.126 149.888 23.126H150.7V24.134H149.818C149.324 24.134 148.922 24.274 148.614 24.554C148.316 24.8247 148.166 25.2493 148.166 25.828V30H147.06ZM152.338 30V23.154H153.444V30H152.338ZM152.898 22.09C152.655 22.09 152.45 22.0107 152.282 21.852C152.123 21.6933 152.044 21.4927 152.044 21.25C152.044 20.998 152.123 20.7927 152.282 20.634C152.45 20.4753 152.655 20.396 152.898 20.396C153.14 20.396 153.341 20.4753 153.5 20.634C153.658 20.7927 153.738 20.998 153.738 21.25C153.738 21.4927 153.658 21.6933 153.5 21.852C153.341 22.0107 153.14 22.09 152.898 22.09ZM158.289 30C157.897 30 157.594 29.8927 157.379 29.678C157.174 29.4633 157.071 29.1693 157.071 28.796V24.12H155.013V23.154H157.071V20.718H158.177V23.154H160.417V24.12H158.177V28.628C158.177 28.908 158.313 29.048 158.583 29.048H160.109V30H158.289ZM162.209 30V23.154H163.315V30H162.209ZM162.769 22.09C162.526 22.09 162.321 22.0107 162.153 21.852C161.994 21.6933 161.915 21.4927 161.915 21.25C161.915 20.998 161.994 20.7927 162.153 20.634C162.321 20.4753 162.526 20.396 162.769 20.396C163.012 20.396 163.212 20.4753 163.371 20.634C163.53 20.7927 163.609 20.998 163.609 21.25C163.609 21.4927 163.53 21.6933 163.371 21.852C163.212 22.0107 163.012 22.09 162.769 22.09ZM165.641 30V23.154H166.719V24.316H166.915C167.064 23.9893 167.316 23.6953 167.671 23.434C168.035 23.1633 168.567 23.028 169.267 23.028C169.78 23.028 170.237 23.1353 170.639 23.35C171.049 23.5647 171.376 23.882 171.619 24.302C171.861 24.722 171.983 25.24 171.983 25.856V30H170.877V25.94C170.877 25.2587 170.704 24.764 170.359 24.456C170.023 24.148 169.565 23.994 168.987 23.994C168.324 23.994 167.783 24.2087 167.363 24.638C166.952 25.0673 166.747 25.7067 166.747 26.556V30H165.641ZM173.89 26.612V26.416C173.89 25.6973 174.035 25.0813 174.324 24.568C174.614 24.0547 175.006 23.658 175.5 23.378C175.995 23.098 176.536 22.958 177.124 22.958C177.843 22.958 178.394 23.098 178.776 23.378C179.168 23.6487 179.458 23.952 179.644 24.288H179.84V23.154H180.89V31.596C180.89 31.9693 180.788 32.2633 180.582 32.478C180.377 32.6927 180.078 32.8 179.686 32.8H175.038V31.82H179.392C179.672 31.82 179.812 31.68 179.812 31.4V28.796H179.616C179.504 29.0013 179.346 29.202 179.14 29.398C178.935 29.594 178.669 29.7573 178.342 29.888C178.016 30.0093 177.61 30.07 177.124 30.07C176.536 30.07 175.995 29.93 175.5 29.65C175.006 29.37 174.614 28.9733 174.324 28.46C174.035 27.9373 173.89 27.3213 173.89 26.612ZM177.418 29.09C178.128 29.09 178.702 28.866 179.14 28.418C179.588 27.97 179.812 27.354 179.812 26.57V26.458C179.812 25.6647 179.588 25.0487 179.14 24.61C178.702 24.162 178.128 23.938 177.418 23.938C176.718 23.938 176.14 24.162 175.682 24.61C175.234 25.0487 175.01 25.6647 175.01 26.458V26.57C175.01 27.354 175.234 27.97 175.682 28.418C176.14 28.866 176.718 29.09 177.418 29.09Z" fill="#083A5E"></path><defs><clipPath id="clip0_309_260"><rect width="32.4943" height="32.4943" fill="white" transform="translate(18.4072 5) rotate(14.995)"></rect></clipPath></defs></svg>