<svg xmlns="http://www.w3.org/2000/svg" width="30" height="32" viewBox="0 0 30 32" fill="none"><path d="M12.7148 6.43359C18.75 6.78516 23.9648 12 24.3164 17.9766C24.375 18.7383 23.7891 19.4414 23.0273 19.5C22.9688 19.5 22.9688 19.5 22.9102 19.5C22.207 19.5 21.5625 18.9141 21.5625 18.1523C21.2109 13.5234 17.168 9.48047 12.5391 9.1875C11.7773 9.1875 11.1914 8.48438 11.25 7.72266C11.25 6.96094 11.9531 6.375 12.7148 6.43359ZM13.125 0.75C22.3828 0.75 30 8.36719 30 17.625C30 18.6797 29.1211 19.5 28.125 19.5C27.0703 19.5 26.25 18.6797 26.25 17.625C26.25 10.418 20.332 4.5 13.125 4.5C12.0703 4.5 11.25 3.67969 11.25 2.625C11.25 1.62891 12.0703 0.75 13.125 0.75ZM10.0781 14.0508C14.4727 14.9297 17.6953 19.3242 16.6406 24.1289C15.9961 27.293 13.418 29.8711 10.2539 30.5156C4.80469 31.6875 0 27.5273 0 22.3125V7.78125C0 7.01953 0.585938 6.43359 1.34766 6.43359H4.16016C4.98047 6.43359 5.56641 7.01953 5.56641 7.78125V22.2539C5.56641 23.7188 6.85547 25.0078 8.4375 25.0078C9.96094 25.0078 11.25 23.7773 11.25 22.2539C11.25 21.082 10.4297 20.0273 9.375 19.6758C8.84766 19.5 8.4375 19.0312 8.4375 18.3867V15.457C8.4375 14.5781 9.19922 13.875 10.0781 14.0508Z" fill="#083A5E"></path></svg>