<svg xmlns="http://www.w3.org/2000/svg" width="156" height="44" viewBox="0 0 156 44" fill="none"><rect width="156" height="44" rx="6" fill="#CBF3E7"></rect><path d="M60.658 27V25.95H62.03V18.25H60.658V17.2H65.572C66.1413 17.2 66.6453 17.3027 67.084 17.508C67.532 17.7133 67.8773 18.0027 68.12 18.376C68.372 18.74 68.498 19.1693 68.498 19.664V19.776C68.498 20.2333 68.4093 20.6113 68.232 20.91C68.0547 21.1993 67.8447 21.428 67.602 21.596C67.3593 21.7547 67.1213 21.8713 66.888 21.946V22.142C67.1213 22.198 67.364 22.31 67.616 22.478C67.868 22.6367 68.078 22.8653 68.246 23.164C68.4233 23.4627 68.512 23.8407 68.512 24.298V24.438C68.512 24.97 68.3813 25.432 68.12 25.824C67.868 26.2067 67.518 26.5007 67.07 26.706C66.6313 26.902 66.1273 27 65.558 27H60.658ZM63.206 25.936H65.432C66.048 25.936 66.5193 25.7913 66.846 25.502C67.1727 25.2127 67.336 24.8207 67.336 24.326V24.2C67.336 23.7053 67.1727 23.3133 66.846 23.024C66.5193 22.7347 66.048 22.59 65.432 22.59H63.206V25.936ZM63.206 21.526H65.474C66.034 21.526 66.482 21.386 66.818 21.106C67.154 20.8167 67.322 20.4387 67.322 19.972V19.832C67.322 19.356 67.154 18.978 66.818 18.698C66.4913 18.4087 66.0433 18.264 65.474 18.264H63.206V21.526ZM70.4179 27V17.2H71.5239V27H70.4179ZM77.0135 27.196C76.3228 27.196 75.7115 27.0513 75.1795 26.762C74.6568 26.4727 74.2462 26.0667 73.9475 25.544C73.6582 25.012 73.5135 24.3867 73.5135 23.668V23.486C73.5135 22.7767 73.6582 22.156 73.9475 21.624C74.2462 21.092 74.6568 20.6813 75.1795 20.392C75.7115 20.1027 76.3228 19.958 77.0135 19.958C77.7042 19.958 78.3108 20.1027 78.8335 20.392C79.3655 20.6813 79.7762 21.092 80.0655 21.624C80.3642 22.156 80.5135 22.7767 80.5135 23.486V23.668C80.5135 24.3867 80.3642 25.012 80.0655 25.544C79.7762 26.0667 79.3655 26.4727 78.8335 26.762C78.3108 27.0513 77.7042 27.196 77.0135 27.196ZM77.0135 26.202C77.7415 26.202 78.3202 25.9733 78.7495 25.516C79.1882 25.0493 79.4075 24.424 79.4075 23.64V23.514C79.4075 22.73 79.1882 22.1093 78.7495 21.652C78.3202 21.1853 77.7415 20.952 77.0135 20.952C76.2948 20.952 75.7162 21.1853 75.2775 21.652C74.8388 22.1093 74.6195 22.73 74.6195 23.514V23.64C74.6195 24.424 74.8388 25.0493 75.2775 25.516C75.7162 25.9733 76.2948 26.202 77.0135 26.202ZM82.1678 23.612V23.416C82.1678 22.6973 82.3125 22.0813 82.6018 21.568C82.8911 21.0547 83.2831 20.658 83.7778 20.378C84.2725 20.098 84.8138 19.958 85.4018 19.958C86.1205 19.958 86.6711 20.098 87.0538 20.378C87.4458 20.6487 87.7351 20.952 87.9218 21.288H88.1178V20.154H89.1678V28.596C89.1678 28.9693 89.0651 29.2633 88.8598 29.478C88.6545 29.6927 88.3558 29.8 87.9638 29.8H83.3158V28.82H87.6698C87.9498 28.82 88.0898 28.68 88.0898 28.4V25.796H87.8938C87.7818 26.0013 87.6231 26.202 87.4178 26.398C87.2125 26.594 86.9465 26.7573 86.6198 26.888C86.2931 27.0093 85.8871 27.07 85.4018 27.07C84.8138 27.07 84.2725 26.93 83.7778 26.65C83.2831 26.37 82.8911 25.9733 82.6018 25.46C82.3125 24.9373 82.1678 24.3213 82.1678 23.612ZM85.6958 26.09C86.4051 26.09 86.9791 25.866 87.4178 25.418C87.8658 24.97 88.0898 24.354 88.0898 23.57V23.458C88.0898 22.6647 87.8658 22.0487 87.4178 21.61C86.9791 21.162 86.4051 20.938 85.6958 20.938C84.9958 20.938 84.4171 21.162 83.9598 21.61C83.5118 22.0487 83.2878 22.6647 83.2878 23.458V23.57C83.2878 24.354 83.5118 24.97 83.9598 25.418C84.4171 25.866 84.9958 26.09 85.6958 26.09ZM95.9382 27L94.3422 17.2H95.5182L96.9042 26.244H97.1002L98.9062 17.2H101.006L102.798 26.244H102.994L104.38 17.2H105.556L103.96 27H101.86L100.054 17.9H99.8582L98.0522 27H95.9382ZM107.195 27V20.154H108.273V20.994H108.469C108.591 20.6953 108.777 20.476 109.029 20.336C109.281 20.196 109.613 20.126 110.023 20.126H110.835V21.134H109.953C109.459 21.134 109.057 21.274 108.749 21.554C108.451 21.8247 108.301 22.2493 108.301 22.828V27H107.195ZM112.473 27V20.154H113.579V27H112.473ZM113.033 19.09C112.79 19.09 112.585 19.0107 112.417 18.852C112.258 18.6933 112.179 18.4927 112.179 18.25C112.179 17.998 112.258 17.7927 112.417 17.634C112.585 17.4753 112.79 17.396 113.033 17.396C113.275 17.396 113.476 17.4753 113.635 17.634C113.793 17.7927 113.873 17.998 113.873 18.25C113.873 18.4927 113.793 18.6933 113.635 18.852C113.476 19.0107 113.275 19.09 113.033 19.09ZM118.424 27C118.032 27 117.729 26.8927 117.514 26.678C117.309 26.4633 117.206 26.1693 117.206 25.796V21.12H115.148V20.154H117.206V17.718H118.312V20.154H120.552V21.12H118.312V25.628C118.312 25.908 118.448 26.048 118.718 26.048H120.244V27H118.424ZM122.344 27V20.154H123.45V27H122.344ZM122.904 19.09C122.661 19.09 122.456 19.0107 122.288 18.852C122.129 18.6933 122.05 18.4927 122.05 18.25C122.05 17.998 122.129 17.7927 122.288 17.634C122.456 17.4753 122.661 17.396 122.904 17.396C123.146 17.396 123.347 17.4753 123.506 17.634C123.664 17.7927 123.744 17.998 123.744 18.25C123.744 18.4927 123.664 18.6933 123.506 18.852C123.347 19.0107 123.146 19.09 122.904 19.09ZM125.775 27V20.154H126.853V21.316H127.049C127.199 20.9893 127.451 20.6953 127.805 20.434C128.169 20.1633 128.701 20.028 129.401 20.028C129.915 20.028 130.372 20.1353 130.773 20.35C131.184 20.5647 131.511 20.882 131.753 21.302C131.996 21.722 132.117 22.24 132.117 22.856V27H131.011V22.94C131.011 22.2587 130.839 21.764 130.493 21.456C130.157 21.148 129.7 20.994 129.121 20.994C128.459 20.994 127.917 21.2087 127.497 21.638C127.087 22.0673 126.881 22.7067 126.881 23.556V27H125.775ZM134.025 23.612V23.416C134.025 22.6973 134.17 22.0813 134.459 21.568C134.749 21.0547 135.141 20.658 135.635 20.378C136.13 20.098 136.671 19.958 137.259 19.958C137.978 19.958 138.529 20.098 138.911 20.378C139.303 20.6487 139.593 20.952 139.779 21.288H139.975V20.154H141.025V28.596C141.025 28.9693 140.923 29.2633 140.717 29.478C140.512 29.6927 140.213 29.8 139.821 29.8H135.173V28.82H139.527C139.807 28.82 139.947 28.68 139.947 28.4V25.796H139.751C139.639 26.0013 139.481 26.202 139.275 26.398C139.07 26.594 138.804 26.7573 138.477 26.888C138.151 27.0093 137.745 27.07 137.259 27.07C136.671 27.07 136.13 26.93 135.635 26.65C135.141 26.37 134.749 25.9733 134.459 25.46C134.17 24.9373 134.025 24.3213 134.025 23.612ZM137.553 26.09C138.263 26.09 138.837 25.866 139.275 25.418C139.723 24.97 139.947 24.354 139.947 23.57V23.458C139.947 22.6647 139.723 22.0487 139.275 21.61C138.837 21.162 138.263 20.938 137.553 20.938C136.853 20.938 136.275 21.162 135.817 21.61C135.369 22.0487 135.145 22.6647 135.145 23.458V23.57C135.145 24.354 135.369 24.97 135.817 25.418C136.275 25.866 136.853 26.09 137.553 26.09Z" fill="#083A5E"></path><g clip-path="url(#clip0_309_359)"><path d="M41.1971 34.0269L41.3953 34.6487C41.6027 35.293 41.551 35.5751 41.3756 35.8048C41.1987 36.0343 40.7703 36.2655 40.085 36.4917L37.0091 37.5035C36.3251 37.7273 35.8432 37.7932 35.5695 37.7124C35.2977 37.6316 35.0932 37.4353 34.8873 36.7917L34.6675 36.1999L41.1971 34.0269ZM35.2401 23.5174L35.84 25.3195C36.0233 25.8789 35.7951 26.4891 34.9473 26.8358L33.0453 23.9398C33.1937 23.9394 33.3445 23.9273 33.5041 23.892L35.2401 23.5174ZM29.2243 20.8285L30.2102 21.1858L37.137 31.7387C37.2737 31.9456 37.2937 32.1004 37.2439 32.2405C37.1195 32.586 36.7734 32.7862 36.499 32.7298C36.3544 32.7001 36.2154 32.643 36.0788 32.4358L31.8388 25.9703C31.7208 24.6794 31.4321 23.8515 30.9898 23.3263C30.6083 22.8748 30.1122 22.6942 29.6627 22.6643L29.1598 21.8932L29.2243 20.8285ZM37.2814 21.0818L38.8382 25.7692C39.0206 26.3134 39.837 26.0405 39.656 25.4966L39.0262 23.5974C39.6472 24.1056 40.3875 24.7324 40.8616 25.2044C41.3388 25.6795 41.5018 26.1912 41.4326 26.9495L41.1415 30.0499C41.0569 30.9427 40.7546 32.1211 40.9589 33.2018L34.3583 35.395C34.1136 34.8107 33.8173 34.3875 33.3985 33.8999L29.2503 29.0727C28.9556 28.7321 28.973 28.1546 29.1468 27.4819L29.585 25.7792L29.8059 23.6632C29.9803 23.7058 30.1644 23.6815 30.332 23.8805C30.6018 24.1998 30.9053 24.8575 30.9852 26.0547C30.997 26.2379 31.0569 26.3452 31.1448 26.4811L35.3614 32.9105C35.8805 33.7008 36.729 33.7624 37.4325 33.3362C38.1724 32.8866 38.3138 31.9659 37.854 31.2658L35.4253 27.5646C36.4851 27.0387 36.9667 25.9886 36.6533 25.048L35.9334 22.8791C35.8649 22.6716 35.6507 22.5472 35.4358 22.594L33.3242 23.0521C32.6022 23.2087 32.3906 22.9757 32.3032 22.7081C32.1907 22.3721 32.3478 22.1366 32.7142 21.971L35.9108 20.5097C36.6007 20.1939 37.0655 20.429 37.2814 21.0818ZM35.5559 19.7252L32.0722 21.3165C31.8631 21.412 31.7089 21.5619 31.599 21.7347L30.8485 20.5939C30.7966 20.5152 30.7221 20.4564 30.6345 20.4245L28.9774 19.8261C28.6854 19.7206 28.4186 19.9256 28.4017 20.2022L28.2929 21.9828C28.2853 22.0754 28.3099 22.1675 28.3626 22.246L28.9887 23.199L28.7436 25.5944L28.3144 27.2692C28.1193 28.0373 28.0105 28.95 28.5991 29.6351L32.7474 34.4603C33.2363 35.028 33.4472 35.3454 33.6989 36.0665C33.8118 36.3966 33.9449 36.723 34.0666 37.0507C34.3164 37.8314 34.7349 38.3624 35.3248 38.5371C35.9154 38.7123 36.5399 38.5606 37.2776 38.3202L40.3538 37.3064C41.0895 37.0641 41.6799 36.8167 42.0569 36.3278C42.431 35.8374 42.4648 35.1632 42.2154 34.3845L41.8796 33.3491C41.5938 32.4953 41.9021 31.0855 41.9972 30.13L42.2883 27.0297C42.3766 26.0882 42.1186 25.2397 41.4687 24.593C40.4645 23.5955 38.6665 22.2102 38.5308 22.1064L38.0972 20.8076C37.6916 19.5957 36.7103 19.1986 35.5559 19.7252Z" fill="#083A5E"></path><path d="M26.371 15.403C25.7979 15.2852 25.663 16.1535 26.2357 16.2712L36.0406 18.2863C36.6338 18.4082 36.8139 17.5493 36.2173 17.4267L26.371 15.403Z" fill="#083A5E"></path><path d="M21.918 14.4875C21.3449 14.3697 21.2096 15.2379 21.7827 15.3557L24.0679 15.8253C24.6611 15.9472 24.8412 15.0883 24.2445 14.9657L21.918 14.4875Z" fill="#083A5E"></path><path d="M24.7742 11.3869C24.2011 11.2691 24.0657 12.1376 24.6411 12.2559L34.6475 14.3124C35.2384 14.4339 35.4186 13.5746 34.8243 13.4524L24.7742 11.3869Z" fill="#083A5E"></path><path d="M21.1914 18.0237C20.6183 17.9059 20.4829 18.7748 21.056 18.8926L26.7213 20.0569C27.3145 20.1788 27.4947 19.3191 26.8981 19.1965L21.1914 18.0237Z" fill="#083A5E"></path><path fill-rule="evenodd" clip-rule="evenodd" d="M13.1576 30.599L28.3367 33.7187C28.2532 34.6968 28.5564 35.6388 29.1376 36.3698L15.3081 33.5275C13.9084 33.2399 13.1162 31.973 13.1576 30.599ZM43.7872 9.63685C45.2896 9.98716 46.0543 11.2301 46.0121 12.5767L40.5897 11.4623C41.0653 10.17 42.3918 9.38765 43.7872 9.63685ZM24.4983 4.77066C22.4678 4.35334 20.4803 5.66517 20.0635 7.69303L15.4435 30.1725L12.7252 29.6138C12.4899 29.5655 12.2588 29.7181 12.2105 29.953C11.7934 31.9828 13.1013 33.97 15.1314 34.3872L31.3228 37.7149C31.9357 37.8409 32.5388 37.8125 33.0916 37.65C33.643 37.4868 33.4256 36.668 32.8544 36.8121C32.4256 36.9218 31.9682 36.9512 31.4999 36.8549C29.9662 36.5397 28.9758 35.0921 29.2426 33.5647C29.294 33.2663 29.2065 32.988 28.9174 32.9413L16.3032 30.3488L20.9232 7.8697C21.2454 6.30184 22.7514 5.30996 24.3212 5.63258L41.5008 9.16339C40.5581 9.67216 39.8377 10.5791 39.6054 11.7093L38.0949 19.0586C37.9487 19.6488 38.8562 19.8353 38.9549 19.2354L40.3772 12.3153L46.4459 13.5626C46.6831 13.6114 46.9123 13.4587 46.9626 13.2214C47.3795 11.1932 46.0506 9.20014 43.8781 8.75365L24.4983 4.77066Z" fill="#083A5E"></path></g><defs><clipPath id="clip0_309_359"><rect width="34.8721" height="34.8721" fill="white" transform="translate(16.0205 1) rotate(11.6139)"></rect></clipPath></defs></svg>