<svg xmlns="http://www.w3.org/2000/svg" width="30" height="27" viewBox="0 0 30 27" fill="none"><path d="M0 4.375C0 2.32422 1.64062 0.625 3.75 0.625H26.25C28.3008 0.625 30 2.32422 30 4.375V23.125C30 25.2344 28.3008 26.875 26.25 26.875H3.75C1.64062 26.875 0 25.2344 0 23.125V4.375ZM5.625 8.125C6.62109 8.125 7.5 7.30469 7.5 6.25C7.5 5.25391 6.62109 4.375 5.625 4.375C4.57031 4.375 3.75 5.25391 3.75 6.25C3.75 7.30469 4.57031 8.125 5.625 8.125ZM26.25 6.25C26.25 5.48828 25.6055 4.84375 24.8438 4.84375H10.7812C9.96094 4.84375 9.375 5.48828 9.375 6.25C9.375 7.07031 9.96094 7.65625 10.7812 7.65625H24.8438C25.6055 7.65625 26.25 7.07031 26.25 6.25Z" fill="#083A5E"></path></svg>