<svg xmlns="http://www.w3.org/2000/svg" width="38" height="31" viewBox="0 0 38 31" fill="none"><path d="M4 2.15625C4 1.39453 4.58594 0.75 5.40625 0.75H9.625C10.2695 0.75 10.8555 1.27734 10.9727 1.92188L11.0898 2.625H35.6992C36.9297 2.625 37.8672 3.85547 37.5156 5.02734L34.3516 16.2773C34.1172 17.0977 33.4141 17.625 32.5352 17.625H13.9609L14.4883 20.4375H32.5938C33.3555 20.4375 34 21.082 34 21.8438C34 22.6641 33.3555 23.25 32.5938 23.25H13.3164C12.6719 23.25 12.0859 22.7812 11.9688 22.1367L8.45312 3.5625H5.40625C4.58594 3.5625 4 2.97656 4 2.15625ZM17.125 27.9375C17.125 29.5195 15.8359 30.75 14.3125 30.75C12.7305 30.75 11.5 29.5195 11.5 27.9375C11.5 26.4141 12.7305 25.125 14.3125 25.125C15.8359 25.125 17.125 26.4141 17.125 27.9375ZM28.375 27.9375C28.375 26.4141 29.6055 25.125 31.1875 25.125C32.7109 25.125 34 26.4141 34 27.9375C34 29.5195 32.7109 30.75 31.1875 30.75C29.6055 30.75 28.375 29.5195 28.375 27.9375ZM6.34375 6.375C7.10547 6.375 7.75 7.01953 7.75 7.78125C7.75 8.60156 7.10547 9.1875 6.34375 9.1875H1.65625C0.835938 9.1875 0.25 8.60156 0.25 7.78125C0.25 7.01953 0.835938 6.375 1.65625 6.375H6.34375ZM7.28125 11.0625C8.04297 11.0625 8.6875 11.707 8.6875 12.4688C8.6875 13.2891 8.04297 13.875 7.28125 13.875H1.65625C0.835938 13.875 0.25 13.2891 0.25 12.4688C0.25 11.707 0.835938 11.0625 1.65625 11.0625H7.28125ZM8.21875 15.75C8.98047 15.75 9.625 16.3945 9.625 17.1562C9.625 17.9766 8.98047 18.5625 8.21875 18.5625H1.65625C0.835938 18.5625 0.25 17.9766 0.25 17.1562C0.25 16.3945 0.835938 15.75 1.65625 15.75H8.21875Z" fill="#083A5E"></path></svg>