<svg xmlns="http://www.w3.org/2000/svg" width="182" height="50" viewBox="0 0 182 50" fill="none"><rect width="182" height="50" rx="6" fill="#CBF3E7"></rect><path d="M40.2638 20.7021L35.2387 12.2507C35.0872 11.9957 34.8381 11.8086 34.5536 11.7362L30.7393 10.7646L23.6414 38.6322L33.0119 41.0188C34.2659 41.3382 35.5407 40.581 35.8601 39.327L40.3879 21.5498C40.4604 21.2654 40.4152 20.9571 40.2638 20.7021Z" fill="#497696"></path><path d="M32.9378 41.3095L23.5675 38.9229C23.4071 38.8821 23.3103 38.7192 23.3512 38.5587L30.449 10.6912C30.4899 10.5307 30.6528 10.4339 30.8132 10.4748L34.6278 11.4464C34.9884 11.5382 35.3046 11.7757 35.496 12.0983L40.5214 20.5496C40.7126 20.8724 40.7699 21.264 40.6781 21.6243L36.1502 39.4015C35.7907 40.8133 34.3495 41.6691 32.9378 41.3095ZM24.0057 38.4163L33.0856 40.729C34.177 41.0069 35.2917 40.3451 35.5697 39.2537L40.0975 21.4764C40.1504 21.2689 40.1169 21.0424 40.0063 20.8555L34.9809 12.4042C34.8698 12.2171 34.6874 12.0798 34.4799 12.027L30.9557 11.1293L24.0057 38.4163Z" fill="#497696"></path><path d="M38.7602 20.6598L34.1185 38.884C33.7991 40.1381 32.5243 40.8953 31.2703 40.5759L12.5584 35.81C11.3044 35.4906 10.5471 34.2158 10.8665 32.9618L16.808 9.63432C17.1275 8.38026 18.4022 7.62303 19.6563 7.94243L33.2591 11.4071L38.7602 20.6598Z" fill="white"></path><path d="M31.1962 40.8661L12.4846 36.1003C11.0729 35.7407 10.2167 34.2997 10.5763 32.888L16.5178 9.56042C16.8774 8.14867 18.3186 7.29257 19.7303 7.65214L33.333 11.1167C33.4101 11.1364 33.476 11.1858 33.5166 11.2541L39.0177 20.5069C39.0582 20.5752 39.0701 20.6567 39.0504 20.7338L34.4087 38.9581C34.0491 40.3698 32.608 41.2257 31.1962 40.8661ZM19.5825 8.23271C18.4911 7.95473 17.3764 8.6166 17.0984 9.70829L11.1568 33.0358C10.8789 34.1273 11.5411 35.2417 12.6325 35.5197L31.3441 40.2855C32.4355 40.5635 33.5501 39.9016 33.8281 38.8102L38.4392 20.7061L33.0649 11.6667L19.5825 8.23271Z" fill="#083A5E"></path><path d="M24.1596 36.6037L13.1287 33.7942C12.9683 33.7533 12.8715 33.5904 12.9124 33.4299C12.9533 33.2695 13.1162 33.1727 13.2766 33.2136L24.3075 36.0232C24.468 36.064 24.5647 36.2269 24.5239 36.3874C24.483 36.5478 24.3201 36.6446 24.1596 36.6037Z" fill="#083A5E"></path><path d="M29.1927 13.802L28.6648 15.8746C28.5391 16.3681 28.035 16.6725 27.5357 16.5453L19.0303 14.379C18.531 14.2518 18.2339 13.7434 18.3596 13.2499L18.8875 11.1773C19.0147 10.6779 19.5173 10.3794 20.0166 10.5065L28.522 12.6729C29.0213 12.8 29.3199 13.3027 29.1927 13.802Z" fill="#5AE4A7"></path><path d="M27.4619 16.836L18.9563 14.6696C18.3003 14.5026 17.9022 13.8327 18.0693 13.1765L18.5972 11.1039C18.7644 10.4477 19.4345 10.0496 20.0905 10.2167L28.5961 12.3831C29.2521 12.5501 29.6501 13.2203 29.483 13.8765L28.9551 15.9491C28.7879 16.6053 28.1179 17.0031 27.4619 16.836ZM19.9426 10.7973C19.6064 10.7116 19.2634 10.9156 19.1778 11.2518L18.6499 13.3243C18.5643 13.6606 18.7679 14.0034 19.1042 14.0891L27.6098 16.2554C27.946 16.3411 28.2889 16.1374 28.3745 15.8012L28.9024 13.7286C28.988 13.3924 28.7844 13.0493 28.4482 12.9636L19.9426 10.7973Z" fill="#083A5E"></path><path d="M36.0523 23.1435L24.9574 20.3176C24.7969 20.2767 24.7001 20.1138 24.741 19.9534C24.7819 19.7929 24.9448 19.6962 25.1052 19.737L36.2002 22.5629C36.3606 22.6038 36.4574 22.7667 36.4165 22.9271C36.3757 23.0876 36.2128 23.1843 36.0523 23.1435Z" fill="#083A5E"></path><path d="M23.2641 19.8866L17.0711 18.3093C16.9107 18.2684 16.8139 18.1055 16.8548 17.9451C16.8956 17.7846 17.0585 17.6879 17.219 17.7287L23.412 19.3061C23.5724 19.3469 23.6692 19.5098 23.6283 19.6703C23.5875 19.8307 23.4246 19.9275 23.2641 19.8866Z" fill="#083A5E"></path><path d="M34.6931 26.9218L30.6971 25.904C30.5367 25.8632 30.4399 25.7003 30.4808 25.5398C30.5216 25.3793 30.6845 25.2826 30.845 25.3234L34.841 26.3412C35.0014 26.3821 35.0982 26.545 35.0573 26.7054C35.0164 26.8659 34.8535 26.9627 34.6931 26.9218Z" fill="#083A5E"></path><path d="M29.2456 25.5342L16.0858 22.1823C15.9253 22.1415 15.8286 21.9786 15.8694 21.8181C15.9103 21.6577 16.0732 21.5609 16.2336 21.6018L29.3935 24.9536C29.554 24.9944 29.6507 25.1574 29.6099 25.3178C29.569 25.4783 29.4061 25.575 29.2456 25.5342Z" fill="#083A5E"></path><path d="M33.7074 30.7918L20.8089 27.5066C20.6485 27.4657 20.5517 27.3028 20.5926 27.1423C20.6334 26.9819 20.7963 26.8851 20.9568 26.926L33.8553 30.2112C34.0157 30.2521 34.1125 30.415 34.0716 30.5755C34.0308 30.7359 33.8679 30.8327 33.7074 30.7918Z" fill="#083A5E"></path><path d="M19.3091 27.125L15.0999 26.0529C14.9395 26.0121 14.8427 25.8492 14.8836 25.6887C14.9245 25.5283 15.0874 25.4315 15.2478 25.4724L19.457 26.5444C19.6174 26.5853 19.7142 26.7482 19.6733 26.9087C19.6325 27.0691 19.4695 27.1659 19.3091 27.125Z" fill="#083A5E"></path><path d="M32.7216 34.6631L27.0706 33.2238C26.9102 33.183 26.8134 33.0201 26.8543 32.8596C26.8952 32.6992 27.0581 32.6024 27.2185 32.6433L32.8695 34.0826C33.0299 34.1234 33.1267 34.2863 33.0858 34.4468C33.0449 34.6072 32.882 34.704 32.7216 34.6631Z" fill="#083A5E"></path><path d="M25.4738 32.8169L14.1141 29.9236C13.9536 29.8827 13.8569 29.7198 13.8977 29.5593C13.9386 29.3989 14.1015 29.3021 14.262 29.343L25.6217 32.2363C25.7822 32.2772 25.8789 32.4401 25.8381 32.6005C25.7972 32.761 25.6343 32.8577 25.4738 32.8169Z" fill="#083A5E"></path><path d="M38.7599 20.6595L32.5187 19.0699C31.8917 18.9102 31.5109 18.2691 31.6721 17.6363L33.2588 11.4067L38.7599 20.6595Z" fill="#DDDDDD"></path><path d="M38.686 20.9501L32.4449 19.3605C31.6573 19.1599 31.1805 18.3535 31.3819 17.5626L32.9686 11.333C32.9985 11.2156 33.0963 11.128 33.2161 11.1105C33.3357 11.0935 33.4547 11.1501 33.5164 11.254L39.0175 20.5068C39.0792 20.6107 39.0723 20.7421 38.9998 20.8392C38.9275 20.9361 38.8034 20.98 38.686 20.9501ZM33.3708 12.1814L31.9625 17.7104C31.8427 18.181 32.1255 18.6609 32.5927 18.7799L38.1326 20.1909L33.3708 12.1814Z" fill="#083A5E"></path><path d="M38.2563 20.5654L41.63 23.6231L33.7268 32.3432L30.3531 29.2856L38.2563 20.5654Z" fill="#5AE4A7"></path><path d="M33.6367 32.6285C33.5897 32.6165 33.5461 32.5933 33.5093 32.5601L30.1376 29.5012C30.015 29.39 30.0059 29.2005 30.1174 29.078L38.0224 20.3637C38.0754 20.3051 38.1502 20.2698 38.2296 20.2659C38.308 20.2617 38.386 20.2894 38.4454 20.3432L41.8171 23.402C41.9397 23.5132 41.9488 23.7027 41.8373 23.8252L33.9323 32.5395C33.8793 32.5982 33.8045 32.6335 33.725 32.6374C33.6951 32.6388 33.6656 32.6358 33.6367 32.6285ZM30.762 29.2588L33.6898 31.9151L41.1926 23.6444L38.2648 20.9882L30.762 29.2588Z" fill="#083A5E"></path><path d="M33.7106 32.3374L30.1313 33.4477C29.8149 33.5463 29.5161 33.2753 29.5836 32.9508L30.3369 29.2769L33.7106 32.3374Z" fill="#DDDDDD"></path><path d="M29.8193 33.746C29.7071 33.7174 29.6017 33.6616 29.512 33.5801C29.3198 33.4056 29.2364 33.1477 29.2899 32.8899L30.0437 29.217C30.0651 29.1117 30.1413 29.0258 30.244 28.9925C30.346 28.9593 30.4591 28.9845 30.5383 29.0553L33.9119 32.1159C33.9914 32.188 34.0263 32.2974 34.0031 32.4026C33.98 32.5075 33.9018 32.592 33.7994 32.6239L30.2196 33.7341C30.0858 33.7758 29.948 33.7787 29.8193 33.746ZM30.5249 29.8522L29.8766 33.0113C29.8632 33.0782 29.8947 33.1182 29.9148 33.1366C29.935 33.1542 29.9783 33.1812 30.0411 33.1619L33.1207 32.2072L30.5249 29.8522Z" fill="#083A5E"></path><path d="M29.8379 31.709L29.5832 32.9512C29.5157 33.2757 29.8145 33.5467 30.1309 33.4481L31.3411 33.0727L29.8379 31.709Z" fill="#083A5E"></path><path d="M43.0915 21.9974L41.6158 23.6241L38.2421 20.5635L39.7178 18.9369C40.1168 18.497 40.7937 18.468 41.2335 18.8671L43.0137 20.4821C43.4536 20.8811 43.4905 21.5575 43.0915 21.9974Z" fill="#283E42"></path><path d="M41.5416 23.9141C41.4946 23.9021 41.451 23.8789 41.4142 23.8457L38.0406 20.7849C37.918 20.6737 37.9089 20.4842 38.0204 20.3616L39.496 18.7352C40.0031 18.176 40.8726 18.1352 41.4347 18.6448L43.215 20.2599C43.4866 20.5065 43.6472 20.8433 43.6665 21.2083C43.6855 21.5748 43.5603 21.9263 43.3129 22.1984L41.8372 23.8251C41.7841 23.8841 41.7094 23.9191 41.6299 23.923C41.6 23.9244 41.5706 23.9214 41.5416 23.9141ZM38.665 20.5424L41.5947 23.2007L42.8697 21.7957C43.0082 21.6429 43.0791 21.4454 43.068 21.2397C43.0571 21.0338 42.9667 20.8435 42.8122 20.7036L41.0319 19.0886C40.717 18.8007 40.2247 18.823 39.9393 19.1378L38.665 20.5424Z" fill="#083A5E"></path><path d="M31.9511 31.0993C31.9052 31.0876 31.8615 31.065 31.8236 31.0309C31.701 30.9197 31.6919 30.7302 31.8034 30.6076L39.709 21.8935C39.8204 21.7713 40.0088 21.7619 40.1321 21.873C40.2547 21.9842 40.2638 22.1737 40.1522 22.2962L32.2467 31.0103C32.1695 31.0951 32.0549 31.1257 31.9511 31.0993Z" fill="#083A5E"></path><path d="M60.662 30.196C59.4953 30.196 58.5667 29.86 57.876 29.188C57.1853 28.5067 56.84 27.5173 56.84 26.22V23.98C56.84 22.6827 57.1853 21.698 57.876 21.026C58.5667 20.3447 59.4953 20.004 60.662 20.004C61.8193 20.004 62.706 20.326 63.322 20.97C63.9473 21.614 64.26 22.496 64.26 23.616V23.686H63.098V23.574C63.098 22.8367 62.8973 22.2347 62.496 21.768C62.104 21.292 61.4927 21.054 60.662 21.054C59.8313 21.054 59.1827 21.3107 58.716 21.824C58.2493 22.328 58.016 23.0373 58.016 23.952V26.248C58.016 27.1627 58.2493 27.8767 58.716 28.39C59.1827 28.894 59.8313 29.146 60.662 29.146C61.4927 29.146 62.104 28.9127 62.496 28.446C62.8973 27.97 63.098 27.3633 63.098 26.626V26.402H64.26V26.584C64.26 27.704 63.9473 28.586 63.322 29.23C62.706 29.874 61.8193 30.196 60.662 30.196ZM69.3084 30.196C68.6178 30.196 68.0064 30.0513 67.4744 29.762C66.9518 29.4727 66.5411 29.0667 66.2424 28.544C65.9531 28.012 65.8084 27.3867 65.8084 26.668V26.486C65.8084 25.7767 65.9531 25.156 66.2424 24.624C66.5411 24.092 66.9518 23.6813 67.4744 23.392C68.0064 23.1027 68.6178 22.958 69.3084 22.958C69.9991 22.958 70.6058 23.1027 71.1284 23.392C71.6604 23.6813 72.0711 24.092 72.3604 24.624C72.6591 25.156 72.8084 25.7767 72.8084 26.486V26.668C72.8084 27.3867 72.6591 28.012 72.3604 28.544C72.0711 29.0667 71.6604 29.4727 71.1284 29.762C70.6058 30.0513 69.9991 30.196 69.3084 30.196ZM69.3084 29.202C70.0364 29.202 70.6151 28.9733 71.0444 28.516C71.4831 28.0493 71.7024 27.424 71.7024 26.64V26.514C71.7024 25.73 71.4831 25.1093 71.0444 24.652C70.6151 24.1853 70.0364 23.952 69.3084 23.952C68.5898 23.952 68.0111 24.1853 67.5724 24.652C67.1338 25.1093 66.9144 25.73 66.9144 26.514V26.64C66.9144 27.424 67.1338 28.0493 67.5724 28.516C68.0111 28.9733 68.5898 29.202 69.3084 29.202ZM74.7987 30V23.154H75.8767V24.316H76.0727C76.2221 23.9893 76.4741 23.6953 76.8287 23.434C77.1927 23.1633 77.7247 23.028 78.4247 23.028C78.9381 23.028 79.3954 23.1353 79.7967 23.35C80.2074 23.5647 80.5341 23.882 80.7767 24.302C81.0194 24.722 81.1407 25.24 81.1407 25.856V30H80.0347V25.94C80.0347 25.2587 79.8621 24.764 79.5167 24.456C79.1807 24.148 78.7234 23.994 78.1447 23.994C77.4821 23.994 76.9407 24.2087 76.5207 24.638C76.1101 25.0673 75.9047 25.7067 75.9047 26.556V30H74.7987ZM85.7133 30C85.3213 30 85.0179 29.8927 84.8033 29.678C84.5979 29.4633 84.4953 29.1693 84.4953 28.796V24.12H82.4373V23.154H84.4953V20.718H85.6013V23.154H87.8413V24.12H85.6013V28.628C85.6013 28.908 85.7366 29.048 86.0073 29.048H87.5333V30H85.7133ZM92.5226 30.196C91.8319 30.196 91.2253 30.0513 90.7026 29.762C90.1799 29.4633 89.7739 29.048 89.4846 28.516C89.1953 27.984 89.0506 27.368 89.0506 26.668V26.5C89.0506 25.7907 89.1953 25.17 89.4846 24.638C89.7739 24.106 90.1753 23.6953 90.6886 23.406C91.2019 23.1073 91.7899 22.958 92.4526 22.958C93.0966 22.958 93.6659 23.098 94.1606 23.378C94.6553 23.6487 95.0426 24.0407 95.3226 24.554C95.6026 25.0673 95.7426 25.6693 95.7426 26.36V26.864H90.1566C90.1846 27.6013 90.4226 28.18 90.8706 28.6C91.3186 29.0107 91.8786 29.216 92.5506 29.216C93.1386 29.216 93.5913 29.0807 93.9086 28.81C94.2259 28.5393 94.4686 28.2173 94.6366 27.844L95.5886 28.306C95.4486 28.5953 95.2526 28.8847 95.0006 29.174C94.7579 29.4633 94.4359 29.706 94.0346 29.902C93.6426 30.098 93.1386 30.196 92.5226 30.196ZM90.1706 25.954H94.6226C94.5853 25.3193 94.3659 24.8247 93.9646 24.47C93.5726 24.1153 93.0686 23.938 92.4526 23.938C91.8273 23.938 91.3139 24.1153 90.9126 24.47C90.5113 24.8247 90.2639 25.3193 90.1706 25.954ZM97.6718 30V23.154H98.7498V24.316H98.9458C99.0951 23.9893 99.3471 23.6953 99.7018 23.434C100.066 23.1633 100.598 23.028 101.298 23.028C101.811 23.028 102.268 23.1353 102.67 23.35C103.08 23.5647 103.407 23.882 103.65 24.302C103.892 24.722 104.014 25.24 104.014 25.856V30H102.908V25.94C102.908 25.2587 102.735 24.764 102.39 24.456C102.054 24.148 101.596 23.994 101.018 23.994C100.355 23.994 99.8138 24.2087 99.3938 24.638C98.9831 25.0673 98.7778 25.7067 98.7778 26.556V30H97.6718ZM108.586 30C108.194 30 107.891 29.8927 107.676 29.678C107.471 29.4633 107.368 29.1693 107.368 28.796V24.12H105.31V23.154H107.368V20.718H108.474V23.154H110.714V24.12H108.474V28.628C108.474 28.908 108.61 29.048 108.88 29.048H110.406V30H108.586ZM116.958 30L115.362 20.2H116.538L117.924 29.244H118.12L119.926 20.2H122.026L123.818 29.244H124.014L125.4 20.2H126.576L124.98 30H122.88L121.074 20.9H120.878L119.072 30H116.958ZM128.215 30V23.154H129.293V23.994H129.489C129.61 23.6953 129.797 23.476 130.049 23.336C130.301 23.196 130.632 23.126 131.043 23.126H131.855V24.134H130.973C130.478 24.134 130.077 24.274 129.769 24.554C129.47 24.8247 129.321 25.2493 129.321 25.828V30H128.215ZM133.492 30V23.154H134.598V30H133.492ZM134.052 22.09C133.809 22.09 133.604 22.0107 133.436 21.852C133.277 21.6933 133.198 21.4927 133.198 21.25C133.198 20.998 133.277 20.7927 133.436 20.634C133.604 20.4753 133.809 20.396 134.052 20.396C134.295 20.396 134.495 20.4753 134.654 20.634C134.813 20.7927 134.892 20.998 134.892 21.25C134.892 21.4927 134.813 21.6933 134.654 21.852C134.495 22.0107 134.295 22.09 134.052 22.09ZM139.444 30C139.052 30 138.748 29.8927 138.534 29.678C138.328 29.4633 138.226 29.1693 138.226 28.796V24.12H136.168V23.154H138.226V20.718H139.332V23.154H141.572V24.12H139.332V28.628C139.332 28.908 139.467 29.048 139.738 29.048H141.264V30H139.444ZM143.363 30V23.154H144.469V30H143.363ZM143.923 22.09C143.681 22.09 143.475 22.0107 143.307 21.852C143.149 21.6933 143.069 21.4927 143.069 21.25C143.069 20.998 143.149 20.7927 143.307 20.634C143.475 20.4753 143.681 20.396 143.923 20.396C144.166 20.396 144.367 20.4753 144.525 20.634C144.684 20.7927 144.763 20.998 144.763 21.25C144.763 21.4927 144.684 21.6933 144.525 21.852C144.367 22.0107 144.166 22.09 143.923 22.09ZM146.795 30V23.154H147.873V24.316H148.069C148.218 23.9893 148.47 23.6953 148.825 23.434C149.189 23.1633 149.721 23.028 150.421 23.028C150.934 23.028 151.391 23.1353 151.793 23.35C152.203 23.5647 152.53 23.882 152.773 24.302C153.015 24.722 153.137 25.24 153.137 25.856V30H152.031V25.94C152.031 25.2587 151.858 24.764 151.513 24.456C151.177 24.148 150.719 23.994 150.141 23.994C149.478 23.994 148.937 24.2087 148.517 24.638C148.106 25.0673 147.901 25.7067 147.901 26.556V30H146.795ZM155.045 26.612V26.416C155.045 25.6973 155.189 25.0813 155.479 24.568C155.768 24.0547 156.16 23.658 156.655 23.378C157.149 23.098 157.691 22.958 158.279 22.958C158.997 22.958 159.548 23.098 159.931 23.378C160.323 23.6487 160.612 23.952 160.799 24.288H160.995V23.154H162.045V31.596C162.045 31.9693 161.942 32.2633 161.737 32.478C161.531 32.6927 161.233 32.8 160.841 32.8H156.193V31.82H160.547C160.827 31.82 160.967 31.68 160.967 31.4V28.796H160.771C160.659 29.0013 160.5 29.202 160.295 29.398C160.089 29.594 159.823 29.7573 159.497 29.888C159.17 30.0093 158.764 30.07 158.279 30.07C157.691 30.07 157.149 29.93 156.655 29.65C156.16 29.37 155.768 28.9733 155.479 28.46C155.189 27.9373 155.045 27.3213 155.045 26.612ZM158.573 29.09C159.282 29.09 159.856 28.866 160.295 28.418C160.743 27.97 160.967 27.354 160.967 26.57V26.458C160.967 25.6647 160.743 25.0487 160.295 24.61C159.856 24.162 159.282 23.938 158.573 23.938C157.873 23.938 157.294 24.162 156.837 24.61C156.389 25.0487 156.165 25.6647 156.165 26.458V26.57C156.165 27.354 156.389 27.97 156.837 28.418C157.294 28.866 157.873 29.09 158.573 29.09Z" fill="#083A5E"></path></svg>