<svg xmlns="http://www.w3.org/2000/svg" width="161" height="50" viewBox="0 0 161 50" fill="none"><rect width="161" height="50" rx="6" fill="#CBF3E7"></rect><path d="M61.662 30.196C60.4953 30.196 59.5667 29.86 58.876 29.188C58.1853 28.5067 57.84 27.5173 57.84 26.22V23.98C57.84 22.6827 58.1853 21.698 58.876 21.026C59.5667 20.3447 60.4953 20.004 61.662 20.004C62.8193 20.004 63.706 20.326 64.322 20.97C64.9473 21.614 65.26 22.496 65.26 23.616V23.686H64.098V23.574C64.098 22.8367 63.8973 22.2347 63.496 21.768C63.104 21.292 62.4927 21.054 61.662 21.054C60.8313 21.054 60.1827 21.3107 59.716 21.824C59.2493 22.328 59.016 23.0373 59.016 23.952V26.248C59.016 27.1627 59.2493 27.8767 59.716 28.39C60.1827 28.894 60.8313 29.146 61.662 29.146C62.4927 29.146 63.104 28.9127 63.496 28.446C63.8973 27.97 64.098 27.3633 64.098 26.626V26.402H65.26V26.584C65.26 27.704 64.9473 28.586 64.322 29.23C63.706 29.874 62.8193 30.196 61.662 30.196ZM70.3084 30.196C69.6178 30.196 69.0064 30.0513 68.4744 29.762C67.9518 29.4727 67.5411 29.0667 67.2424 28.544C66.9531 28.012 66.8084 27.3867 66.8084 26.668V26.486C66.8084 25.7767 66.9531 25.156 67.2424 24.624C67.5411 24.092 67.9518 23.6813 68.4744 23.392C69.0064 23.1027 69.6178 22.958 70.3084 22.958C70.9991 22.958 71.6058 23.1027 72.1284 23.392C72.6604 23.6813 73.0711 24.092 73.3604 24.624C73.6591 25.156 73.8084 25.7767 73.8084 26.486V26.668C73.8084 27.3867 73.6591 28.012 73.3604 28.544C73.0711 29.0667 72.6604 29.4727 72.1284 29.762C71.6058 30.0513 70.9991 30.196 70.3084 30.196ZM70.3084 29.202C71.0364 29.202 71.6151 28.9733 72.0444 28.516C72.4831 28.0493 72.7024 27.424 72.7024 26.64V26.514C72.7024 25.73 72.4831 25.1093 72.0444 24.652C71.6151 24.1853 71.0364 23.952 70.3084 23.952C69.5898 23.952 69.0111 24.1853 68.5724 24.652C68.1338 25.1093 67.9144 25.73 67.9144 26.514V26.64C67.9144 27.424 68.1338 28.0493 68.5724 28.516C69.0111 28.9733 69.5898 29.202 70.3084 29.202ZM75.7987 32.8V23.154H76.8767V24.288H77.0727C77.2501 23.9427 77.5347 23.6347 77.9267 23.364C78.3281 23.0933 78.8834 22.958 79.5927 22.958C80.1807 22.958 80.7174 23.1027 81.2027 23.392C81.6974 23.672 82.0894 24.0733 82.3787 24.596C82.6774 25.1187 82.8267 25.7487 82.8267 26.486V26.668C82.8267 27.396 82.6821 28.026 82.3927 28.558C82.1034 29.09 81.7114 29.496 81.2167 29.776C80.7314 30.056 80.1901 30.196 79.5927 30.196C79.1167 30.196 78.7107 30.1307 78.3747 30C78.0481 29.8787 77.7821 29.72 77.5767 29.524C77.3714 29.328 77.2127 29.1273 77.1007 28.922H76.9047V32.8H75.7987ZM79.2987 29.216C80.0081 29.216 80.5821 28.992 81.0207 28.544C81.4687 28.0867 81.6927 27.452 81.6927 26.64V26.514C81.6927 25.702 81.4687 25.072 81.0207 24.624C80.5821 24.1667 80.0081 23.938 79.2987 23.938C78.5987 23.938 78.0201 24.1667 77.5627 24.624C77.1147 25.072 76.8907 25.702 76.8907 26.514V26.64C76.8907 27.452 77.1147 28.0867 77.5627 28.544C78.0201 28.992 78.5987 29.216 79.2987 29.216ZM85.6345 32.8V31.82H89.5545C89.8252 31.82 89.9605 31.68 89.9605 31.4V28.908H89.7645C89.6712 29.104 89.5265 29.3 89.3305 29.496C89.1438 29.6827 88.8965 29.8367 88.5885 29.958C88.2805 30.07 87.8932 30.126 87.4265 30.126C86.9318 30.126 86.4745 30.0187 86.0545 29.804C85.6438 29.5893 85.3172 29.272 85.0745 28.852C84.8412 28.432 84.7245 27.9187 84.7245 27.312V23.154H85.8305V27.228C85.8305 27.9 85.9985 28.39 86.3345 28.698C86.6798 29.006 87.1418 29.16 87.7205 29.16C88.3738 29.16 88.9105 28.9453 89.3305 28.516C89.7505 28.0867 89.9605 27.4473 89.9605 26.598V23.154H91.0665V31.596C91.0665 31.9693 90.9592 32.2633 90.7445 32.478C90.5392 32.6927 90.2358 32.8 89.8345 32.8H85.6345ZM97.8328 30L96.2368 20.2H97.4128L98.7988 29.244H98.9948L100.801 20.2H102.901L104.693 29.244H104.889L106.275 20.2H107.451L105.855 30H103.755L101.949 20.9H101.753L99.9468 30H97.8328ZM109.09 30V23.154H110.168V23.994H110.364C110.485 23.6953 110.672 23.476 110.924 23.336C111.176 23.196 111.507 23.126 111.918 23.126H112.73V24.134H111.848C111.353 24.134 110.952 24.274 110.644 24.554C110.345 24.8247 110.196 25.2493 110.196 25.828V30H109.09ZM114.367 30V23.154H115.473V30H114.367ZM114.927 22.09C114.684 22.09 114.479 22.0107 114.311 21.852C114.152 21.6933 114.073 21.4927 114.073 21.25C114.073 20.998 114.152 20.7927 114.311 20.634C114.479 20.4753 114.684 20.396 114.927 20.396C115.17 20.396 115.37 20.4753 115.529 20.634C115.688 20.7927 115.767 20.998 115.767 21.25C115.767 21.4927 115.688 21.6933 115.529 21.852C115.37 22.0107 115.17 22.09 114.927 22.09ZM120.319 30C119.927 30 119.623 29.8927 119.409 29.678C119.203 29.4633 119.101 29.1693 119.101 28.796V24.12H117.043V23.154H119.101V20.718H120.207V23.154H122.447V24.12H120.207V28.628C120.207 28.908 120.342 29.048 120.613 29.048H122.139V30H120.319ZM124.238 30V23.154H125.344V30H124.238ZM124.798 22.09C124.556 22.09 124.35 22.0107 124.182 21.852C124.024 21.6933 123.944 21.4927 123.944 21.25C123.944 20.998 124.024 20.7927 124.182 20.634C124.35 20.4753 124.556 20.396 124.798 20.396C125.041 20.396 125.242 20.4753 125.4 20.634C125.559 20.7927 125.638 20.998 125.638 21.25C125.638 21.4927 125.559 21.6933 125.4 21.852C125.242 22.0107 125.041 22.09 124.798 22.09ZM127.67 30V23.154H128.748V24.316H128.944C129.093 23.9893 129.345 23.6953 129.7 23.434C130.064 23.1633 130.596 23.028 131.296 23.028C131.809 23.028 132.266 23.1353 132.668 23.35C133.078 23.5647 133.405 23.882 133.648 24.302C133.89 24.722 134.012 25.24 134.012 25.856V30H132.906V25.94C132.906 25.2587 132.733 24.764 132.388 24.456C132.052 24.148 131.594 23.994 131.016 23.994C130.353 23.994 129.812 24.2087 129.392 24.638C128.981 25.0673 128.776 25.7067 128.776 26.556V30H127.67ZM135.92 26.612V26.416C135.92 25.6973 136.064 25.0813 136.354 24.568C136.643 24.0547 137.035 23.658 137.53 23.378C138.024 23.098 138.566 22.958 139.154 22.958C139.872 22.958 140.423 23.098 140.806 23.378C141.198 23.6487 141.487 23.952 141.674 24.288H141.87V23.154H142.92V31.596C142.92 31.9693 142.817 32.2633 142.612 32.478C142.406 32.6927 142.108 32.8 141.716 32.8H137.068V31.82H141.422C141.702 31.82 141.842 31.68 141.842 31.4V28.796H141.646C141.534 29.0013 141.375 29.202 141.17 29.398C140.964 29.594 140.698 29.7573 140.372 29.888C140.045 30.0093 139.639 30.07 139.154 30.07C138.566 30.07 138.024 29.93 137.53 29.65C137.035 29.37 136.643 28.9733 136.354 28.46C136.064 27.9373 135.92 27.3213 135.92 26.612ZM139.448 29.09C140.157 29.09 140.731 28.866 141.17 28.418C141.618 27.97 141.842 27.354 141.842 26.57V26.458C141.842 25.6647 141.618 25.0487 141.17 24.61C140.731 24.162 140.157 23.938 139.448 23.938C138.748 23.938 138.169 24.162 137.712 24.61C137.264 25.0487 137.04 25.6647 137.04 26.458V26.57C137.04 27.354 137.264 27.97 137.712 28.418C138.169 28.866 138.748 29.09 139.448 29.09Z" fill="#083A5E"></path><path d="M19.8994 40.983C20.0441 41.4582 20.3374 41.8744 20.7362 42.1706C21.1349 42.4667 21.6181 42.6272 22.1148 42.6284C22.3399 42.6286 22.5638 42.5966 22.7798 42.5334L37.8354 38L40.5448 37.6466C40.8461 37.6077 41.1368 37.5098 41.4002 37.3585C41.6635 37.2071 41.8945 37.0053 42.0798 36.7646C42.2651 36.5239 42.4011 36.249 42.4801 35.9556C42.559 35.6623 42.5793 35.3562 42.5398 35.055L41.111 24.149L45.6102 17.2482L46.7198 15.5724L47.2518 14.7402C47.6252 14.1688 47.7563 13.4724 47.6163 12.8043C47.4763 12.1362 47.0766 11.5511 46.5051 11.1777C45.9337 10.8043 45.2373 10.6732 44.5692 10.8133C43.9011 10.9533 43.316 11.353 42.9426 11.9244L42.3954 12.7642L41.301 14.4362L40.0736 16.3134L39.1578 9.34044C39.1185 9.0395 39.0202 8.74926 38.8687 8.4863C38.7171 8.22335 38.5152 7.99283 38.2746 7.80791C38.0339 7.623 37.7592 7.48732 37.466 7.40862C37.1729 7.32992 36.8672 7.30974 36.5662 7.34924L20.5758 9.45064C19.9941 9.52576 19.463 9.82003 19.0908 10.2734C18.7187 10.7268 18.5336 11.305 18.5732 11.8902L13.9752 13.2734C13.3888 13.45 12.8965 13.8522 12.6065 14.3916C12.3165 14.931 12.2525 15.5635 12.4286 16.15L19.8994 40.983ZM43.0376 13.8624L44.2384 14.6452L45.4354 15.428L44.9642 16.15L42.5664 14.5844L43.0376 13.8624ZM43.8964 12.5438C44.1045 12.2254 44.4306 12.0026 44.803 11.9246C45.1754 11.8465 45.5635 11.9196 45.8819 12.1277C46.2004 12.3359 46.4232 12.662 46.5012 13.0343C46.5792 13.4067 46.5061 13.7948 46.298 14.1132L46.0624 14.4742L43.6798 12.9048L43.8964 12.5438ZM41.9432 15.5382L43.144 16.321L44.341 17.1038L37.026 28.3062L35.8252 27.5234L34.6282 26.7406L41.9432 15.5382ZM33.2032 30.856L33.4312 30.1264C33.8134 30.2253 34.1525 30.4469 34.3964 30.7572L33.8188 31.2588C33.7565 31.3155 33.6772 31.3498 33.5933 31.3564C33.5094 31.3631 33.4256 31.3417 33.3552 31.2956C33.2848 31.2495 33.2316 31.1813 33.2041 31.1018C33.1766 31.0222 33.1763 30.9358 33.2032 30.856ZM35.2552 30.0086C34.8726 29.5367 34.3516 29.1965 33.7656 29.0358L34.1456 27.7932L36.2318 29.1574L35.2552 30.0086ZM19.945 11.0276C20.0391 10.9054 20.1563 10.8029 20.2899 10.726C20.4236 10.649 20.5711 10.5992 20.724 10.5792L36.7144 8.48164C36.7663 8.47787 36.8184 8.47787 36.8702 8.48164C37.1505 8.48734 37.4196 8.59314 37.6286 8.77993C37.8377 8.96671 37.9731 9.22215 38.0102 9.50004L39.1198 17.7802L36.209 22.23L30.4862 22.99C30.3351 22.9996 30.1939 23.0689 30.0938 23.1825C29.9936 23.2962 29.9428 23.445 29.9523 23.5961C29.9619 23.7473 30.0311 23.8885 30.1448 23.9886C30.2585 24.0887 30.4073 24.1396 30.5584 24.13H30.6344L35.3882 23.4802L33.3628 26.5848C33.3622 26.5975 33.3622 26.6102 33.3628 26.6228C33.3483 26.6467 33.3368 26.6722 33.3286 26.6988L32.9752 27.8388L24.8736 28.9294C24.7988 28.9344 24.7256 28.9541 24.6584 28.9874C24.5912 29.0206 24.5311 29.0668 24.4817 29.1233C24.4323 29.1797 24.3945 29.2454 24.3705 29.3164C24.3464 29.3875 24.3366 29.4626 24.3416 29.5374C24.3466 29.6123 24.3663 29.6854 24.3996 29.7527C24.4328 29.8199 24.479 29.88 24.5355 29.9294C24.5919 29.9788 24.6575 30.0166 24.7286 30.0406C24.7997 30.0646 24.8748 30.0744 24.9496 30.0694H25.0218L32.5724 29.0814L32.124 30.533C32.0264 30.8483 32.034 31.1868 32.1458 31.4974C32.2575 31.8079 32.4673 32.0737 32.7434 32.2544C32.9905 32.4173 33.2797 32.5044 33.5756 32.5052C33.9425 32.5029 34.2961 32.3679 34.5712 32.1252L37.5656 29.5336L37.596 29.4994C37.6192 29.478 37.6396 29.4537 37.6568 29.4272L40.1344 25.6272L41.3998 35.2032C41.4203 35.3558 41.4103 35.5109 41.3705 35.6596C41.3307 35.8083 41.2619 35.9477 41.168 36.0696C41.0772 36.1904 40.9632 36.292 40.8327 36.3683C40.7022 36.4446 40.5579 36.4942 40.408 36.5142L24.4024 38.6156C24.25 38.6354 24.0951 38.6249 23.9467 38.5848C23.7983 38.5446 23.6593 38.4757 23.5375 38.3818C23.4158 38.2879 23.3137 38.171 23.2372 38.0377C23.1607 37.9044 23.1111 37.7573 23.0914 37.6048L19.7132 11.894C19.6728 11.5859 19.7562 11.2744 19.945 11.0276ZM14.3058 14.3602L18.7138 13.034L21.959 37.753C22.0324 38.3069 22.3037 38.8155 22.7227 39.1849C23.1418 39.5544 23.6804 39.7598 24.239 39.7632C24.3408 39.7632 24.4424 39.7556 24.543 39.7404L30.8054 38.9196L22.4454 41.4352C22.1496 41.524 21.8307 41.4918 21.5586 41.3458C21.2865 41.1997 21.0834 40.9518 20.9938 40.6562L13.5192 15.8232C13.4748 15.6755 13.4599 15.5205 13.4753 15.367C13.4908 15.2136 13.5364 15.0646 13.6094 14.9288C13.6825 14.7929 13.7816 14.6728 13.9011 14.5752C14.0206 14.4777 14.1581 14.4046 14.3058 14.3602ZM25.797 13.7522C25.7776 13.6026 25.8183 13.4514 25.9102 13.3317C26.0021 13.2121 26.1377 13.1337 26.2872 13.1138L35.4072 11.913C35.4821 11.9033 35.5581 11.9084 35.631 11.9281C35.7039 11.9477 35.7722 11.9815 35.832 12.0276C35.8918 12.0736 35.942 12.131 35.9796 12.1965C36.0172 12.2619 36.0416 12.3341 36.0513 12.4089C36.0611 12.4838 36.056 12.5598 36.0363 12.6327C36.0166 12.7056 35.9828 12.7739 35.9368 12.8337C35.8907 12.8935 35.8334 12.9437 35.7679 12.9813C35.7025 13.0189 35.6303 13.0433 35.5554 13.053L26.4354 14.25H26.3632C26.2247 14.2494 26.091 14.1987 25.9869 14.1072C25.8828 14.0157 25.8154 13.8896 25.797 13.7522ZM23.0382 19.323C23.0287 19.2481 23.0341 19.172 23.0543 19.0992C23.0744 19.0264 23.1088 18.9583 23.1555 18.8989C23.2021 18.8395 23.2602 18.79 23.3261 18.7532C23.3921 18.7164 23.4648 18.6931 23.5398 18.6846L36.0798 17.0202C36.231 17.0006 36.3838 17.0418 36.5046 17.1348C36.6254 17.2278 36.7043 17.365 36.7239 17.5161C36.7436 17.6673 36.7024 17.8201 36.6094 17.9409C36.5164 18.0617 36.3792 18.1406 36.228 18.1602L23.6766 19.817H23.6044C23.4664 19.8166 23.3332 19.7663 23.2292 19.6756C23.1252 19.5849 23.0574 19.4597 23.0382 19.323ZM27.298 23.9742C27.3087 24.0489 27.3045 24.125 27.2856 24.198C27.2667 24.271 27.2335 24.3395 27.1879 24.3996C27.1423 24.4597 27.0852 24.5102 27.02 24.548C26.9547 24.5859 26.8826 24.6104 26.8078 24.6202L24.3492 24.9432H24.277C24.1259 24.9533 23.9769 24.9029 23.8629 24.8032C23.7488 24.7034 23.6791 24.5624 23.669 24.4112C23.659 24.2601 23.7093 24.1111 23.8091 23.9971C23.9089 23.883 24.0499 23.8133 24.201 23.8032L26.6596 23.4802C26.734 23.4707 26.8095 23.4758 26.8819 23.4955C26.9543 23.5151 27.022 23.5489 27.0813 23.5948C27.1406 23.6407 27.1903 23.6978 27.2275 23.7629C27.2647 23.828 27.2886 23.8998 27.298 23.9742ZM25.0598 34.6902C25.0404 34.5406 25.0811 34.3894 25.173 34.2697C25.2649 34.1501 25.4005 34.0717 25.55 34.0518L29.9238 33.478C29.9987 33.4681 30.0748 33.4729 30.1477 33.4923C30.2207 33.5118 30.2892 33.5454 30.3491 33.5913C30.4091 33.6371 30.4595 33.6944 30.4974 33.7597C30.5352 33.825 30.5599 33.8972 30.5698 33.972C30.5798 34.0469 30.575 34.123 30.5555 34.196C30.5361 34.2689 30.5025 34.3374 30.4566 34.3974C30.4108 34.4573 30.3535 34.5077 30.2882 34.5456C30.2228 34.5834 30.1507 34.6081 30.0758 34.618L25.6944 35.1804H25.6222C25.4852 35.18 25.353 35.1302 25.2497 35.0401C25.1464 34.9501 25.079 34.8259 25.0598 34.6902Z" fill="#083A5E"></path></svg>