<svg xmlns="http://www.w3.org/2000/svg" width="38" height="38" viewBox="0 0 38 38" fill="none"><path d="M8.89943 34.983C9.04413 35.4582 9.3374 35.8744 9.73616 36.1706C10.1349 36.4667 10.6181 36.6272 11.1148 36.6284C11.3399 36.6286 11.5638 36.5966 11.7798 36.5334L26.8354 32L29.5448 31.6466C29.8461 31.6077 30.1368 31.5098 30.4001 31.3585C30.6635 31.2071 30.8945 31.0053 31.0798 30.7646C31.2651 30.5239 31.4011 30.249 31.4801 29.9556C31.559 29.6623 31.5793 29.3562 31.5398 29.055L30.111 18.149L34.6102 11.2482L35.7198 9.57244L36.2518 8.74024C36.6252 8.16881 36.7563 7.47244 36.6163 6.80434C36.4763 6.13625 36.0766 5.55114 35.5051 5.17774C34.9337 4.80434 34.2373 4.67324 33.5692 4.81327C32.9011 4.95331 32.316 5.35301 31.9426 5.92444L31.3954 6.76424L30.301 8.43624L29.0736 10.3134L28.1578 3.34044C28.1185 3.0395 28.0202 2.74926 27.8687 2.4863C27.7171 2.22335 27.5152 1.99283 27.2746 1.80791C27.0339 1.623 26.7592 1.48732 26.466 1.40862C26.1729 1.32992 25.8672 1.30974 25.5662 1.34924L9.57583 3.45064C8.99412 3.52576 8.46299 3.82003 8.09084 4.27339C7.71869 4.72675 7.53356 5.30504 7.57323 5.89024L2.97523 7.27344C2.38883 7.45004 1.89653 7.85223 1.60653 8.39162C1.31652 8.93102 1.25254 9.56349 1.42863 10.15L8.89943 34.983ZM32.0376 7.86244L33.2384 8.64524L34.4354 9.42804L33.9642 10.15L31.5664 8.58444L32.0376 7.86244ZM32.8964 6.54384C33.1045 6.22537 33.4307 6.00262 33.803 5.92458C34.1754 5.84655 34.5635 5.91963 34.8819 6.12774C35.2004 6.33586 35.4232 6.66196 35.5012 7.03431C35.5792 7.40667 35.5061 7.79477 35.298 8.11324L35.0624 8.47424L32.6798 6.90484L32.8964 6.54384ZM30.9432 9.53824L32.144 10.321L33.341 11.1038L26.026 22.3062L24.8252 21.5234L23.6282 20.7406L30.9432 9.53824ZM22.2032 24.856L22.4312 24.1264C22.8134 24.2253 23.1525 24.4469 23.3964 24.7572L22.8188 25.2588C22.7565 25.3155 22.6772 25.3498 22.5933 25.3564C22.5094 25.3631 22.4256 25.3417 22.3552 25.2956C22.2848 25.2495 22.2316 25.1813 22.2041 25.1018C22.1766 25.0222 22.1763 24.9358 22.2032 24.856ZM24.2552 24.0086C23.8726 23.5367 23.3516 23.1965 22.7656 23.0358L23.1456 21.7932L25.2318 23.1574L24.2552 24.0086ZM8.94503 5.02764C9.03907 4.9054 9.15627 4.80289 9.28993 4.72595C9.42359 4.64901 9.5711 4.59916 9.72403 4.57924L25.7144 2.48164C25.7663 2.47787 25.8184 2.47787 25.8702 2.48164C26.1505 2.48734 26.4196 2.59314 26.6286 2.77993C26.8377 2.96671 26.9731 3.22215 27.0102 3.50004L28.1198 11.7802L25.209 16.23L19.4862 16.99C19.3351 16.9996 19.1939 17.0689 19.0938 17.1825C18.9936 17.2962 18.9428 17.445 18.9523 17.5961C18.9619 17.7473 19.0311 17.8885 19.1448 17.9886C19.2585 18.0887 19.4073 18.1396 19.5584 18.13H19.6344L24.3882 17.4802L22.3628 20.5848C22.3622 20.5975 22.3622 20.6102 22.3628 20.6228C22.3483 20.6467 22.3368 20.6722 22.3286 20.6988L21.9752 21.8388L13.8736 22.9294C13.7988 22.9344 13.7256 22.9541 13.6584 22.9874C13.5912 23.0206 13.5311 23.0668 13.4817 23.1233C13.4323 23.1797 13.3945 23.2454 13.3705 23.3164C13.3464 23.3875 13.3366 23.4626 13.3416 23.5374C13.3466 23.6123 13.3663 23.6854 13.3996 23.7527C13.4328 23.8199 13.479 23.88 13.5355 23.9294C13.5919 23.9788 13.6575 24.0166 13.7286 24.0406C13.7997 24.0646 13.8748 24.0744 13.9496 24.0694H14.0218L21.5724 23.0814L21.124 24.533C21.0264 24.8483 21.034 25.1868 21.1458 25.4974C21.2575 25.8079 21.4673 26.0737 21.7434 26.2544C21.9905 26.4173 22.2797 26.5044 22.5756 26.5052C22.9425 26.5029 23.2961 26.3679 23.5712 26.1252L26.5656 23.5336L26.596 23.4994C26.6192 23.478 26.6396 23.4537 26.6568 23.4272L29.1344 19.6272L30.3998 29.2032C30.4203 29.3558 30.4103 29.5109 30.3705 29.6596C30.3307 29.8083 30.2619 29.9477 30.168 30.0696C30.0772 30.1904 29.9632 30.292 29.8327 30.3683C29.7022 30.4446 29.5579 30.4942 29.408 30.5142L13.4024 32.6156C13.25 32.6354 13.0951 32.6249 12.9467 32.5848C12.7983 32.5446 12.6593 32.4757 12.5375 32.3818C12.4158 32.2879 12.3137 32.171 12.2372 32.0377C12.1607 31.9044 12.1111 31.7573 12.0914 31.6048L8.71323 5.89404C8.67282 5.58595 8.75617 5.27439 8.94503 5.02764ZM3.30583 8.36024L7.71383 7.03404L10.959 31.753C11.0324 32.3069 11.3037 32.8155 11.7227 33.1849C12.1418 33.5544 12.6804 33.7598 13.239 33.7632C13.3408 33.7632 13.4424 33.7556 13.543 33.7404L19.8054 32.9196L11.4454 35.4352C11.1496 35.524 10.8307 35.4918 10.5586 35.3458C10.2865 35.1997 10.0834 34.9518 9.99383 34.6562L2.51923 9.82324C2.47477 9.67553 2.45985 9.52051 2.47533 9.36703C2.4908 9.21355 2.53636 9.06463 2.60941 8.92876C2.68246 8.7929 2.78156 8.67276 2.90106 8.57521C3.02055 8.47766 3.1581 8.40461 3.30583 8.36024ZM14.797 7.75224C14.7776 7.60262 14.8183 7.4514 14.9102 7.33173C15.0021 7.21206 15.1377 7.13371 15.2872 7.11384L24.4072 5.91304C24.4821 5.90331 24.5581 5.90842 24.631 5.92807C24.7039 5.94773 24.7722 5.98155 24.832 6.02759C24.8918 6.07364 24.942 6.13102 24.9796 6.19645C25.0172 6.26188 25.0416 6.33409 25.0513 6.40894C25.0611 6.4838 25.056 6.55983 25.0363 6.63271C25.0166 6.70559 24.9828 6.77389 24.9368 6.8337C24.8907 6.89351 24.8334 6.94366 24.7679 6.9813C24.7025 7.01893 24.6303 7.04331 24.5554 7.05304L15.4354 8.25004H15.3632C15.2247 8.24943 15.091 8.19868 14.9869 8.10718C14.8828 8.01568 14.8154 7.8896 14.797 7.75224ZM12.0382 13.323C12.0287 13.2481 12.0341 13.172 12.0543 13.0992C12.0744 13.0264 12.1088 12.9583 12.1555 12.8989C12.2021 12.8395 12.2602 12.79 12.3261 12.7532C12.3921 12.7164 12.4648 12.6931 12.5398 12.6846L25.0798 11.0202C25.231 11.0006 25.3838 11.0418 25.5046 11.1348C25.6254 11.2278 25.7043 11.365 25.7239 11.5161C25.7436 11.6673 25.7024 11.8201 25.6094 11.9409C25.5164 12.0617 25.3792 12.1406 25.228 12.1602L12.6766 13.817H12.6044C12.4664 13.8166 12.3332 13.7663 12.2292 13.6756C12.1252 13.5849 12.0574 13.4597 12.0382 13.323ZM16.298 17.9742C16.3087 18.0489 16.3045 18.125 16.2856 18.198C16.2667 18.271 16.2335 18.3395 16.1879 18.3996C16.1423 18.4597 16.0852 18.5102 16.02 18.548C15.9547 18.5859 15.8826 18.6104 15.8078 18.6202L13.3492 18.9432H13.277C13.1259 18.9533 12.9769 18.9029 12.8629 18.8032C12.7488 18.7034 12.6791 18.5624 12.669 18.4112C12.659 18.2601 12.7093 18.1111 12.8091 17.9971C12.9089 17.883 13.0499 17.8133 13.201 17.8032L15.6596 17.4802C15.734 17.4707 15.8095 17.4758 15.8819 17.4955C15.9543 17.5151 16.022 17.5489 16.0813 17.5948C16.1406 17.6407 16.1903 17.6978 16.2275 17.7629C16.2647 17.828 16.2886 17.8998 16.298 17.9742ZM14.0598 28.6902C14.0404 28.5406 14.0811 28.3894 14.173 28.2697C14.2649 28.1501 14.4005 28.0717 14.55 28.0518L18.9238 27.478C18.9987 27.4681 19.0748 27.4729 19.1477 27.4923C19.2207 27.5118 19.2892 27.5454 19.3491 27.5913C19.4091 27.6371 19.4595 27.6944 19.4974 27.7597C19.5352 27.825 19.5599 27.8972 19.5698 27.972C19.5798 28.0469 19.575 28.123 19.5555 28.196C19.5361 28.2689 19.5025 28.3374 19.4566 28.3974C19.4108 28.4573 19.3535 28.5077 19.2882 28.5456C19.2228 28.5834 19.1507 28.6081 19.0758 28.618L14.6944 29.1804H14.6222C14.4852 29.18 14.353 29.1302 14.2497 29.0401C14.1464 28.9501 14.079 28.8259 14.0598 28.6902Z" fill="#083A5E"></path></svg>