<svg xmlns="http://www.w3.org/2000/svg" width="80" height="24" viewBox="0 0 80 24" fill="none"><g clip-path="url(#clip0_42_875)"><path d="M11.9977 0C5.37207 0 0 5.3737 0 12.0013C0 18.629 5.37207 24.0027 11.9977 24.0027C18.6234 24.0027 23.9954 18.629 23.9954 12.0013C23.9927 5.3737 18.6234 0 11.9977 0ZM17.4989 17.3078C17.2837 17.6603 16.8237 17.7733 16.4713 17.5553C13.6548 15.8332 10.1093 15.443 5.9316 16.3983C5.52809 16.4897 5.12727 16.2395 5.03581 15.8359C4.94435 15.4322 5.19453 15.0313 5.59804 14.9398C10.1685 13.8957 14.0879 14.3478 17.2514 16.2799C17.6038 16.4951 17.7141 16.9553 17.4989 17.3078ZM18.9677 14.041C18.696 14.4823 18.1203 14.6196 17.6818 14.3478C14.4591 12.3646 9.54168 11.7915 5.72716 12.9485C5.23219 13.0992 4.71031 12.8194 4.55967 12.3243C4.41172 11.8291 4.68879 11.3071 5.18377 11.1564C9.54168 9.83518 14.9568 10.4756 18.661 12.7521C19.0995 13.0266 19.2367 13.6024 18.9677 14.041ZM19.0941 10.6371C15.2258 8.34174 8.84764 8.12916 5.15686 9.25126C4.56505 9.43155 3.93826 9.09519 3.75803 8.5032C3.57779 7.9112 3.91405 7.28423 4.50587 7.10394C8.74273 5.81769 15.788 6.06525 20.2401 8.71039C20.7727 9.02792 20.9476 9.71679 20.6328 10.2496C20.3154 10.7797 19.6241 10.9546 19.0941 10.6371ZM32.6386 11.0784C30.5673 10.5833 30.1987 10.2361 30.1987 9.50959C30.1987 8.82072 30.847 8.35789 31.8101 8.35789C32.7435 8.35789 33.6716 8.71039 34.64 9.43424C34.6696 9.45577 34.7073 9.46384 34.7423 9.45846C34.7772 9.45308 34.8095 9.43424 34.831 9.40195L35.8425 7.97578C35.8828 7.91658 35.8721 7.83586 35.8156 7.79011C34.6589 6.86176 33.3596 6.41238 31.837 6.41238C29.6015 6.41238 28.0386 7.75513 28.0386 9.67642C28.0386 11.7376 29.3863 12.4669 31.7159 13.0293C33.6985 13.4867 34.0321 13.8688 34.0321 14.5523C34.0321 15.3111 33.3569 15.782 32.2674 15.782C31.0596 15.782 30.0723 15.3757 28.9694 14.4178C28.9425 14.3935 28.9048 14.3828 28.8698 14.3855C28.8322 14.3882 28.7999 14.4043 28.7757 14.4339L27.6405 15.7847C27.5921 15.8412 27.6001 15.9247 27.6539 15.9731C28.9371 17.1194 30.5162 17.7249 32.219 17.7249C34.6293 17.7249 36.1868 16.4063 36.1868 14.3693C36.1922 12.6472 35.1619 11.6946 32.6386 11.0811V11.0784ZM41.645 9.03599C40.6012 9.03599 39.7431 9.4477 39.0383 10.2899V9.34006C39.0383 9.26472 38.9764 9.20283 38.9038 9.20283H37.0503C36.975 9.20283 36.9158 9.26472 36.9158 9.34006V19.8883C36.9158 19.9637 36.9777 20.0256 37.0503 20.0256H38.9038C38.9791 20.0256 39.0383 19.9637 39.0383 19.8883V16.5597C39.7458 17.3535 40.6012 17.741 41.645 17.741C43.5872 17.741 45.551 16.2476 45.551 13.3898C45.5537 10.5294 43.5872 9.03599 41.645 9.03599ZM43.3935 13.3872C43.3935 14.8429 42.4977 15.8574 41.2146 15.8574C39.9475 15.8574 38.9899 14.7972 38.9899 13.3872C38.9899 11.9798 39.9475 10.9169 41.2146 10.9169C42.4762 10.9169 43.3935 11.9556 43.3935 13.3872ZM50.5868 9.03599C48.0877 9.03599 46.1293 10.9627 46.1293 13.4194C46.1293 15.852 48.0742 17.7572 50.5572 17.7572C53.067 17.7572 55.0308 15.8385 55.0308 13.3898C55.0281 10.9465 53.0778 9.03599 50.5868 9.03599ZM50.5868 15.8735C49.2579 15.8735 48.2545 14.8052 48.2545 13.3872C48.2545 11.9637 49.2229 10.9331 50.5545 10.9331C51.8915 10.9331 52.9029 12.0013 52.9029 13.4194C52.9029 14.8402 51.9291 15.8735 50.5868 15.8735ZM60.3679 9.20552H58.3261V7.11739C58.3261 7.04205 58.2669 6.98285 58.1916 6.98285H56.3381C56.2628 6.98285 56.2009 7.04474 56.2009 7.11739V9.20552H55.3078C55.2325 9.20552 55.1733 9.26741 55.1733 9.34275V10.9384C55.1733 11.0138 55.2325 11.0757 55.3078 11.0757H56.2009V15.2008C56.2009 16.8692 57.0295 17.7141 58.6677 17.7141C59.3322 17.7141 59.8863 17.5769 60.4055 17.2809C60.4486 17.2566 60.4728 17.2109 60.4728 17.1625V15.6448C60.4728 15.5991 60.4486 15.5533 60.4082 15.5291C60.3679 15.5049 60.3168 15.5022 60.2764 15.5237C59.9186 15.704 59.5743 15.7874 59.1869 15.7874C58.5924 15.7874 58.3261 15.5183 58.3261 14.9102V11.073H60.3679C60.4432 11.073 60.5024 11.0111 60.5024 10.9358V9.34006C60.5051 9.26741 60.4459 9.20552 60.3679 9.20552ZM67.4777 9.21359V8.95796C67.4777 8.20451 67.7656 7.86815 68.4139 7.86815C68.8012 7.86815 69.1106 7.94618 69.4576 8.06189C69.5007 8.07535 69.5464 8.06996 69.5787 8.04305C69.6136 8.01615 69.6352 7.97578 69.6352 7.93273V6.36932C69.6352 6.31012 69.5975 6.25631 69.5383 6.24016C69.1698 6.12984 68.7017 6.01951 67.9969 6.01951C66.2833 6.01951 65.3795 6.98554 65.3795 8.80996V9.20283H64.4891C64.4137 9.20283 64.3519 9.26472 64.3519 9.33737V10.9411C64.3519 11.0165 64.4137 11.0784 64.4891 11.0784H65.3795V17.4423C65.3795 17.5177 65.4386 17.5795 65.514 17.5795H67.3674C67.4428 17.5795 67.5046 17.5177 67.5046 17.4423V11.0703H69.237L71.8894 17.4316C71.5882 18.0989 71.2922 18.2334 70.8887 18.2334C70.5632 18.2334 70.2189 18.1366 69.8665 17.9428C69.8342 17.924 69.7939 17.9213 69.7589 17.9321C69.7239 17.9455 69.6943 17.9697 69.6782 18.0047L69.0487 19.3851C69.0191 19.4497 69.0433 19.5278 69.1079 19.56C69.7643 19.9152 70.3561 20.0686 71.0878 20.0686C72.457 20.0686 73.2156 19.4309 73.8828 17.7141L77.1001 9.39657C77.1162 9.35352 77.1109 9.30777 77.0867 9.2701C77.0624 9.23243 77.0194 9.2109 76.9764 9.2109H75.0449C74.9857 9.2109 74.9346 9.24857 74.9158 9.30239L72.9386 14.9532L70.7731 9.29701C70.7542 9.24319 70.7031 9.2109 70.6466 9.2109L67.4777 9.21359ZM63.3565 9.20552H61.5031C61.4278 9.20552 61.3659 9.26741 61.3659 9.34275V17.4369C61.3659 17.5123 61.4278 17.5742 61.5031 17.5742H63.3565C63.4319 17.5742 63.4937 17.5123 63.4937 17.4369V9.34006C63.4937 9.30508 63.4803 9.2701 63.4534 9.24319C63.4265 9.21897 63.3915 9.20552 63.3565 9.20552ZM62.4392 5.519C61.7048 5.519 61.1076 6.11369 61.1076 6.8483C61.1076 7.58291 61.7048 8.18029 62.4392 8.18029C63.1736 8.18029 63.7681 7.5856 63.7681 6.8483C63.7681 6.11369 63.1736 5.519 62.4392 5.519ZM78.6872 11.8076C77.9529 11.8076 77.3826 11.2183 77.3826 10.5025C77.3826 9.78675 77.9609 9.18937 78.6953 9.18937C79.4297 9.18937 80 9.77868 80 10.4945C80 11.2102 79.4189 11.8076 78.6872 11.8076ZM78.6953 9.31853C78.0255 9.31853 77.5198 9.85133 77.5198 10.5025C77.5198 11.1537 78.0228 11.6784 78.6872 11.6784C79.3544 11.6784 79.8628 11.1483 79.8628 10.4945C79.8628 9.84326 79.3598 9.31853 78.6953 9.31853ZM78.9832 10.629L79.3517 11.1456H79.0396L78.7061 10.672H78.4209V11.1456H78.16V9.77598H78.7706C79.0881 9.77598 79.2979 9.94013 79.2979 10.2119C79.3033 10.4379 79.1715 10.5752 78.9832 10.629ZM78.7626 10.0101H78.4236V10.4433H78.7626C78.932 10.4433 79.0343 10.3599 79.0343 10.2254C79.0343 10.0854 78.932 10.0101 78.7626 10.0101Z" fill="#497696"></path></g><defs><clipPath id="clip0_42_875"><rect width="80" height="24" fill="white"></rect></clipPath></defs></svg>