<svg xmlns="http://www.w3.org/2000/svg" width="91" height="22" viewBox="0 0 91 22" fill="none"><g clip-path="url(#clip0_42_878)"><path d="M79.9352 7.40741C80.4402 7.40741 80.8577 7.14074 80.916 6.79506L81.4161 1.03704C81.4161 0.469136 80.7606 0 79.9352 0C79.1099 0 78.4593 0.469136 78.4593 1.03704L78.9594 6.79506C79.0128 7.1358 79.4303 7.40741 79.9352 7.40741ZM76.8765 9.20494C77.129 8.76049 77.1095 8.25679 76.8425 8.03457L72.1913 4.71605C71.7058 4.42963 70.9824 4.77531 70.5697 5.50123C70.157 6.22716 70.2298 7.03704 70.7105 7.31852L75.8618 9.75803C76.1871 9.88148 76.624 9.64444 76.8765 9.20494ZM82.994 9.2C83.2465 9.64444 83.6834 9.88148 84.0087 9.75803L89.16 7.31852C89.6455 7.0321 89.7135 6.22222 89.3057 5.50123C88.893 4.77531 88.1647 4.43457 87.6841 4.71605L83.0328 8.03457C82.7658 8.25679 82.7464 8.76049 82.994 9.2ZM79.9352 14.5975C80.4402 14.5975 80.8577 14.8642 80.916 15.2099L81.4161 20.963C81.4161 21.5358 80.7606 22 79.9352 22C79.1099 22 78.4593 21.5358 78.4593 20.963L78.9594 15.2099C79.0128 14.8642 79.4303 14.5975 79.9352 14.5975ZM82.994 12.8C83.2465 12.3556 83.6834 12.1235 84.0087 12.242L89.16 14.6815C89.6455 14.9679 89.7135 15.7778 89.3057 16.5037C88.893 17.2247 88.1647 17.5704 87.6841 17.2889L83.0328 13.9753C82.7658 13.7432 82.7464 13.2444 82.994 12.8ZM76.8765 12.7951C77.129 13.2395 77.1095 13.7432 76.8425 13.9654L72.1913 17.279C71.7058 17.5654 70.9824 17.2198 70.5697 16.4938C70.157 15.7679 70.2298 14.958 70.7105 14.6716L75.8618 12.2321C76.1871 12.1185 76.624 12.3506 76.8765 12.7951Z" fill="#083A5E"></path><path d="M50.5955 13.9555C50.5955 14.1333 50.5809 14.316 50.5324 14.474C50.3333 15.1407 49.6584 15.6987 48.8136 15.6987C48.1096 15.6987 47.5464 15.2888 47.5464 14.4296C47.5464 13.1111 48.9739 12.7456 50.5955 12.7555V13.9555ZM53.1396 11.6592C53.1396 9.48638 52.2268 7.57527 49.1438 7.57527C47.561 7.57527 46.3035 8.02959 45.6189 8.42959L46.119 10.1777C46.7453 9.7728 47.7455 9.44193 48.6923 9.44193C50.2556 9.437 50.5129 10.3456 50.5129 10.9234V11.0617C47.1046 11.0567 44.9441 12.2567 44.9441 14.7061C44.9441 16.2024 46.0413 17.6 47.9494 17.6C49.1244 17.6 50.1051 17.1259 50.6926 16.3605H50.7508C50.7508 16.3605 51.1392 18.0197 53.2852 17.3827C53.1736 16.6913 53.1347 15.9555 53.1347 15.0716L53.1396 11.6592ZM0 4.61724C0 4.61724 2.22851 13.9061 2.58294 15.4123C3.00048 17.1703 3.74817 17.8222 5.90386 17.3827L7.29728 11.6247C7.65171 10.1926 7.88476 9.17527 8.11295 7.71848H8.15179C8.31201 9.19008 8.5402 10.1975 8.82665 11.6296C8.82665 11.6296 9.39471 14.2419 9.68116 15.6148C9.97247 16.9876 10.7833 17.8518 12.8953 17.3827L16.2113 4.61724H13.5361L12.4049 10.1382C12.099 11.7432 11.8223 13.0024 11.6135 14.4691H11.5747C11.3805 13.0123 11.1328 11.8074 10.827 10.2419L9.64717 4.61724H6.86032L5.59798 10.0987C5.2387 11.7679 4.90855 13.1111 4.69493 14.5284H4.65608C4.4376 13.1901 4.14629 11.5012 3.83556 9.88638C3.83556 9.88638 3.08787 5.96539 2.82569 4.6123L0 4.61724ZM21.2752 13.9555C21.2752 14.1333 21.2607 14.316 21.2121 14.474C21.0131 15.1407 20.3382 15.6987 19.4934 15.6987C18.7894 15.6987 18.2262 15.2888 18.2262 14.4296C18.2262 13.1111 19.6536 12.7456 21.2752 12.7555V13.9555ZM23.8242 11.6592C23.8242 9.48638 22.9114 7.57527 19.8284 7.57527C18.2456 7.57527 16.9882 8.02959 16.3036 8.42959L16.8037 10.1777C17.43 9.7728 18.4301 9.44193 19.3769 9.44193C20.9451 9.437 21.1976 10.3456 21.1976 10.9234V11.0617C17.7844 11.0567 15.6287 12.2567 15.6287 14.7061C15.6287 16.2024 16.726 17.6 18.634 17.6C19.809 17.6 20.7897 17.1259 21.3772 16.3605H21.4355C21.4355 16.3605 21.8239 18.0197 23.9747 17.3827C23.863 16.6913 23.8242 15.9555 23.8242 15.0716V11.6592ZM28.0725 14.6716V4.61724H25.5235V17.3827H28.0725V14.6716ZM61.4224 4.61724V14.0345C61.4224 15.3333 61.6652 16.2419 62.175 16.8C62.6265 17.2888 63.3645 17.6 64.2481 17.6C65.0007 17.6 65.7435 17.4518 66.0931 17.3234L66.0591 15.2987C65.7969 15.3629 65.5008 15.4172 65.0929 15.4172C64.2239 15.4172 63.9326 14.8493 63.9326 13.6839V10.079H66.1514V7.63453H63.9326V4.61724H61.4224ZM54.8389 7.79255V17.3827H57.4704V12.474C57.4704 12.2074 57.4849 11.9753 57.5286 11.7679C57.7228 10.7407 58.4948 10.0839 59.6066 10.0839C59.9125 10.0839 60.131 10.1185 60.364 10.153V7.6444C60.165 7.6049 60.029 7.58514 59.7863 7.58514C58.8055 7.58514 57.6888 8.22712 57.2179 9.60984H57.1451V7.80243H54.8389M29.8543 7.79255V17.3827H32.4178V11.758C32.4178 11.4963 32.4469 11.2148 32.5392 10.9728C32.7528 10.4049 33.2675 9.74317 34.0977 9.74317C35.1318 9.74317 35.6173 10.6321 35.6173 11.916V17.3827H38.176V11.6888C38.176 11.437 38.21 11.1358 38.2828 10.9135C38.4916 10.2716 39.0499 9.74317 39.8219 9.74317C40.8706 9.74317 41.3707 10.6172 41.3707 12.1284V17.3827H43.9342V11.7333C43.9342 8.75552 42.4485 7.57527 40.7687 7.57527C40.0258 7.57527 39.4383 7.76292 38.9091 8.09379C38.4625 8.37527 38.0643 8.77033 37.7148 9.28885H37.6759C37.273 8.25675 36.3165 7.57527 35.0784 7.57527C33.4859 7.57527 32.7674 8.39502 32.3304 9.09626H32.2867V7.79255H29.8543Z" fill="#083A5E"></path><path d="M90.4516 16.9183H90.4904C90.5438 16.9183 90.573 16.8985 90.573 16.864C90.573 16.8294 90.5438 16.8097 90.4953 16.8097C90.4807 16.8097 90.4613 16.8146 90.4516 16.8146V16.9183ZM90.4467 17.1751H90.3108V16.7257C90.3399 16.7208 90.4127 16.7109 90.505 16.7109C90.6069 16.7109 90.6506 16.7257 90.6846 16.7455C90.7138 16.7652 90.7332 16.7998 90.7332 16.8442C90.7332 16.8887 90.6895 16.9282 90.6312 16.9479V16.9529C90.6798 16.9677 90.7089 17.0022 90.7235 17.0714C90.738 17.1356 90.7477 17.1652 90.7526 17.18H90.5972C90.5827 17.1652 90.5778 17.1257 90.5681 17.0813C90.5584 17.0368 90.539 17.0121 90.4904 17.0121H90.4467V17.1751ZM90.5001 16.5776C90.3059 16.5776 90.1554 16.7405 90.1554 16.9479C90.1554 17.1504 90.3011 17.3134 90.505 17.3134C90.704 17.3183 90.8546 17.1504 90.8546 16.943C90.8546 16.7405 90.7089 16.5776 90.5001 16.5776ZM90.5098 16.4541C90.7817 16.4541 91.0002 16.6714 91.0002 16.943C91.0002 17.2146 90.7817 17.4319 90.505 17.4319C90.2282 17.4319 90.0098 17.2146 90.0098 16.943C90.0098 16.6714 90.2282 16.4541 90.5098 16.4541Z" fill="#083A5E"></path></g><defs><clipPath id="clip0_42_878"><rect width="91" height="22" fill="white"></rect></clipPath></defs></svg>