<svg xmlns="http://www.w3.org/2000/svg" width="91" height="21" viewBox="0 0 91 21" fill="none"><g clip-path="url(#clip0_56_834)"><path d="M79.935 7.07071C80.4399 7.07071 80.8575 6.81616 80.9157 6.4862L81.4158 0.989899C81.4158 0.447811 80.7604 0 79.935 0C79.1096 0 78.459 0.447811 78.459 0.989899L78.9591 6.4862C79.0125 6.81145 79.4301 7.07071 79.935 7.07071ZM76.8763 8.78653C77.1287 8.36229 77.1093 7.88148 76.8423 7.66936L72.191 4.50168C71.7055 4.22828 70.9821 4.55825 70.5694 5.25118C70.1567 5.94411 70.2296 6.71717 70.7102 6.98586L75.8615 9.31448C76.1868 9.43232 76.6238 9.20606 76.8763 8.78653ZM82.9937 8.78182C83.2462 9.20606 83.6832 9.43232 84.0085 9.31448L89.1598 6.98586C89.6453 6.71246 89.7133 5.93939 89.3054 5.25118C88.8927 4.55825 88.1645 4.233 87.6838 4.50168L83.0326 7.66936C82.7655 7.88148 82.7461 8.36229 82.9937 8.78182ZM79.935 13.934C80.4399 13.934 80.8575 14.1886 80.9157 14.5185L81.4158 20.0101C81.4158 20.5569 80.7604 21 79.935 21C79.1096 21 78.459 20.5569 78.459 20.0101L78.9591 14.5185C79.0125 14.1886 79.4301 13.934 79.935 13.934ZM82.9937 12.2182C83.2462 11.7939 83.6832 11.5724 84.0085 11.6855L89.1598 14.0141C89.6453 14.2875 89.7133 15.0606 89.3054 15.7535C88.8927 16.4418 88.1645 16.7717 87.6838 16.503L83.0326 13.3401C82.7655 13.1185 82.7461 12.6424 82.9937 12.2182ZM76.8763 12.2135C77.1287 12.6377 77.1093 13.1185 76.8423 13.3306L72.191 16.4936C71.7055 16.767 70.9821 16.437 70.5694 15.7441C70.1567 15.0512 70.2296 14.2781 70.7102 14.0047L75.8615 11.6761C76.1868 11.5677 76.6238 11.7892 76.8763 12.2135Z" fill="#083A5E"></path><path d="M50.5955 13.3212C50.5955 13.4909 50.5809 13.6653 50.5324 13.8162C50.3333 14.4525 49.6584 14.9852 48.8136 14.9852C48.1096 14.9852 47.5464 14.594 47.5464 13.7738C47.5464 12.5152 48.9739 12.1663 50.5955 12.1758V13.3212ZM53.1396 11.1293C53.1396 9.05524 52.2268 7.23099 49.1438 7.23099C47.561 7.23099 46.3035 7.66466 45.6189 8.04648L46.119 9.71517C46.7453 9.32864 47.7455 9.01281 48.6923 9.01281C50.2556 9.0081 50.5129 9.87544 50.5129 10.427V10.5589C47.1046 10.5542 44.9441 11.6997 44.9441 14.0377C44.9441 15.466 46.0413 16.8 47.9494 16.8C49.1244 16.8 50.1051 16.3475 50.6926 15.6169H50.7508C50.7508 15.6169 51.1392 17.2007 53.2852 16.5926C53.1736 15.9327 53.1347 15.2303 53.1347 14.3865L53.1396 11.1293ZM0 4.40742C0 4.40742 2.22851 13.2741 2.58294 14.7118C3.00048 16.3899 3.74817 17.0121 5.90386 16.5926L7.29728 11.0963C7.65171 9.72931 7.88476 8.75827 8.11295 7.36769H8.15179C8.31201 8.77241 8.5402 9.73402 8.82665 11.101C8.82665 11.101 9.39471 13.5946 9.68116 14.9051C9.97247 16.2155 10.7833 17.0404 12.8953 16.5926L16.2113 4.40742H13.5361L12.4049 9.67746C12.099 11.2094 11.8223 12.4115 11.6135 13.8115H11.5747C11.3805 12.4209 11.1328 11.2707 10.827 9.77645L9.64717 4.40742H6.86032L5.59798 9.63975C5.2387 11.233 4.90855 12.5152 4.69493 13.868H4.65608C4.4376 12.5906 4.14629 10.9785 3.83556 9.43705C3.83556 9.43705 3.08787 5.69429 2.82569 4.40271L0 4.40742ZM21.2752 13.3212C21.2752 13.4909 21.2607 13.6653 21.2121 13.8162C21.0131 14.4525 20.3382 14.9852 19.4934 14.9852C18.7894 14.9852 18.2262 14.594 18.2262 13.7738C18.2262 12.5152 19.6536 12.1663 21.2752 12.1758V13.3212ZM23.8242 11.1293C23.8242 9.05524 22.9114 7.23099 19.8284 7.23099C18.2456 7.23099 16.9882 7.66466 16.3036 8.04648L16.8037 9.71517C17.43 9.32864 18.4301 9.01281 19.3769 9.01281C20.9451 9.0081 21.1976 9.87544 21.1976 10.427V10.5589C17.7844 10.5542 15.6287 11.6997 15.6287 14.0377C15.6287 15.466 16.726 16.8 18.634 16.8C19.809 16.8 20.7897 16.3475 21.3772 15.6169H21.4355C21.4355 15.6169 21.8239 17.2007 23.9747 16.5926C23.863 15.9327 23.8242 15.2303 23.8242 14.3865V11.1293ZM28.0725 14.0047V4.40742H25.5235V16.5926H28.0725V14.0047ZM61.4224 4.40742V13.3967C61.4224 14.6364 61.6652 15.5037 62.175 16.0364C62.6265 16.503 63.3645 16.8 64.2481 16.8C65.0007 16.8 65.7435 16.6586 66.0931 16.536L66.0591 14.6034C65.7969 14.6647 65.5008 14.7165 65.0929 14.7165C64.2239 14.7165 63.9326 14.1744 63.9326 13.062V9.62089H66.1514V7.28756H63.9326V4.40742H61.4224ZM54.8389 7.4384V16.5926H57.4704V11.9071C57.4704 11.6525 57.4849 11.431 57.5286 11.233C57.7228 10.2525 58.4948 9.62561 59.6066 9.62561C59.9125 9.62561 60.131 9.6586 60.364 9.6916V7.29699C60.165 7.25928 60.029 7.24042 59.7863 7.24042C58.8055 7.24042 57.6888 7.85322 57.2179 9.17308H57.1451V7.44783H54.8389M29.8543 7.4384V16.5926H32.4178V11.2236C32.4178 10.9738 32.4469 10.7051 32.5392 10.4741C32.7528 9.932 33.2675 9.30035 34.0977 9.30035C35.1318 9.30035 35.6173 10.1488 35.6173 11.3744V16.5926H38.176V11.1576C38.176 10.9172 38.21 10.6296 38.2828 10.4175C38.4916 9.80473 39.0499 9.30035 39.8219 9.30035C40.8706 9.30035 41.3707 10.1347 41.3707 11.5771V16.5926H43.9342V11.2C43.9342 8.35759 42.4485 7.23099 40.7687 7.23099C40.0258 7.23099 39.4383 7.41012 38.9091 7.72594C38.4625 7.99463 38.0643 8.37173 37.7148 8.86668H37.6759C37.273 7.8815 36.3165 7.23099 35.0784 7.23099C33.4859 7.23099 32.7674 8.01348 32.3304 8.68284H32.2867V7.4384H29.8543Z" fill="#083A5E"></path><path d="M90.4513 16.1495H90.4902C90.5436 16.1495 90.5727 16.1307 90.5727 16.0977C90.5727 16.0647 90.5436 16.0458 90.495 16.0458C90.4805 16.0458 90.461 16.0505 90.4513 16.0505V16.1495ZM90.4465 16.3946H90.3105V15.9657C90.3397 15.961 90.4125 15.9515 90.5047 15.9515C90.6067 15.9515 90.6504 15.9657 90.6844 15.9845C90.7135 16.0034 90.7329 16.0364 90.7329 16.0788C90.7329 16.1212 90.6892 16.1589 90.631 16.1778V16.1825C90.6795 16.1967 90.7087 16.2297 90.7232 16.2956C90.7378 16.3569 90.7475 16.3852 90.7524 16.3993H90.597C90.5824 16.3852 90.5776 16.3475 90.5679 16.3051C90.5582 16.2626 90.5387 16.2391 90.4902 16.2391H90.4465V16.3946ZM90.4999 15.8243C90.3057 15.8243 90.1552 15.9798 90.1552 16.1778C90.1552 16.3711 90.3008 16.5266 90.5047 16.5266C90.7038 16.5313 90.8543 16.3711 90.8543 16.1731C90.8543 15.9798 90.7087 15.8243 90.4999 15.8243ZM90.5096 15.7064C90.7815 15.7064 91 15.9138 91 16.1731C91 16.4323 90.7815 16.6398 90.5047 16.6398C90.228 16.6398 90.0095 16.4323 90.0095 16.1731C90.0095 15.9138 90.228 15.7064 90.5096 15.7064Z" fill="#083A5E"></path></g><defs><clipPath id="clip0_56_834"><rect width="91" height="21" fill="white"></rect></clipPath></defs></svg>