<svg xmlns="http://www.w3.org/2000/svg" width="80" height="25" viewBox="0 0 80 25" fill="none"><g clip-path="url(#clip0_42_883)"><mask id="mask0_42_883" style="mask-type:luminance" maskUnits="userSpaceOnUse" x="0" y="0" width="80" height="25"><path d="M80 0H0V25H80V0Z" fill="white"></path></mask><g mask="url(#mask0_42_883)"><path d="M42.1525 6.28205C42.1525 7.18376 41.4271 7.91026 40.5268 7.91026C39.6265 7.91026 38.9011 7.18376 38.9011 6.28205C38.9011 5.38034 39.6009 4.65385 40.5268 4.65385C41.4528 4.67949 42.1525 5.40598 42.1525 6.28205ZM35.4578 9.55983V9.96154C35.4578 9.96154 34.6855 8.96154 33.0342 8.96154C30.3119 8.96154 28.187 11.0385 28.187 13.9145C28.187 16.7692 30.2863 18.8675 33.0342 18.8675C34.7068 18.8675 35.4578 17.8419 35.4578 17.8419V18.2692C35.4578 18.4701 35.6071 18.6197 35.8077 18.6197H37.8302V9.2094H35.8077C35.6071 9.2094 35.4578 9.38461 35.4578 9.55983ZM35.4578 15.5897C35.0823 16.141 34.3356 16.6154 33.4353 16.6154C31.8352 16.6154 30.6106 15.6154 30.6106 13.9103C30.6106 12.2094 31.8352 11.2094 33.4353 11.2094C34.31 11.2094 35.1079 11.7094 35.4578 12.235V15.5897ZM39.3278 9.2094H41.7258V18.6197H39.3278V9.2094ZM75.1569 8.95726C73.5099 8.95726 72.7333 9.95726 72.7333 9.95726V4.67949H70.3354V18.6197H72.3579C72.5584 18.6197 72.7077 18.4444 72.7077 18.2692V17.8462C72.7077 17.8462 73.4843 18.8718 75.1313 18.8718C77.8536 18.8718 79.9785 16.7692 79.9785 13.9188C79.9785 11.0598 77.8579 8.95726 75.1569 8.95726ZM74.7601 16.5897C73.8342 16.5897 73.1131 16.1154 72.7376 15.5641V12.2094C73.1131 11.7094 73.911 11.1838 74.7601 11.1838C76.3602 11.1838 77.5848 12.1838 77.5848 13.8846C77.5805 15.5897 76.3602 16.5897 74.7601 16.5897ZM69.0852 13.0385V18.6453H66.6872V13.312C66.6872 11.7607 66.1879 11.1368 64.8396 11.1368C64.1142 11.1368 63.3675 11.5128 62.8896 12.0641V18.6197H60.4916V9.2094H62.3904C62.5909 9.2094 62.7403 9.38461 62.7403 9.55983V9.96154C63.4401 9.23504 64.366 8.96154 65.2876 8.96154C66.3373 8.96154 67.212 9.26068 67.9118 9.86325C68.7609 10.5598 69.0852 11.4615 69.0852 13.0385ZM54.6716 8.95726C53.0246 8.95726 52.248 9.95726 52.248 9.95726V4.67949H49.85V18.6197H51.8725C52.073 18.6197 52.2224 18.4444 52.2224 18.2692V17.8462C52.2224 17.8462 52.999 18.8718 54.646 18.8718C57.3683 18.8718 59.4932 16.7692 59.4932 13.9188C59.5188 11.0598 57.3939 8.95726 54.6716 8.95726ZM54.2705 16.5897C53.3446 16.5897 52.6235 16.1154 52.248 15.5641V12.2094C52.6235 11.7094 53.4214 11.1838 54.2705 11.1838C55.8706 11.1838 57.0952 12.1838 57.0952 13.8846C57.0952 15.5897 55.8706 16.5897 54.2705 16.5897ZM47.772 8.95726C48.4974 8.95726 48.8729 9.0812 48.8729 9.0812V11.3077C48.8729 11.3077 46.876 10.6325 45.6258 12.0598V18.641H43.2278V9.2094H45.2503C45.4508 9.2094 45.6002 9.38461 45.6002 9.55983V9.96154C46.0482 9.4359 47.0253 8.95726 47.772 8.95726ZM22.8619 17.7692C22.7382 17.4701 22.6101 17.1453 22.4864 16.8675C22.2859 16.4188 22.0853 15.9915 21.9104 15.5897L21.8848 15.5641C20.161 11.812 18.3134 8.00855 16.3634 4.25214L16.2866 4.10256C16.0818 3.71368 15.8813 3.32051 15.6892 2.92735C15.4375 2.47863 15.19 2 14.7889 1.55128C13.9953 0.551282 12.8432 0 11.6186 0C10.3684 0 9.24623 0.551282 8.42272 1.5C8.04724 1.94872 7.77416 2.42735 7.52241 2.87607C7.32613 3.26923 7.12986 3.66239 6.92505 4.05128L6.84824 4.20085C4.92387 7.95299 3.05071 11.7564 1.32688 15.5128L1.30128 15.5641C1.12634 15.9658 0.925792 16.3889 0.725248 16.8419C0.601508 17.1154 0.477768 17.4188 0.349762 17.7436C0.0254777 18.6709 -0.0769277 19.547 0.0510791 20.4487C0.32416 22.3248 1.57436 23.9017 3.29819 24.6026C3.94675 24.8761 4.62092 25.0043 5.32069 25.0043C5.52124 25.0043 5.76872 24.9786 5.96926 24.953C6.79277 24.8547 7.64188 24.5769 8.46966 24.1026C9.49372 23.5256 10.4666 22.7009 11.5674 21.5C12.6683 22.7009 13.6667 23.5256 14.6652 24.1026C15.4887 24.5769 16.3378 24.8547 17.1656 24.953C17.3661 24.9786 17.6179 25.0043 17.8142 25.0043C18.5139 25.0043 19.2137 24.8803 19.8367 24.6026C21.5861 23.9017 22.8107 22.2991 23.0838 20.4487C23.2886 19.5684 23.1862 18.6923 22.8619 17.7692ZM11.593 19.0684C10.2447 17.3675 9.36998 15.765 9.07129 14.4145C8.94755 13.8376 8.92195 13.3376 8.99449 12.8889C9.04569 12.4872 9.19503 12.1368 9.39558 11.8376C9.8692 11.1624 10.6714 10.735 11.593 10.735C12.5189 10.735 13.3425 11.1368 13.7905 11.8376C13.991 12.1368 14.1404 12.4872 14.1916 12.8889C14.2684 13.3376 14.2428 13.8632 14.1148 14.4145C13.8203 15.7393 12.9456 17.3419 11.593 19.0684ZM21.5648 20.2436C21.3898 21.5427 20.5151 22.6709 19.2905 23.1709C18.6889 23.4188 18.0403 23.4957 17.3917 23.4188C16.7688 23.3419 16.1415 23.1453 15.493 22.7692C14.5927 22.2692 13.6923 21.4915 12.6427 20.3419C14.2897 18.3162 15.2924 16.4615 15.6679 14.812C15.8429 14.0342 15.8685 13.3333 15.7917 12.6838C15.6935 12.0598 15.4674 11.4829 15.1175 10.9829C14.3409 9.8547 13.0438 9.20513 11.593 9.20513C10.1423 9.20513 8.84515 9.88034 8.06857 10.9829C7.71869 11.4829 7.49254 12.0598 7.3944 12.6838C7.29627 13.3333 7.3176 14.0598 7.51814 14.812C7.89363 16.4615 8.91768 18.3419 10.5391 20.3675C9.51505 21.5171 8.58913 22.2949 7.68882 22.7949C7.04025 23.1709 6.41302 23.3718 5.79005 23.4444C5.11588 23.5214 4.46731 23.4188 3.89128 23.1966C2.66668 22.6966 1.79197 21.5684 1.61703 20.2692C1.54023 19.6453 1.59143 19.0171 1.84317 18.3162C1.91571 18.0641 2.04372 17.8162 2.16746 17.5171C2.3424 17.1154 2.54295 16.6923 2.74349 16.265L2.76909 16.2137C4.49292 12.4829 6.34048 8.67949 8.26485 4.97863L8.34165 4.82906C8.5422 4.45299 8.74274 4.05556 8.94329 3.67949C9.14383 3.27778 9.36998 2.90171 9.64306 2.57692C10.1679 1.97863 10.8677 1.64957 11.64 1.64957C12.4165 1.64957 13.112 1.97436 13.6369 2.57692C13.91 2.90171 14.1361 3.27778 14.3366 3.67949C14.5372 4.05556 14.7377 4.45726 14.9383 4.82906L15.0151 4.97863C16.9096 8.69658 18.7358 12.453 20.4852 16.2393V16.265C20.6858 16.6667 20.8607 17.1154 21.0613 17.5171C21.185 17.8162 21.313 18.0684 21.3855 18.3162C21.5904 18.9701 21.6629 19.594 21.5648 20.2436Z" fill="#497696"></path></g></g><defs><clipPath id="clip0_42_883"><rect width="80" height="25" fill="white"></rect></clipPath></defs></svg>