<svg xmlns="http://www.w3.org/2000/svg" width="71" height="17" viewBox="0 0 71 17" fill="none"><g clip-path="url(#clip0_42_779)"><path fill-rule="evenodd" clip-rule="evenodd" d="M16.6744 15.9438H12.7373L11.5329 13.0255H4.97116L3.87477 15.9438H0L5.91805 1.19401H10.1583L16.6744 15.9438ZM8.09008 4.71758L5.93882 10.4497H10.4573L8.09008 4.71758ZM30.9774 1.19401H34.1627V15.9438H30.5039V6.72986L26.5461 11.3598H25.9854L22.0276 6.72986V15.9438H18.3688V1.19401H21.5542L26.2678 6.66724L30.9774 1.19401ZM43.4323 1.19401C48.7897 1.19401 51.5431 4.54641 51.5431 8.59185C51.5431 12.8293 48.8727 15.9438 43.0211 15.9438H36.9536V1.19401H43.4323ZM40.6124 13.2385H43.0004C46.6799 13.2385 47.7763 10.7294 47.7763 8.5668C47.7763 6.03684 46.4224 3.89514 42.9547 3.89514H40.6082L40.6124 13.2385ZM66.3237 4.63826H58.8067L54.2384 0.0208743L71 0V16.8748L66.3237 12.153V4.63826ZM58.8026 12.2991L58.8234 5.48158L54.064 10.266V17H60.9497L65.626 12.2991H58.8026Z" fill="#497696"></path></g><defs><clipPath id="clip0_42_779"><rect width="71" height="17" fill="white"></rect></clipPath></defs></svg>