<svg xmlns="http://www.w3.org/2000/svg" width="30" height="22" viewBox="0 0 30 22" fill="none"><path d="M29.2031 5.42188C29.6719 5.60938 30 6.03125 30 6.5C30 7.01562 29.6719 7.4375 29.2031 7.625L15.9844 12.3594C15.3281 12.5938 14.625 12.5938 13.9688 12.3594L5.0625 9.17188C4.5 9.78125 4.07812 10.5312 3.89062 11.375C4.21875 11.6094 4.5 12.0312 4.5 12.5C4.5 12.9688 4.26562 13.3906 3.9375 13.6719L5.0625 20.6562C5.15625 21.125 4.78125 21.5 4.35938 21.5H1.59375C1.17188 21.5 0.796875 21.125 0.890625 20.6562L2.01562 13.6719C1.6875 13.3906 1.5 12.9688 1.5 12.5C1.5 11.8906 1.875 11.375 2.39062 11.1406C2.57812 10.2031 3 9.35938 3.5625 8.60938L0.75 7.625C0.28125 7.4375 0 7.01562 0 6.5C0 6.03125 0.28125 5.60938 0.75 5.42188L13.9219 0.6875C14.5781 0.453125 15.2812 0.453125 15.9375 0.6875L29.2031 5.42188ZM16.4531 13.7656L23.2969 11.3281L24 18.0312C24 19.9531 19.9219 21.5 15 21.5C9.98438 21.5 6 19.9531 6 18.0312L6.65625 11.3281L13.5 13.7656C13.9688 13.9531 14.4844 14 15 14C15.4688 14 15.9844 13.9531 16.4531 13.7656Z" fill="#3F3EED"></path></svg>