<svg xmlns="http://www.w3.org/2000/svg" width="70" height="70" viewBox="0 0 70 70" fill="none"><g filter="url(#filter0_d_369_2)"><rect x="10" y="6" width="50" height="50" rx="4" fill="#FDEDE1"></rect></g><path d="M23.8125 17.625H32.543C33.5391 17.625 34.4766 18.0352 35.1797 18.7383L45.4922 29.0508C46.957 30.5156 46.957 32.918 45.4922 34.3828L37.6992 42.1758C36.2344 43.6406 33.832 43.6406 32.3672 42.1758L22.0547 31.8633C21.3516 31.1602 21 30.2227 21 29.2266V20.4375C21 18.9141 22.2305 17.625 23.8125 17.625ZM27.5625 26.0625C28.5586 26.0625 29.4375 25.2422 29.4375 24.1875C29.4375 23.1914 28.5586 22.3125 27.5625 22.3125C26.5078 22.3125 25.6875 23.1914 25.6875 24.1875C25.6875 25.2422 26.5078 26.0625 27.5625 26.0625Z" fill="#EBA43B"></path><defs><filter id="filter0_d_369_2" x="0" y="0" width="70" height="70" filterUnits="userSpaceOnUse" color-interpolation-filters="sRGB"><feGaussianBlur stdDeviation="5"></feGaussianBlur></filter></defs></svg>