<svg xmlns="http://www.w3.org/2000/svg" width="90" height="28" viewBox="0 0 90 28" fill="none"><mask id="mask0_56_840" style="mask-type:luminance" maskUnits="userSpaceOnUse" x="0" y="0" width="90" height="28"><path d="M90 0H0V28H90V0Z" fill="white"></path></mask><g mask="url(#mask0_56_840)"><path d="M47.4217 7.0359C47.4217 8.04581 46.6056 8.85949 45.5928 8.85949C44.5799 8.85949 43.7639 8.04581 43.7639 7.0359C43.7639 6.02598 44.5511 5.21231 45.5928 5.21231C46.6344 5.24103 47.4217 6.0547 47.4217 7.0359ZM39.89 10.707V11.1569C39.89 11.1569 39.0212 10.0369 37.1635 10.0369C34.1009 10.0369 31.7104 12.3631 31.7104 15.5843C31.7104 18.7815 34.0721 21.1316 37.1635 21.1316C39.0452 21.1316 39.89 19.9829 39.89 19.9829V20.4615C39.89 20.6865 40.0581 20.854 40.2837 20.854H42.559V10.3145H40.2837C40.0581 10.3145 39.89 10.5108 39.89 10.707ZM39.89 17.4605C39.4676 18.0779 38.6276 18.6092 37.6147 18.6092C35.8146 18.6092 34.437 17.4892 34.437 15.5795C34.437 13.6745 35.8146 12.5545 37.6147 12.5545C38.5988 12.5545 39.4964 13.1145 39.89 13.7032V17.4605ZM44.2439 10.3145H46.9416V20.854H44.2439V10.3145ZM84.5516 10.0321C82.6987 10.0321 81.8251 11.1521 81.8251 11.1521V5.24103H79.1273V20.854H81.4027C81.6283 20.854 81.7963 20.6578 81.7963 20.4615V19.9877C81.7963 19.9877 82.6699 21.1364 84.5228 21.1364C87.5854 21.1364 89.9759 18.7815 89.9759 15.5891C89.9759 12.387 87.5902 10.0321 84.5516 10.0321ZM84.1052 18.5805C83.0636 18.5805 82.2523 18.0492 81.8299 17.4318V13.6745C82.2523 13.1145 83.15 12.5258 84.1052 12.5258C85.9053 12.5258 87.283 13.6458 87.283 15.5508C87.2782 17.4605 85.9053 18.5805 84.1052 18.5805ZM77.7209 14.6031V20.8827H75.0231V14.9094C75.0231 13.172 74.4615 12.4732 72.9446 12.4732C72.1286 12.4732 71.2885 12.8944 70.7509 13.5118V20.854H68.0531V10.3145H70.1893C70.4149 10.3145 70.5829 10.5108 70.5829 10.707V11.1569C71.3701 10.3432 72.4118 10.0369 73.4486 10.0369C74.6295 10.0369 75.6136 10.372 76.4008 11.0468C77.356 11.827 77.7209 12.8369 77.7209 14.6031ZM61.5056 10.0321C59.6527 10.0321 58.7791 11.1521 58.7791 11.1521V5.24103H56.0813V20.854H58.3566C58.5822 20.854 58.7503 20.6578 58.7503 20.4615V19.9877C58.7503 19.9877 59.6239 21.1364 61.4768 21.1364C64.5394 21.1364 66.9299 18.7815 66.9299 15.5891C66.9587 12.387 64.5682 10.0321 61.5056 10.0321ZM61.0544 18.5805C60.0127 18.5805 59.2015 18.0492 58.7791 17.4318V13.6745C59.2015 13.1145 60.0991 12.5258 61.0544 12.5258C62.8545 12.5258 64.2321 13.6458 64.2321 15.5508C64.2321 17.4605 62.8545 18.5805 61.0544 18.5805ZM53.7436 10.0321C54.5596 10.0321 54.9821 10.1709 54.9821 10.1709V12.6646C54.9821 12.6646 52.7355 11.9084 51.3291 13.507V20.8779H48.6313V10.3145H50.9066C51.1322 10.3145 51.3003 10.5108 51.3003 10.707V11.1569C51.8043 10.5682 52.9035 10.0321 53.7436 10.0321ZM25.7197 19.9015C25.5805 19.5665 25.4365 19.2027 25.2973 18.8916C25.0717 18.3891 24.846 17.9104 24.6492 17.4605L24.6204 17.4318C22.6811 13.2294 20.6026 8.96957 18.4089 4.76239L18.3225 4.59487C18.0921 4.15932 17.8665 3.71897 17.6505 3.27863C17.3672 2.77607 17.0888 2.24 16.6376 1.73744C15.7448 0.617436 14.4487 0 13.071 0C11.6645 0 10.4021 0.617436 9.47563 1.68C9.0532 2.18256 8.74599 2.71863 8.46277 3.2212C8.24196 3.66154 8.02115 4.10188 7.79074 4.53744L7.70433 4.70496C5.53942 8.90735 3.43211 13.1672 1.4928 17.3744L1.464 17.4318C1.26719 17.8817 1.04158 18.3556 0.815965 18.8629C0.676758 19.1692 0.537551 19.5091 0.393543 19.8728C0.0287235 20.9115 -0.0864827 21.8926 0.057525 22.9026C0.364741 25.0038 1.77122 26.7699 3.71052 27.5549C4.44016 27.8612 5.1986 28.0048 5.98584 28.0048C6.21145 28.0048 6.48987 27.9761 6.71548 27.9473C7.64193 27.8373 8.59718 27.5262 9.52843 26.9949C10.6805 26.3487 11.775 25.425 13.0134 24.08C14.2519 25.425 15.3751 26.3487 16.4984 26.9949C17.4249 27.5262 18.3801 27.8373 19.3114 27.9473C19.537 27.9761 19.8202 28.0048 20.041 28.0048C20.8282 28.0048 21.6155 27.866 22.3163 27.5549C24.2844 26.7699 25.6621 24.975 25.9693 22.9026C26.1997 21.9166 26.0845 20.9354 25.7197 19.9015ZM13.0422 21.3566C11.5253 19.4516 10.5413 17.6567 10.2053 16.1443C10.0661 15.4981 10.0373 14.9381 10.1189 14.4356C10.1765 13.9856 10.3445 13.5932 10.5701 13.2581C11.1029 12.5019 12.0054 12.0232 13.0422 12.0232C14.0839 12.0232 15.0103 12.4732 15.5143 13.2581C15.74 13.5932 15.908 13.9856 15.9656 14.4356C16.052 14.9381 16.0232 15.5268 15.8792 16.1443C15.548 17.628 14.5639 19.4229 13.0422 21.3566ZM24.2604 22.6728C24.0636 24.1279 23.0796 25.3915 21.7019 25.9515C21.025 26.2291 20.2954 26.3152 19.5658 26.2291C18.8649 26.1429 18.1593 25.9227 17.4297 25.5015C16.4168 24.9415 15.4039 24.0704 14.2231 22.7829C16.076 20.5142 17.204 18.4369 17.6265 16.5894C17.8233 15.7183 17.8521 14.9333 17.7657 14.2058C17.6553 13.507 17.4008 12.8609 17.0072 12.3009C16.1336 11.0373 14.6743 10.3097 13.0422 10.3097C11.4101 10.3097 9.95085 11.066 9.07721 12.3009C8.68359 12.8609 8.42917 13.507 8.31877 14.2058C8.20836 14.9333 8.23236 15.747 8.45797 16.5894C8.8804 18.4369 10.0325 20.5429 11.8566 22.8116C10.7045 24.0991 9.66284 24.9703 8.64998 25.5303C7.92034 25.9515 7.21471 26.1764 6.51387 26.2578C5.75543 26.3439 5.02579 26.2291 4.37776 25.9802C3.00008 25.4202 2.01603 24.1566 1.81922 22.7015C1.73281 22.0027 1.79042 21.2991 2.07363 20.5142C2.15524 20.2318 2.29924 19.9542 2.43845 19.6191C2.63526 19.1692 2.86087 18.6954 3.08649 18.2168L3.11529 18.1593C5.05459 13.9809 7.1331 9.72102 9.29802 5.57607L9.38442 5.40855C9.61003 4.98735 9.83565 4.54222 10.0613 4.12103C10.2869 3.67111 10.5413 3.24991 10.8485 2.88615C11.4389 2.21607 12.2262 1.84752 13.095 1.84752C13.9687 1.84752 14.7511 2.21128 15.3415 2.88615C15.6488 3.24991 15.9032 3.67111 16.1288 4.12103C16.3544 4.54222 16.58 4.99214 16.8056 5.40855L16.892 5.57607C19.0233 9.74017 21.0778 13.9473 23.046 18.188V18.2168C23.2716 18.6667 23.4684 19.1692 23.694 19.6191C23.8332 19.9542 23.9772 20.2366 24.0588 20.5142C24.2892 21.2465 24.3708 21.9453 24.2604 22.6728Z" fill="#9B9BCC"></path></g></svg>