<svg xmlns="http://www.w3.org/2000/svg" width="91" height="27" viewBox="0 0 91 27" fill="none"><path d="M13.6474 0C6.11073 0 0 6.04541 0 13.5015C0 20.9576 6.11073 27.003 13.6474 27.003C21.1841 27.003 27.2948 20.9576 27.2948 13.5015C27.2917 6.04541 21.1841 0 13.6474 0ZM19.905 19.4712C19.6602 19.8678 19.137 19.995 18.7361 19.7498C15.5323 17.8123 11.4993 17.3734 6.7472 18.448C6.28821 18.551 5.83227 18.2694 5.72824 17.8153C5.6242 17.3613 5.90877 16.9102 6.36777 16.8073C11.5666 15.6327 16.025 16.1413 19.6235 18.3148C20.0243 18.557 20.1498 19.0747 19.905 19.4712ZM21.5757 15.7962C21.2667 16.2926 20.6119 16.447 20.1131 16.1413C16.4473 13.9102 10.8537 13.2654 6.51464 14.5671C5.95161 14.7366 5.35798 14.4218 5.18662 13.8648C5.01833 13.3078 5.3335 12.7205 5.89653 12.551C10.8537 11.0646 17.0134 11.7851 21.2269 14.3461C21.7257 14.6549 21.8817 15.3027 21.5757 15.7962ZM21.7196 11.9667C17.3193 9.38446 10.0642 9.14531 5.86593 10.4077C5.19274 10.6105 4.47977 10.2321 4.27476 9.5661C4.06974 8.9001 4.45223 8.19475 5.12542 7.99193C9.94485 6.5449 17.9589 6.82341 23.0231 9.79919C23.629 10.1564 23.8279 10.9314 23.4699 11.5308C23.1088 12.1271 22.3224 12.3239 21.7196 11.9667ZM37.1264 12.4632C34.7703 11.9062 34.3511 11.5156 34.3511 10.6983C34.3511 9.92331 35.0885 9.40262 36.184 9.40262C37.2458 9.40262 38.3015 9.79919 39.403 10.6135C39.4367 10.6377 39.4795 10.6468 39.5193 10.6408C39.5591 10.6347 39.5958 10.6135 39.6203 10.5772L40.7708 8.97276C40.8167 8.90616 40.8045 8.81534 40.7402 8.76388C39.4245 7.71948 37.9465 7.21393 36.2146 7.21393C33.6717 7.21393 31.8939 8.72452 31.8939 10.886C31.8939 13.2048 33.4269 14.0252 36.0769 14.6579C38.3321 15.1726 38.7115 15.6024 38.7115 16.3713C38.7115 17.225 37.9434 17.7548 36.7042 17.7548C35.3302 17.7548 34.2072 17.2977 32.9527 16.22C32.9221 16.1927 32.8792 16.1806 32.8394 16.1837C32.7966 16.1867 32.7599 16.2048 32.7323 16.2381L31.441 17.7578C31.386 17.8214 31.3951 17.9152 31.4563 17.9697C32.9159 19.2593 34.7121 19.9405 36.6491 19.9405C39.3908 19.9405 41.1625 18.4571 41.1625 16.1655C41.1686 14.2281 39.9967 13.1564 37.1264 12.4662V12.4632ZM47.3712 10.1655C46.1839 10.1655 45.2078 10.6287 44.4061 11.5762V10.5076C44.4061 10.4228 44.3357 10.3532 44.2531 10.3532H42.1448C42.0591 10.3532 41.9918 10.4228 41.9918 10.5076V22.3744C41.9918 22.4591 42.0621 22.5288 42.1448 22.5288H44.2531C44.3387 22.5288 44.4061 22.4591 44.4061 22.3744V18.6297C45.2108 19.5227 46.1839 19.9586 47.3712 19.9586C49.5805 19.9586 51.8142 18.2785 51.8142 15.0636C51.8173 11.8456 49.5805 10.1655 47.3712 10.1655ZM49.3601 15.0605C49.3601 16.6983 48.3412 17.8396 46.8816 17.8396C45.4403 17.8396 44.351 16.6468 44.351 15.0605C44.351 13.4773 45.4403 12.2815 46.8816 12.2815C48.3167 12.2815 49.3601 13.4501 49.3601 15.0605ZM57.5425 10.1655C54.6998 10.1655 52.4721 12.333 52.4721 15.0969C52.4721 17.8335 54.6845 19.9768 57.5088 19.9768C60.3637 19.9768 62.5975 17.8184 62.5975 15.0636C62.5944 12.3148 60.376 10.1655 57.5425 10.1655ZM57.5425 17.8577C56.0308 17.8577 54.8895 16.6559 54.8895 15.0605C54.8895 13.4591 55.9911 12.2997 57.5057 12.2997C59.0265 12.2997 60.1771 13.5015 60.1771 15.0969C60.1771 16.6953 59.0694 17.8577 57.5425 17.8577ZM68.6685 10.3562H66.3459V8.00706C66.3459 7.9223 66.2786 7.8557 66.1929 7.8557H64.0846C63.999 7.8557 63.9286 7.92533 63.9286 8.00706V10.3562H62.9127C62.827 10.3562 62.7597 10.4258 62.7597 10.5106V12.3058C62.7597 12.3905 62.827 12.4601 62.9127 12.4601H63.9286V17.1009C63.9286 18.9778 64.871 19.9284 66.7346 19.9284C67.4904 19.9284 68.1207 19.774 68.7113 19.441C68.7603 19.4137 68.7878 19.3623 68.7878 19.3078V17.6004C68.7878 17.5489 68.7603 17.4975 68.7144 17.4702C68.6685 17.443 68.6103 17.44 68.5644 17.4642C68.1574 17.667 67.7658 17.7608 67.3251 17.7608C66.6489 17.7608 66.3459 17.4581 66.3459 16.774V12.4571H68.6685C68.7541 12.4571 68.8215 12.3875 68.8215 12.3027V10.5076C68.8245 10.4258 68.7572 10.3562 68.6685 10.3562ZM76.7559 10.3653V10.0777C76.7559 9.23007 77.0833 8.85167 77.8208 8.85167C78.2614 8.85167 78.6133 8.93946 79.008 9.06963C79.057 9.08476 79.109 9.07871 79.1457 9.04844C79.1855 9.01816 79.21 8.97276 79.21 8.92432V7.16549C79.21 7.09889 79.1672 7.03835 79.0998 7.02018C78.6806 6.89606 78.1482 6.77195 77.3465 6.77195C75.3973 6.77195 74.3691 7.85873 74.3691 9.9112V10.3532H73.3563C73.2706 10.3532 73.2002 10.4228 73.2002 10.5045V12.3088C73.2002 12.3935 73.2706 12.4632 73.3563 12.4632H74.3691V19.6226C74.3691 19.7074 74.4365 19.777 74.5221 19.777H76.6305C76.7161 19.777 76.7865 19.7074 76.7865 19.6226V12.4541H78.7571L81.7742 19.6105C81.4315 20.3613 81.0949 20.5126 80.6359 20.5126C80.2657 20.5126 79.874 20.4036 79.4732 20.1857C79.4364 20.1645 79.3905 20.1615 79.3508 20.1736C79.311 20.1887 79.2773 20.2159 79.259 20.2553L78.5429 21.8083C78.5093 21.8809 78.5368 21.9687 78.6102 22.005C79.3569 22.4046 80.0301 22.5772 80.8624 22.5772C82.4199 22.5772 83.2828 21.8597 84.0417 19.9284L87.7014 10.5711C87.7197 10.5227 87.7136 10.4712 87.6861 10.4289C87.6585 10.3865 87.6096 10.3623 87.5606 10.3623H85.3636C85.2962 10.3623 85.2381 10.4046 85.2167 10.4652L82.9676 16.8224L80.5044 10.4591C80.4829 10.3986 80.4248 10.3623 80.3605 10.3623L76.7559 10.3653ZM72.0681 10.3562H69.9598C69.8741 10.3562 69.8037 10.4258 69.8037 10.5106V19.6166C69.8037 19.7013 69.8741 19.7709 69.9598 19.7709H72.0681C72.1537 19.7709 72.2241 19.7013 72.2241 19.6166V10.5076C72.2241 10.4682 72.2088 10.4289 72.1782 10.3986C72.1476 10.3713 72.1078 10.3562 72.0681 10.3562ZM71.0246 6.20888C70.1893 6.20888 69.5099 6.8779 69.5099 7.70434C69.5099 8.53078 70.1893 9.20283 71.0246 9.20283C71.86 9.20283 72.5362 8.5338 72.5362 7.70434C72.5362 6.8779 71.86 6.20888 71.0246 6.20888ZM89.5068 13.2836C88.6714 13.2836 88.0227 12.6206 88.0227 11.8153C88.0227 11.0101 88.6806 10.338 89.5159 10.338C90.3513 10.338 91 11.001 91 11.8063C91 12.6115 90.3391 13.2836 89.5068 13.2836ZM89.5159 10.4834C88.754 10.4834 88.1787 11.0827 88.1787 11.8153C88.1787 12.5479 88.7509 13.1382 89.5068 13.1382C90.2656 13.1382 90.8439 12.5419 90.8439 11.8063C90.8439 11.0737 90.2717 10.4834 89.5159 10.4834ZM89.8433 11.9576L90.2626 12.5389H89.9076L89.5282 12.0061H89.2038V12.5389H88.907V10.998H89.6016C89.9627 10.998 90.2014 11.1826 90.2014 11.4884C90.2075 11.7427 90.0575 11.8971 89.8433 11.9576ZM89.5924 11.2614H89.2069V11.7487H89.5924C89.7852 11.7487 89.9015 11.6549 89.9015 11.5035C89.9015 11.3461 89.7852 11.2614 89.5924 11.2614Z" fill="#9B9BCC"></path></svg>