<svg xmlns="http://www.w3.org/2000/svg" width="40" height="40" viewBox="0 0 40 40" fill="none"><rect width="40" height="40" rx="4" fill="#CBF3E7"></rect><path d="M16 22.625C16 23.2812 16.4688 23.75 17.125 23.75H25V29.75C25 31.0156 23.9688 32 22.75 32H9.25C7.98438 32 7 31.0156 7 29.75V10.25C7 9.03125 7.98438 8 9.25 8H17.5V14C17.5 14.8438 18.1562 15.5 19 15.5H25V21.5H17.125C16.4688 21.5 16 22.0156 16 22.625ZM19 8L25 14H19V8ZM33.625 21.8281C34.0938 22.2969 34.0938 23 33.625 23.4219L29.875 27.1719C29.4531 27.6406 28.75 27.6406 28.3281 27.1719C28.0938 26.9844 28 26.7031 28 26.375C28 26.0938 28.0938 25.8125 28.3281 25.625L30.1562 23.75H25V21.5H30.1562L28.2812 19.6719C27.8125 19.25 27.8125 18.5469 28.2812 18.0781C28.7031 17.6562 29.4062 17.6562 29.875 18.0781L33.625 21.8281Z" fill="#33B89F"></path></svg>