<svg xmlns="http://www.w3.org/2000/svg" width="50" height="50" viewBox="0 0 50 50" fill="none"><rect width="50" height="50" rx="4" fill="#EBA43B" fill-opacity="0.1"></rect><path d="M17.25 14.5H24.2344C25.0312 14.5 25.7812 14.8281 26.3438 15.3906L34.5938 23.6406C35.7656 24.8125 35.7656 26.7344 34.5938 27.9062L28.3594 34.1406C27.1875 35.3125 25.2656 35.3125 24.0938 34.1406L15.8438 25.8906C15.2812 25.3281 15 24.5781 15 23.7812V16.75C15 15.5312 15.9844 14.5 17.25 14.5ZM20.25 21.25C21.0469 21.25 21.75 20.5938 21.75 19.75C21.75 18.9531 21.0469 18.25 20.25 18.25C19.4062 18.25 18.75 18.9531 18.75 19.75C18.75 20.5938 19.4062 21.25 20.25 21.25Z" fill="#EBA43B"></path></svg>