<svg xmlns="http://www.w3.org/2000/svg" width="40" height="40" viewBox="0 0 40 40" fill="none"><rect width="40" height="40" rx="4" fill="#E6E5FF"></rect><path d="M30.9688 9.92188C32 10.9531 32 12.5938 30.9688 13.625L29.5625 15.0312L24.9688 10.4375L26.375 9.03125C27.4062 8 29.0469 8 30.0781 9.03125L30.9688 9.92188ZM16.0625 19.3438L23.8906 11.5156L28.4844 16.1094L20.6562 23.9375C20.375 24.2188 20 24.4531 19.625 24.5938L15.4531 25.9531C15.0312 26.0938 14.6094 26 14.3281 25.6719C14 25.3906 13.9062 24.9219 14.0469 24.5469L15.4062 20.375C15.5469 20 15.7812 19.625 16.0625 19.3438ZM17 11C17.7969 11 18.5 11.7031 18.5 12.5C18.5 13.3438 17.7969 14 17 14H12.5C11.6562 14 11 14.7031 11 15.5V27.5C11 28.3438 11.6562 29 12.5 29H24.5C25.2969 29 26 28.3438 26 27.5V23C26 22.2031 26.6562 21.5 27.5 21.5C28.2969 21.5 29 22.2031 29 23V27.5C29 29.9844 26.9844 32 24.5 32H12.5C9.96875 32 8 29.9844 8 27.5V15.5C8 13.0156 9.96875 11 12.5 11H17Z" fill="#3F3EED"></path></svg>