<svg xmlns="http://www.w3.org/2000/svg" width="70" height="70" viewBox="0 0 70 70" fill="none"><g filter="url(#filter0_d_56_791)"><g filter="url(#filter1_d_56_791)"><rect x="10" y="6" width="50" height="50" rx="4" fill="#CBF3E7"></rect></g><path d="M40.375 30.75C40.375 32.8594 38.6758 34.5 36.625 34.5L27.3672 34.5586L22.5039 38.1914C22.1523 38.4258 21.625 38.1914 21.625 37.7227V34.5586L19.75 34.5C17.6406 34.5 16 32.8594 16 30.75V19.5C16 17.4492 17.6406 15.75 19.75 15.75H36.625C38.6758 15.75 40.375 17.4492 40.375 19.5V30.75ZM49.75 23.25C51.8008 23.25 53.5 24.9492 53.5 27V38.3086C53.5 40.3594 51.8008 42 49.75 42H47.875V45.2227C47.875 45.6914 47.2891 45.9258 46.8789 45.6328L42.0156 42H34.6914C32.6406 42 31 40.3594 31 38.25V36.375H36.625C39.6719 36.375 42.25 33.8555 42.25 30.75V23.25H49.75Z" fill="#33B89F"></path></g><defs><filter id="filter0_d_56_791" x="6" y="6" width="58" height="58" filterUnits="userSpaceOnUse" color-interpolation-filters="sRGB"><feGaussianBlur stdDeviation="2"></feGaussianBlur></filter><filter id="filter1_d_56_791" x="0" y="0" width="70" height="70" filterUnits="userSpaceOnUse" color-interpolation-filters="sRGB"><feGaussianBlur stdDeviation="5"></feGaussianBlur></filter></defs></svg>