<svg xmlns="http://www.w3.org/2000/svg" width="50" height="50" viewBox="0 0 50 50" fill="none"><rect width="50" height="50" rx="4" fill="#E331D2" fill-opacity="0.1"></rect><path d="M13 17.5C13 15.8594 14.3125 14.5 16 14.5H34C35.6406 14.5 37 15.8594 37 17.5V32.5C37 34.1875 35.6406 35.5 34 35.5H16C14.3125 35.5 13 34.1875 13 32.5V17.5ZM17.5 20.5C18.2969 20.5 19 19.8438 19 19C19 18.2031 18.2969 17.5 17.5 17.5C16.6562 17.5 16 18.2031 16 19C16 19.8438 16.6562 20.5 17.5 20.5ZM34 19C34 18.3906 33.4844 17.875 32.875 17.875H21.625C20.9688 17.875 20.5 18.3906 20.5 19C20.5 19.6562 20.9688 20.125 21.625 20.125H32.875C33.4844 20.125 34 19.6562 34 19Z" fill="#E331D2"></path></svg>