<svg xmlns="http://www.w3.org/2000/svg" width="70" height="70" viewBox="0 0 70 70" fill="none"><g filter="url(#filter0_d_56_800)"><rect x="10" y="6" width="50" height="50" rx="4" fill="#FFE6FE"></rect></g><path d="M20 21.375C20 19.3242 21.6406 17.625 23.75 17.625H46.25C48.3008 17.625 50 19.3242 50 21.375V40.125C50 42.2344 48.3008 43.875 46.25 43.875H23.75C21.6406 43.875 20 42.2344 20 40.125V21.375ZM25.625 25.125C26.6211 25.125 27.5 24.3047 27.5 23.25C27.5 22.2539 26.6211 21.375 25.625 21.375C24.5703 21.375 23.75 22.2539 23.75 23.25C23.75 24.3047 24.5703 25.125 25.625 25.125ZM46.25 23.25C46.25 22.4883 45.6055 21.8438 44.8438 21.8438H30.7812C29.9609 21.8438 29.375 22.4883 29.375 23.25C29.375 24.0703 29.9609 24.6562 30.7812 24.6562H44.8438C45.6055 24.6562 46.25 24.0703 46.25 23.25Z" fill="#E331D2"></path><defs><filter id="filter0_d_56_800" x="0" y="0" width="70" height="70" filterUnits="userSpaceOnUse" color-interpolation-filters="sRGB"><feGaussianBlur stdDeviation="5"></feGaussianBlur></filter></defs></svg>