<svg xmlns="http://www.w3.org/2000/svg" width="50" height="50" viewBox="0 0 50 50" fill="none"><rect width="50" height="50" rx="4" fill="#33B89F" fill-opacity="0.1"></rect><path d="M29.5 25C29.5 26.6875 28.1406 28 26.5 28L19.0938 28.0469L15.2031 30.9531C14.9219 31.1406 14.5 30.9531 14.5 30.5781V28.0469L13 28C11.3125 28 10 26.6875 10 25V16C10 14.3594 11.3125 13 13 13H26.5C28.1406 13 29.5 14.3594 29.5 16V25ZM37 19C38.6406 19 40 20.3594 40 22V31.0469C40 32.6875 38.6406 34 37 34H35.5V36.5781C35.5 36.9531 35.0312 37.1406 34.7031 36.9062L30.8125 34H24.9531C23.3125 34 22 32.6875 22 31V29.5H26.5C28.9375 29.5 31 27.4844 31 25V19H37Z" fill="#33B89F"></path></svg>