<svg xmlns="http://www.w3.org/2000/svg" width="50" height="50" viewBox="0 0 50 50" fill="none"><rect width="50" height="50" rx="4" fill="#5584FF" fill-opacity="0.1"></rect><path d="M21.75 24.1562L22.7344 26.125H20.7188L21.75 24.1562ZM31.5 26.125C31.5 26.7812 30.9844 27.25 30.375 27.25C29.7188 27.25 29.25 26.7812 29.25 26.125C29.25 25.5156 29.7188 25 30.375 25C30.9844 25 31.5 25.5156 31.5 26.125ZM36 14.5C37.6406 14.5 39 15.8594 39 17.5V32.5C39 34.1875 37.6406 35.5 36 35.5H15C13.3125 35.5 12 34.1875 12 32.5V17.5C12 15.8594 13.3125 14.5 15 14.5H36ZM22.7344 21.1562C22.5469 20.7812 22.1719 20.5 21.75 20.5C21.2812 20.5 20.9062 20.7812 20.7188 21.1562L17.3438 27.9062C17.0625 28.4688 17.2969 29.125 17.8594 29.4062C18.4219 29.6875 19.0781 29.4531 19.3594 28.8906L19.5938 28.375H23.8594L24.0938 28.8906C24.375 29.4531 25.0312 29.6875 25.5938 29.4062C26.1562 29.125 26.3906 28.4688 26.1094 27.9062L22.7344 21.1562ZM31.5 22.9844C31.125 22.8438 30.75 22.75 30.375 22.75C28.5 22.75 27 24.2969 27 26.125C27 28 28.5 29.5 30.375 29.5C30.8906 29.5 31.3594 29.4062 31.8281 29.1719C32.0156 29.4062 32.2969 29.5 32.625 29.5C33.2344 29.5 33.75 29.0312 33.75 28.375V21.625C33.75 21.0156 33.2344 20.5 32.625 20.5C31.9688 20.5 31.5 21.0156 31.5 21.625V22.9844Z" fill="#5585FF"></path></svg>