<svg xmlns="http://www.w3.org/2000/svg" width="50" height="50" viewBox="0 0 50 50" fill="none"><rect width="50" height="50" rx="4" fill="#2A85C8" fill-opacity="0.1"></rect><path d="M13 14.125C13 13.5156 13.4688 13 14.125 13H17.5C18.0156 13 18.4844 13.4219 18.5781 13.9375L18.6719 14.5H38.3594C39.3438 14.5 40.0938 15.4844 39.8125 16.4219L37.2812 25.4219C37.0938 26.0781 36.5312 26.5 35.8281 26.5H20.9688L21.3906 28.75H35.875C36.4844 28.75 37 29.2656 37 29.875C37 30.5312 36.4844 31 35.875 31H20.4531C19.9375 31 19.4688 30.625 19.375 30.1094L16.5625 15.25H14.125C13.4688 15.25 13 14.7812 13 14.125ZM23.5 34.75C23.5 36.0156 22.4688 37 21.25 37C19.9844 37 19 36.0156 19 34.75C19 33.5312 19.9844 32.5 21.25 32.5C22.4688 32.5 23.5 33.5312 23.5 34.75ZM32.5 34.75C32.5 33.5312 33.4844 32.5 34.75 32.5C35.9688 32.5 37 33.5312 37 34.75C37 36.0156 35.9688 37 34.75 37C33.4844 37 32.5 36.0156 32.5 34.75ZM14.875 17.5C15.4844 17.5 16 18.0156 16 18.625C16 19.2812 15.4844 19.75 14.875 19.75H11.125C10.4688 19.75 10 19.2812 10 18.625C10 18.0156 10.4688 17.5 11.125 17.5H14.875ZM15.625 21.25C16.2344 21.25 16.75 21.7656 16.75 22.375C16.75 23.0312 16.2344 23.5 15.625 23.5H11.125C10.4688 23.5 10 23.0312 10 22.375C10 21.7656 10.4688 21.25 11.125 21.25H15.625ZM16.375 25C16.9844 25 17.5 25.5156 17.5 26.125C17.5 26.7812 16.9844 27.25 16.375 27.25H11.125C10.4688 27.25 10 26.7812 10 26.125C10 25.5156 10.4688 25 11.125 25H16.375Z" fill="#2A85C8"></path></svg>