<svg xmlns="http://www.w3.org/2000/svg" width="70" height="70" viewBox="0 0 70 70" fill="none"><g filter="url(#filter0_d_56_794)"><rect x="10" y="6" width="50" height="50" rx="4" fill="#E1F1FF"></rect></g><path d="M19.75 17.1562C19.75 16.3945 20.3359 15.75 21.1562 15.75H25.375C26.0195 15.75 26.6055 16.2773 26.7227 16.9219L26.8398 17.625H51.4492C52.6797 17.625 53.6172 18.8555 53.2656 20.0273L50.1016 31.2773C49.8672 32.0977 49.1641 32.625 48.2852 32.625H29.7109L30.2383 35.4375H48.3438C49.1055 35.4375 49.75 36.082 49.75 36.8438C49.75 37.6641 49.1055 38.25 48.3438 38.25H29.0664C28.4219 38.25 27.8359 37.7812 27.7188 37.1367L24.2031 18.5625H21.1562C20.3359 18.5625 19.75 17.9766 19.75 17.1562ZM32.875 42.9375C32.875 44.5195 31.5859 45.75 30.0625 45.75C28.4805 45.75 27.25 44.5195 27.25 42.9375C27.25 41.4141 28.4805 40.125 30.0625 40.125C31.5859 40.125 32.875 41.4141 32.875 42.9375ZM44.125 42.9375C44.125 41.4141 45.3555 40.125 46.9375 40.125C48.4609 40.125 49.75 41.4141 49.75 42.9375C49.75 44.5195 48.4609 45.75 46.9375 45.75C45.3555 45.75 44.125 44.5195 44.125 42.9375ZM22.0938 21.375C22.8555 21.375 23.5 22.0195 23.5 22.7812C23.5 23.6016 22.8555 24.1875 22.0938 24.1875H17.4062C16.5859 24.1875 16 23.6016 16 22.7812C16 22.0195 16.5859 21.375 17.4062 21.375H22.0938ZM23.0312 26.0625C23.793 26.0625 24.4375 26.707 24.4375 27.4688C24.4375 28.2891 23.793 28.875 23.0312 28.875H17.4062C16.5859 28.875 16 28.2891 16 27.4688C16 26.707 16.5859 26.0625 17.4062 26.0625H23.0312ZM23.9688 30.75C24.7305 30.75 25.375 31.3945 25.375 32.1562C25.375 32.9766 24.7305 33.5625 23.9688 33.5625H17.4062C16.5859 33.5625 16 32.9766 16 32.1562C16 31.3945 16.5859 30.75 17.4062 30.75H23.9688Z" fill="#2A85C8"></path><defs><filter id="filter0_d_56_794" x="0" y="0" width="70" height="70" filterUnits="userSpaceOnUse" color-interpolation-filters="sRGB"><feGaussianBlur stdDeviation="5"></feGaussianBlur></filter></defs></svg>