<svg xmlns="http://www.w3.org/2000/svg" width="40" height="40" viewBox="0 0 40 40" fill="none"><rect width="40" height="40" rx="4" fill="#BDE3FF" fill-opacity="0.4"></rect><path d="M30.5 9.5C31.2969 9.5 32 10.2031 32 11V27.5C32 29.1875 30.6406 30.5 29 30.5H11C9.3125 30.5 8 29.1875 8 27.5V14C8 13.2031 8.65625 12.5 9.5 12.5H11V26.75C11 27.1719 11.3281 27.5 11.75 27.5C12.125 27.5 12.5 27.1719 12.5 26.75V11C12.5 10.2031 13.1562 9.5 14 9.5H30.5ZM20.75 27.5C21.125 27.5 21.5 27.1719 21.5 26.75C21.5 26.375 21.125 26 20.75 26H16.25C15.8281 26 15.5 26.375 15.5 26.75C15.5 27.1719 15.8281 27.5 16.25 27.5H20.75ZM20.75 23C21.125 23 21.5 22.6719 21.5 22.25C21.5 21.875 21.125 21.5 20.75 21.5H16.25C15.8281 21.5 15.5 21.875 15.5 22.25C15.5 22.6719 15.8281 23 16.25 23H20.75ZM28.25 27.5C28.625 27.5 29 27.1719 29 26.75C29 26.375 28.625 26 28.25 26H23.75C23.3281 26 23 26.375 23 26.75C23 27.1719 23.3281 27.5 23.75 27.5H28.25ZM28.25 23C28.625 23 29 22.6719 29 22.25C29 21.875 28.625 21.5 28.25 21.5H23.75C23.3281 21.5 23 21.875 23 22.25C23 22.6719 23.3281 23 23.75 23H28.25ZM29 17.75V13.25C29 12.875 28.625 12.5 28.25 12.5H16.25C15.8281 12.5 15.5 12.875 15.5 13.25V17.75C15.5 18.1719 15.8281 18.5 16.25 18.5H28.25C28.625 18.5 29 18.1719 29 17.75Z" fill="#083A5E"></path></svg>