<svg xmlns="http://www.w3.org/2000/svg" width="23" height="14" viewBox="0 0 23 14" fill="none"><path d="M15.75 4.01562C16.1367 4.01562 16.4531 4.33203 16.4531 4.71875V4.85938H18.5625C18.9492 4.85938 19.2656 5.17578 19.2656 5.5625C19.2656 5.94922 18.9492 6.26562 18.5625 6.26562H18.4922L18.4219 6.44141C18.1055 7.28516 17.6133 8.09375 17.0156 8.72656C17.0508 8.76172 17.0859 8.76172 17.1211 8.79688L17.7891 9.18359C18.1055 9.39453 18.2109 9.81641 18.0352 10.168C17.8242 10.4844 17.4023 10.5898 17.0508 10.4141L16.3828 9.99219C16.2422 9.92188 16.0664 9.81641 15.9258 9.71094C15.5742 9.95703 15.1523 10.2031 14.7305 10.3789L14.625 10.4492C14.2734 10.5898 13.8516 10.4492 13.6758 10.0977C13.5352 9.71094 13.6758 9.32422 14.0273 9.14844L14.168 9.11328C14.3789 9.00781 14.625 8.86719 14.8359 8.76172L14.3789 8.33984C14.1328 8.05859 14.1328 7.60156 14.3789 7.32031C14.6602 7.03906 15.1172 7.03906 15.3984 7.32031L15.8906 7.84766H15.9258C16.3477 7.39062 16.6992 6.86328 16.9805 6.26562H13.2188C12.7969 6.26562 12.5156 5.94922 12.5156 5.5625C12.5156 5.17578 12.7969 4.85938 13.2188 4.85938H15.0469V4.71875C15.0469 4.33203 15.3281 4.01562 15.75 4.01562ZM5.625 6.47656L6.29297 7.95312H4.92188L5.625 6.47656ZM0 2.75C0 1.51953 0.984375 0.5 2.25 0.5H20.25C21.4805 0.5 22.5 1.51953 22.5 2.75V11.75C22.5 13.0156 21.4805 14 20.25 14H2.25C0.984375 14 0 13.0156 0 11.75V2.75ZM11.25 11.75H20.25V2.75H11.25V11.75ZM6.25781 4.4375C6.15234 4.19141 5.87109 4.01562 5.625 4.01562C5.34375 4.01562 5.0625 4.19141 4.95703 4.4375L2.70703 9.5C2.56641 9.85156 2.70703 10.2734 3.05859 10.4492C3.41016 10.5898 3.83203 10.4492 4.00781 10.0977L4.32422 9.35938H6.89062L7.20703 10.0977C7.38281 10.4492 7.80469 10.5898 8.15625 10.4492C8.50781 10.2734 8.64844 9.85156 8.50781 9.5L6.25781 4.4375Z" fill="#083A5E"></path></svg>