<svg xmlns="http://www.w3.org/2000/svg" width="27" height="22" viewBox="0 0 27 22" fill="none"><path d="M27 2V20C27 20.8438 26.2969 21.5 25.5 21.5C24.6562 21.5 24 20.8438 24 20V2C24 1.20312 24.6562 0.5 25.5 0.5C26.2969 0.5 27 1.20312 27 2ZM2.95312 7.95312L22.5 2V20L16.3125 18.1719C15.8438 20.0938 14.0625 21.5 12 21.5C9.46875 21.5 7.5 19.4844 7.5 17C7.5 16.4844 7.54688 16.0156 7.73438 15.5469L2.95312 14.0938C2.95312 14.8906 2.29688 15.5 1.5 15.5C0.65625 15.5 0 14.8438 0 14V8C0 7.20312 0.65625 6.5 1.5 6.5C2.29688 6.5 2.95312 7.15625 2.95312 7.95312ZM14.1562 17.5156L9.89062 16.2031C9.79688 16.4375 9.75 16.7188 9.75 17C9.75 18.2656 10.7344 19.25 12 19.25C13.0312 19.25 13.9688 18.5 14.1562 17.5156Z" fill="#3F3EED"></path></svg>