<svg xmlns="http://www.w3.org/2000/svg" width="38" height="31" viewBox="0 0 38 31" fill="none"><path d="M24.375 15.75C24.375 17.8594 22.6758 19.5 20.625 19.5L11.3672 19.5586L6.50391 23.1914C6.15234 23.4258 5.625 23.1914 5.625 22.7227V19.5586L3.75 19.5C1.64062 19.5 0 17.8594 0 15.75V4.5C0 2.44922 1.64062 0.75 3.75 0.75H20.625C22.6758 0.75 24.375 2.44922 24.375 4.5V15.75ZM33.75 8.25C35.8008 8.25 37.5 9.94922 37.5 12V23.3086C37.5 25.3594 35.8008 27 33.75 27H31.875V30.2227C31.875 30.6914 31.2891 30.9258 30.8789 30.6328L26.0156 27H18.6914C16.6406 27 15 25.3594 15 23.25V21.375H20.625C23.6719 21.375 26.25 18.8555 26.25 15.75V8.25H33.75Z" fill="#083A5E"></path></svg>