<svg xmlns="http://www.w3.org/2000/svg" width="23" height="17" viewBox="0 0 23 17" fill="none"><path d="M18 0.5C19.2305 0.5 20.25 1.51953 20.25 2.75V5.03516C19.6875 5.10547 19.1953 5.35156 18.7734 5.77344L12.4102 12.1367C12.1289 12.418 11.918 12.7695 11.8125 13.1914L11.6016 14H2.25C0.984375 14 0 13.0156 0 11.75V2.75C0 1.51953 0.984375 0.5 2.25 0.5H18ZM3.9375 8.375C3.62109 8.375 3.375 8.65625 3.375 8.9375C3.375 9.25391 3.62109 9.5 3.9375 9.5H11.8125C12.0938 9.5 12.375 9.25391 12.375 8.9375C12.375 8.65625 12.0938 8.375 11.8125 8.375H3.9375ZM3.9375 6.125H15.1875C15.4688 6.125 15.75 5.87891 15.75 5.5625C15.75 5.28125 15.4688 5 15.1875 5H3.9375C3.62109 5 3.375 5.28125 3.375 5.5625C3.375 5.87891 3.62109 6.125 3.9375 6.125ZM22.0781 7.07422C22.6055 7.60156 22.6055 8.48047 22.0781 9.04297L21.0234 10.0977L18.5273 7.60156L19.582 6.54688C20.1094 6.01953 21.0234 6.01953 21.5508 6.54688L22.0781 7.07422ZM13.1836 12.9102L17.7539 8.375L20.25 10.8711L15.6797 15.4062C15.5391 15.5469 15.3633 15.6523 15.1875 15.7227L13.043 16.25C12.8672 16.2852 12.6562 16.25 12.5156 16.1094C12.375 15.9688 12.3398 15.7578 12.375 15.5469L12.9023 13.4375C12.9375 13.2617 13.043 13.0859 13.1836 12.9102Z" fill="#083A5E"></path></svg>