<svg xmlns="http://www.w3.org/2000/svg" width="24" height="22" viewBox="0 0 24 22" fill="none"><path d="M22.5 0.5C23.2969 0.5 24 1.20312 24 2V18.5C24 20.1875 22.6406 21.5 21 21.5H3C1.3125 21.5 0 20.1875 0 18.5V5C0 4.20312 0.65625 3.5 1.5 3.5H3V17.75C3 18.1719 3.32812 18.5 3.75 18.5C4.125 18.5 4.5 18.1719 4.5 17.75V2C4.5 1.20312 5.15625 0.5 6 0.5H22.5ZM12.75 18.5C13.125 18.5 13.5 18.1719 13.5 17.75C13.5 17.375 13.125 17 12.75 17H8.25C7.82812 17 7.5 17.375 7.5 17.75C7.5 18.1719 7.82812 18.5 8.25 18.5H12.75ZM12.75 14C13.125 14 13.5 13.6719 13.5 13.25C13.5 12.875 13.125 12.5 12.75 12.5H8.25C7.82812 12.5 7.5 12.875 7.5 13.25C7.5 13.6719 7.82812 14 8.25 14H12.75ZM20.25 18.5C20.625 18.5 21 18.1719 21 17.75C21 17.375 20.625 17 20.25 17H15.75C15.3281 17 15 17.375 15 17.75C15 18.1719 15.3281 18.5 15.75 18.5H20.25ZM20.25 14C20.625 14 21 13.6719 21 13.25C21 12.875 20.625 12.5 20.25 12.5H15.75C15.3281 12.5 15 12.875 15 13.25C15 13.6719 15.3281 14 15.75 14H20.25ZM21 8.75V4.25C21 3.875 20.625 3.5 20.25 3.5H8.25C7.82812 3.5 7.5 3.875 7.5 4.25V8.75C7.5 9.17188 7.82812 9.5 8.25 9.5H20.25C20.625 9.5 21 9.17188 21 8.75Z" fill="#3F3EED"></path></svg>