<svg xmlns="http://www.w3.org/2000/svg" width="19" height="19" viewBox="0 0 19 19" fill="none"><path d="M1.63281 12.625L5.46484 10.9727C5.92188 10.7969 6.44922 10.9023 6.73047 11.2891L8.27734 13.1875C10.7383 11.9922 12.707 10.0234 13.9023 7.5625L12.0039 6.01562C11.6172 5.73438 11.5117 5.20703 11.6875 4.75L13.3398 0.917969C13.5508 0.460938 14.0781 0.179688 14.5703 0.285156L18.1211 1.12891C18.6484 1.23438 18.9648 1.65625 18.9648 2.18359C18.9648 11.043 11.7578 18.2852 2.89844 18.2852C2.37109 18.2852 1.94922 17.9336 1.84375 17.4062L1 13.8906C0.894531 13.3633 1.17578 12.8359 1.63281 12.625Z" fill="#083A5E"></path></svg>