<svg xmlns="http://www.w3.org/2000/svg" width="38" height="31" viewBox="0 0 38 31" fill="none"><path d="M20.625 26.0625V23.25H30V27.9375C30 29.5195 28.7109 30.75 27.1875 30.75H2.8125C1.23047 30.75 0 29.5195 0 27.9375V11.0625C0 9.53906 1.23047 8.25 2.8125 8.25H9.375V26.0625C9.375 26.5898 9.78516 27 10.3125 27H19.6875C20.1562 27 20.625 26.5898 20.625 26.0625ZM6.09375 26.4727V24.7148C6.09375 24.4805 5.80078 24.1875 5.56641 24.1875H3.80859C3.51562 24.1875 3.28125 24.4805 3.28125 24.7148V26.4727C3.28125 26.7656 3.51562 27 3.80859 27H5.56641C5.80078 27 6.09375 26.7656 6.09375 26.4727ZM6.09375 20.3789V18.6211C6.09375 18.3867 5.80078 18.0938 5.56641 18.0938H3.80859C3.51562 18.0938 3.28125 18.3867 3.28125 18.6211V20.3789C3.28125 20.6719 3.51562 20.9062 3.80859 20.9062H5.56641C5.80078 20.9062 6.09375 20.6719 6.09375 20.3789ZM6.09375 14.2852V12.5273C6.09375 12.293 5.80078 12 5.56641 12H3.80859C3.51562 12 3.28125 12.2344 3.28125 12.5273V14.2852C3.28125 14.5781 3.51562 14.8125 3.80859 14.8125H5.56641C5.80078 14.8125 6.09375 14.5781 6.09375 14.2852ZM23.9062 24.7148V26.4727C23.9062 26.7656 24.1406 27 24.4336 27H26.1914C26.4258 27 26.7188 26.7656 26.7188 26.4727V24.7148C26.7188 24.4805 26.4258 24.1875 26.1914 24.1875H24.4336C24.1406 24.1875 23.9062 24.4805 23.9062 24.7148ZM34.6289 0.75C36.2109 0.75 37.5 2.03906 37.4414 3.5625V18.5625C37.4414 20.1445 36.1523 21.375 34.6289 21.375H14.0039C12.4219 21.375 11.1914 20.1445 11.1914 18.5625V3.5625C11.1914 2.03906 12.4805 0.75 14.0039 0.75H34.6289ZM17.7539 4.5C16.7578 4.5 15.8789 5.37891 15.8789 6.375C15.8789 7.42969 16.7578 8.25 17.7539 8.25C18.75 8.25 19.6289 7.42969 19.6289 6.375C19.6289 5.37891 18.75 4.5 17.7539 4.5ZM33.6328 17.1562C33.75 16.8633 33.75 16.4531 33.5742 16.2188L27.3047 6.84375C27.1289 6.55078 26.8359 6.375 26.543 6.375C26.1914 6.375 25.8984 6.55078 25.7227 6.84375L22.0312 12.3516L20.7422 10.5352C20.5664 10.3008 20.2734 10.125 19.9805 10.125C19.6875 10.125 19.4531 10.3008 19.2773 10.5352L15.1758 16.1602C14.9414 16.4531 14.9414 16.8047 15.0586 17.1562C15.2344 17.4492 15.5273 17.625 15.8789 17.625H32.8125C33.1055 17.625 33.457 17.4492 33.6328 17.1562Z" fill="#083A5E"></path></svg>