<svg xmlns="http://www.w3.org/2000/svg" width="20" height="19" viewBox="0 0 20 19" fill="none"><path d="M12.6367 8.16016C12.3555 8.16016 12.0742 8.19531 11.793 8.26562L8.875 5.34766C8.875 5.06641 8.875 4.78516 8.91016 4.50391C9.22656 2.53516 10.7383 0.882812 12.707 0.425781C13.5508 0.214844 14.3594 0.214844 15.0977 0.390625C15.4844 0.496094 15.625 0.988281 15.3438 1.26953L12.918 3.69531V6.29688H15.5547L17.9805 3.90625C18.2617 3.625 18.7539 3.73047 18.8594 4.11719C19.0352 4.85547 19.0352 5.69922 18.8242 6.54297C18.4727 8.05469 17.3828 9.28516 15.9766 9.91797L15.2734 9.25C14.5703 8.54688 13.6562 8.16016 12.6367 8.16016ZM14.5 10.0586L18.6133 14.1016C19.1055 14.6289 19.1055 15.4727 18.6133 15.9648L16.75 17.8281C16.2227 18.3203 15.4141 18.3203 14.8867 17.8281L10.7734 13.7148C9.96484 12.9062 9.82422 11.6758 10.2812 10.6914L6.55469 6.96484H4.375L1 2.5L3.25 0.25L7.71484 3.625V5.80469L11.4766 9.56641C12.4609 9.10938 13.6562 9.25 14.5 10.0586ZM8.98047 11.043C8.80469 11.8516 8.91016 12.6602 9.22656 13.3984L5.04297 17.582C4.58594 18.0391 3.95312 18.25 3.35547 18.25C2.75781 18.25 2.125 18.0391 1.66797 17.582C0.753906 16.6328 0.753906 15.1562 1.66797 14.207L6.90625 8.96875L8.98047 11.043ZM3.25 16.8438C3.70703 16.8438 4.09375 16.4922 4.09375 16C4.09375 15.543 3.70703 15.1562 3.25 15.1562C2.75781 15.1562 2.40625 15.543 2.40625 16C2.40625 16.4922 2.75781 16.8438 3.25 16.8438Z" fill="#083A5E"></path></svg>