<svg xmlns="http://www.w3.org/2000/svg" width="26" height="27" viewBox="0 0 26 27" fill="none"><path d="M2.8125 0.625H11.543C12.5391 0.625 13.4766 1.03516 14.1797 1.73828L24.4922 12.0508C25.957 13.5156 25.957 15.918 24.4922 17.3828L16.6992 25.1758C15.2344 26.6406 12.832 26.6406 11.3672 25.1758L1.05469 14.8633C0.351562 14.1602 0 13.2227 0 12.2266V3.4375C0 1.91406 1.23047 0.625 2.8125 0.625ZM6.5625 9.0625C7.55859 9.0625 8.4375 8.24219 8.4375 7.1875C8.4375 6.19141 7.55859 5.3125 6.5625 5.3125C5.50781 5.3125 4.6875 6.19141 4.6875 7.1875C4.6875 8.24219 5.50781 9.0625 6.5625 9.0625Z" fill="#083A5E"></path></svg>