<svg xmlns="http://www.w3.org/2000/svg" width="1210" height="390" viewBox="0 0 1210 390" fill="none"><path d="M905.181 465.252C907.402 466.949 909.597 468.698 911.766 470.472C913.573 471.475 915.355 472.478 917.136 473.532C913.212 470.652 909.235 467.875 905.181 465.252ZM895.911 459.543C898.7 461.806 901.437 464.095 904.174 466.435C906.188 467.438 908.177 468.466 910.165 469.546C907.531 467.438 904.897 465.38 902.212 463.349C900.12 462.063 898.029 460.803 895.911 459.543ZM888.346 453.603C890.334 455.12 892.322 456.688 894.285 458.257C895.808 459.131 897.332 460.006 898.829 460.932C895.395 458.411 891.909 455.943 888.346 453.603ZM872.543 442.57C874.222 443.856 875.9 445.168 877.553 446.479C878.87 447.251 880.186 448.048 881.503 448.845C880.419 448.048 879.308 447.251 878.224 446.479C876.339 445.142 874.428 443.856 872.543 442.57ZM1016.91 591.235C1014.74 588.972 1012.6 586.683 1010.43 584.42C1014.61 589.204 1018.79 593.987 1022.98 598.718C1020.96 596.224 1018.92 593.73 1016.91 591.235ZM1028.97 603.733C1025.84 600.544 1022.74 597.33 1019.65 594.09C1022.46 597.536 1025.25 600.956 1028.04 604.376C1031.01 607.693 1033.98 610.985 1036.95 614.251C1034.29 610.754 1031.63 607.256 1028.97 603.733ZM882.071 452.111C885.351 454.965 888.63 457.871 891.883 460.829C893.433 461.472 894.982 462.115 896.505 462.809C893.355 460.031 890.205 457.28 887.003 454.605C885.402 453.757 883.75 452.934 882.071 452.111ZM857.696 432.155C859.039 433.184 860.382 434.213 861.698 435.267C862.628 435.833 863.532 436.373 864.461 436.938C862.215 435.318 859.968 433.724 857.696 432.155ZM992.638 564.387C990.469 562.202 988.3 560.016 986.156 557.83C990.391 562.433 994.652 567.036 998.886 571.614L995.091 567.242L992.638 564.387ZM1005.68 577.425C1002.42 574.185 999.144 570.945 995.891 567.679C998.912 571.151 1001.91 574.622 1004.93 578.094C1008.08 581.463 1011.2 584.78 1014.35 588.098L1010.71 583.623C1009.06 581.566 1007.36 579.483 1005.68 577.425ZM1018.54 590.001C1014.92 586.529 1011.33 583.006 1007.74 579.483L1010.97 583.443C1013.04 585.989 1015.08 588.509 1017.14 591.029C1020.58 594.63 1024.01 598.204 1027.44 601.727L1026.21 600.081C1023.65 596.713 1021.09 593.37 1018.54 590.001ZM1031.27 602.036C1027.5 598.538 1023.75 594.964 1020.01 591.364C1022.18 594.218 1024.32 597.047 1026.46 599.876L1029.23 603.502C1032.79 607.153 1036.35 610.754 1039.94 614.302C1037.05 610.239 1034.16 606.15 1031.27 602.036ZM857.36 433.004C860.149 435.293 862.938 437.581 865.701 439.947C866.966 440.616 868.257 441.259 869.522 441.953C866.863 439.767 864.203 437.633 861.518 435.55C860.149 434.65 858.755 433.801 857.36 433.004ZM849.588 426.755C851.706 428.426 853.797 430.098 855.914 431.795C857.076 432.464 858.238 433.132 859.4 433.827C857.231 432.155 855.062 430.509 852.893 428.864C851.783 428.169 850.673 427.449 849.588 426.755ZM844.76 423C845.457 423.54 846.154 424.055 846.826 424.595C847.419 424.955 847.987 425.34 848.555 425.726C847.29 424.8 846.025 423.9 844.76 423ZM965.835 536.203C963.692 534.145 961.575 532.062 959.432 530.005L963.64 534.325C966.481 537.257 969.321 540.163 972.161 543.069C970.07 540.806 967.953 538.517 965.835 536.203ZM980.088 549.935C976.654 546.643 973.22 543.352 969.76 540.034C973.013 543.583 976.293 547.106 979.546 550.655C982.877 554.05 986.208 557.444 989.539 560.813C986.389 557.187 983.239 553.561 980.088 549.935ZM994.006 563.102C990.185 559.527 986.389 555.927 982.567 552.301C986.027 556.261 989.462 560.221 992.896 564.182C996.537 567.859 1000.2 571.511 1003.84 575.163C1000.56 571.151 997.285 567.113 994.006 563.102ZM1007.64 575.703C1003.66 572.077 999.687 568.399 995.736 564.696C999.144 568.862 1002.55 573.028 1005.94 577.22C1009.73 580.974 1013.5 584.677 1017.3 588.355C1014.09 584.137 1010.87 579.92 1007.64 575.703ZM1021.12 587.815C1017.04 584.215 1012.98 580.589 1008.93 576.885C1012.24 581.18 1015.52 585.475 1018.77 589.769C1022.62 593.472 1026.49 597.15 1030.36 600.776C1027.32 596.481 1024.24 592.135 1021.12 587.815ZM1034.57 599.464C1030.44 595.967 1026.31 592.392 1022.18 588.766C1025.3 593.112 1028.4 597.484 1031.5 601.856C1035.42 605.508 1039.35 609.108 1043.27 612.631C1040.41 608.233 1037.49 603.836 1034.57 599.464ZM951.504 520.799C947.838 517.43 944.197 514.061 940.53 510.692C944.094 514.318 947.683 517.97 951.246 521.622C954.81 525.093 958.373 528.565 961.936 532.011C958.476 528.256 954.99 524.527 951.504 520.799ZM966.791 534.788C962.711 531.085 958.631 527.356 954.551 523.627C958.399 527.742 962.246 531.882 966.068 536.023C969.992 539.803 973.891 543.583 977.816 547.338C974.15 543.146 970.483 538.954 966.791 534.788ZM981.612 548.109C977.377 544.329 973.143 540.523 968.908 536.691C972.729 541.012 976.525 545.358 980.321 549.704C984.375 553.561 988.403 557.393 992.457 561.199C988.868 556.853 985.253 552.481 981.612 548.109ZM996.098 560.864C991.785 557.135 987.473 553.33 983.187 549.524C986.905 553.972 990.572 558.447 994.264 562.922C998.37 566.753 1002.48 570.559 1006.58 574.314C1003.1 569.814 999.609 565.313 996.098 560.864ZM1010.4 573.054C1006.04 569.402 1001.7 565.673 997.363 561.919C1000.9 566.419 1004.41 570.945 1007.9 575.497C1012.03 579.277 1016.19 583.006 1020.34 586.683C1017.04 582.132 1013.73 577.58 1010.4 573.054ZM1024.58 584.755C1020.19 581.206 1015.8 577.606 1011.41 573.928C1014.74 578.48 1018.07 583.032 1021.35 587.609C1025.53 591.286 1029.72 594.912 1033.9 598.487C1030.85 593.91 1027.73 589.306 1024.58 584.755ZM931.183 502.052L929.505 500.509C933.61 504.495 937.742 508.481 941.847 512.492C939.73 510.358 937.638 508.224 935.521 506.089L931.183 502.052ZM935.883 504.34C931.441 500.432 927 496.523 922.559 492.614C926.974 496.986 931.39 501.409 935.779 505.858C940.04 509.818 944.326 513.752 948.587 517.687C944.352 513.212 940.117 508.764 935.883 504.34ZM952.357 518.716C947.76 514.73 943.19 510.744 938.594 506.732C942.983 511.335 947.373 515.938 951.737 520.593C956.101 524.605 960.49 528.616 964.854 532.602C960.697 527.948 956.54 523.319 952.357 518.716ZM968.211 532.319C963.589 528.385 958.967 524.425 954.345 520.439C958.605 525.119 962.814 529.825 967.023 534.583C971.413 538.568 975.828 542.555 980.243 546.489C976.241 541.732 972.239 537 968.211 532.319ZM983.6 545.255C978.952 541.423 974.33 537.54 969.708 533.605C973.762 538.337 977.816 543.12 981.818 547.903C986.234 551.812 990.624 555.695 995.039 559.553C991.269 554.744 987.473 549.986 983.6 545.255ZM998.757 557.598C994.109 553.87 989.487 550.089 984.865 546.283C988.713 551.041 992.534 555.824 996.33 560.659C1000.75 564.49 1005.16 568.271 1009.6 571.999C1006.01 567.165 1002.4 562.356 998.757 557.598ZM1013.71 569.376C1009.06 565.802 1004.41 562.15 999.79 558.447C1003.43 563.205 1007.05 568.013 1010.63 572.874C1015.08 576.603 1019.49 580.254 1023.96 583.855C1020.58 578.968 1017.17 574.16 1013.71 569.376ZM914.89 485.85C912.127 483.407 909.39 480.99 906.627 478.547C910.681 482.379 914.709 486.236 918.763 490.094C922.636 493.668 926.51 497.268 930.383 500.843C926.406 496.857 922.456 492.897 918.453 488.962L914.89 485.85ZM883.543 457.897C886.125 460.134 888.707 462.397 891.289 464.66C888.914 462.475 886.538 460.289 884.137 458.129C883.93 458.051 883.75 457.974 883.543 457.897ZM918.04 486.185C912.85 481.839 907.686 477.467 902.522 473.121C907.918 478.264 913.315 483.485 918.66 488.782C923.514 493.077 928.395 497.371 933.249 501.64C928.214 496.42 923.153 491.277 918.04 486.185ZM936.115 501.28C931.002 497.037 925.916 492.794 920.829 488.525C925.967 493.668 931.054 498.889 936.115 504.16C940.918 508.378 945.746 512.595 950.549 516.761C945.772 511.515 940.944 506.346 936.115 501.28ZM953.234 515.347C948.199 511.258 943.164 507.118 938.155 502.952C943.009 508.069 947.812 513.264 952.589 518.51C957.34 522.625 962.117 526.739 966.894 530.802C962.375 525.582 957.831 520.439 953.234 515.347ZM969.682 528.591C964.699 524.63 959.741 520.644 954.784 516.607C959.38 521.699 963.924 526.868 968.417 532.088C973.143 536.1 977.842 540.06 982.567 543.995C978.333 538.8 974.046 533.657 969.682 528.591ZM985.743 541.166C980.811 537.36 975.88 533.502 970.974 529.619C975.312 534.685 979.598 539.829 983.833 545.049C988.532 548.932 993.231 552.764 997.931 556.57C993.929 551.349 989.875 546.232 985.743 541.166ZM1001.52 553.124C996.614 549.472 991.708 545.769 986.828 542.014C990.933 547.081 994.987 552.198 998.964 557.393C1003.64 561.147 1008.34 564.85 1013.04 568.502C1009.27 563.282 1005.44 558.164 1001.52 553.124ZM871.226 446.788C868.025 444.113 864.823 441.439 861.621 438.79C864.59 441.336 867.56 443.933 870.529 446.505C870.762 446.582 870.994 446.685 871.226 446.788ZM875.616 450.465C874.428 449.462 873.215 448.459 872.027 447.456C871.769 447.353 871.51 447.225 871.226 447.122C873.395 449.025 875.539 450.928 877.708 452.831C879.438 454.323 881.168 455.84 882.898 457.331C883.104 457.408 883.311 457.486 883.543 457.563C880.884 455.171 878.25 452.805 875.616 450.465ZM884.499 457.923L882.872 456.56C883.337 456.997 883.827 457.434 884.292 457.846L884.499 457.923ZM886.074 458.849C888.733 461.086 891.419 463.349 894.104 465.612C891.832 463.477 889.534 461.369 887.261 459.286C886.848 459.131 886.461 458.977 886.074 458.849ZM875.797 450.208C878.973 452.882 882.175 455.557 885.351 458.231C885.764 458.386 886.177 458.54 886.616 458.694C883.104 455.505 879.592 452.342 876.081 449.256C875.177 448.845 874.273 448.434 873.37 448.048C874.17 448.768 874.996 449.488 875.797 450.208ZM861.001 437.864C862.68 439.253 864.384 440.667 866.062 442.082C864.513 440.744 862.938 439.382 861.389 438.044C861.259 437.993 861.13 437.941 861.001 437.864ZM850.131 428.915C853.436 431.615 856.741 434.367 860.046 437.093C860.201 437.17 860.33 437.221 860.485 437.298C857.386 434.65 854.262 432.027 851.138 429.455C850.828 429.275 850.466 429.095 850.131 428.915ZM840.68 421.2C843.443 423.438 846.18 425.675 848.943 427.938C849.278 428.118 849.614 428.298 849.95 428.478C847.29 426.292 844.631 424.132 841.945 421.997C841.532 421.715 841.119 421.457 840.68 421.2ZM833.089 415.054C835.077 416.648 837.065 418.243 839.027 419.837C839.337 420.017 839.647 420.197 839.957 420.377C837.814 418.68 835.671 417.008 833.528 415.337L833.089 415.054ZM935.366 496.317C929.815 491.971 924.289 487.573 918.737 483.176C924.65 488.988 930.512 494.954 936.322 501.049C941.486 505.318 946.65 509.586 951.814 513.804C946.418 507.863 940.944 502.026 935.366 496.317ZM953.286 510.229C947.915 506.115 942.544 501.949 937.174 497.757C942.674 503.415 948.07 509.226 953.441 515.141C958.476 519.256 963.537 523.319 968.598 527.356C963.589 521.519 958.476 515.81 953.286 510.229ZM970.483 523.216C965.241 519.307 960 515.347 954.758 511.361C959.896 516.916 964.931 522.599 969.915 528.385C974.898 532.345 979.882 536.254 984.865 540.111C980.166 534.351 975.389 528.719 970.483 523.216ZM987.189 535.431C982.025 531.728 976.861 527.948 971.722 524.116C976.577 529.594 981.328 535.225 986.002 540.96C990.933 544.766 995.891 548.521 1000.82 552.198C996.356 546.463 991.811 540.883 987.189 535.431ZM842.771 422.126C841.196 420.866 839.596 419.606 838.02 418.346C837.659 418.114 837.297 417.857 836.962 417.626C838.692 418.989 840.422 420.352 842.152 421.715C842.358 421.843 842.565 421.997 842.771 422.126ZM852.454 429.841C849.898 427.784 847.316 425.726 844.76 423.695C844.527 423.54 844.295 423.412 844.063 423.283C846.49 425.238 848.917 427.218 851.344 429.224C851.706 429.404 852.067 429.635 852.454 429.841ZM863.764 438.919C860.511 436.296 857.231 433.673 853.978 431.075C853.565 430.844 853.126 430.587 852.713 430.355C855.682 432.824 858.626 435.293 861.569 437.813C862.292 438.173 863.041 438.559 863.764 438.919ZM869.212 443.316C867.792 442.159 866.372 441.027 864.952 439.896C864.151 439.484 863.351 439.073 862.551 438.661C865.907 441.542 869.238 444.448 872.569 447.379C873.473 447.765 874.377 448.176 875.28 448.588C873.266 446.813 871.252 445.065 869.212 443.316ZM876.313 449.051L875.926 448.742L876.236 449.025L876.313 449.051ZM881.916 453.577L877.243 449.797C877.165 449.771 877.088 449.719 877.01 449.694C880.47 452.754 883.93 455.866 887.391 459.003C888.217 459.311 889.043 459.646 889.844 459.98C887.21 457.846 884.576 455.711 881.916 453.577ZM878.379 450.311L882.149 453.345C885.067 455.711 887.984 458.051 890.902 460.417L891.057 460.469C887.726 457.46 884.369 454.477 881.013 451.571C880.109 451.134 879.257 450.722 878.379 450.311ZM869.419 443.085C872.079 445.245 874.764 447.379 877.424 449.539C878.301 449.951 879.179 450.337 880.057 450.774C877.01 448.151 873.964 445.579 870.891 443.033C869.522 442.287 868.154 441.542 866.759 440.822C867.637 441.567 868.541 442.313 869.419 443.085ZM850.156 427.604C851.499 428.658 852.816 429.738 854.159 430.818L854.21 430.844C852.868 429.764 851.525 428.684 850.156 427.604ZM874.816 444.859C872.518 443.085 870.245 441.31 867.947 439.536C866.553 438.636 865.158 437.736 863.764 436.861C866.217 438.816 868.644 440.77 871.072 442.776C872.311 443.47 873.576 444.165 874.816 444.859ZM881.503 450.054C879.877 448.794 878.276 447.559 876.649 446.299C875.229 445.476 873.783 444.653 872.363 443.856C875.306 446.299 878.25 448.794 881.142 451.314C882.717 452.085 884.292 452.831 885.841 453.628C884.421 452.42 882.975 451.237 881.503 450.054ZM900.482 464.66C896.505 461.6 892.503 458.54 888.527 455.48C891.548 458.026 894.543 460.649 897.512 463.297C898.494 463.735 899.501 464.198 900.482 464.66ZM950.317 501.974C944.61 497.834 938.904 493.642 933.223 489.425C940.143 496.008 946.908 502.9 953.518 510.024C958.838 514.087 964.157 518.124 969.476 522.084C963.253 515.115 956.875 508.404 950.317 501.974ZM968.366 514.858C962.892 511.027 957.417 507.118 951.969 503.183C958.373 509.535 964.622 516.17 970.69 523.01C975.88 526.868 981.096 530.699 986.311 534.454C980.527 527.639 974.563 521.107 968.366 514.858ZM902.961 466.178C904.123 467.078 905.31 467.978 906.472 468.852C905.646 468.132 904.82 467.412 903.993 466.692C903.658 466.538 903.322 466.358 902.961 466.178ZM889.998 456.226C893.923 459.26 897.848 462.269 901.773 465.278C902.16 465.483 902.573 465.663 902.987 465.843C900.069 463.349 897.099 460.906 894.13 458.514C892.761 457.717 891.367 456.971 889.998 456.226ZM881.71 449.822C883.956 451.571 886.203 453.294 888.475 455.043C889.818 455.763 891.16 456.483 892.503 457.203C890.024 455.223 887.52 453.294 884.989 451.417C883.13 450.234 881.271 449.076 879.412 447.945C880.161 448.562 880.935 449.179 881.71 449.822ZM106.972 609.339C106.662 607.025 106.352 604.736 106.042 602.422C106.429 606.948 106.843 611.499 107.256 616.103C107.152 613.84 107.049 611.577 106.972 609.339ZM104.08 582.569C103.667 580.177 103.253 577.837 102.866 575.471C103.434 579.971 104.002 584.523 104.596 589.101C104.415 586.915 104.26 584.755 104.08 582.569ZM106.455 595.967C105.836 592.547 105.242 589.152 104.648 585.758C104.906 589.152 105.19 592.547 105.474 595.993C105.913 599.259 106.352 602.576 106.817 605.893C106.688 602.55 106.584 599.258 106.455 595.967ZM108.934 609.416C108.237 605.662 107.54 601.882 106.868 598.204C106.998 601.882 107.152 605.585 107.282 609.313C107.798 613.017 108.314 616.771 108.857 620.526C108.857 616.771 108.882 613.094 108.934 609.416ZM100.155 555.67C99.6643 553.355 99.1737 551.041 98.6831 548.778C99.4061 553.278 100.155 557.83 100.93 562.407C100.671 560.144 100.413 557.907 100.155 555.67ZM103.073 569.145C102.324 565.699 101.575 562.279 100.852 558.858C101.239 562.227 101.653 565.648 102.066 569.042C102.634 572.411 103.228 575.78 103.822 579.2C103.563 575.831 103.305 572.488 103.073 569.145ZM106.042 582.594C105.19 578.788 104.364 575.034 103.537 571.279C103.822 575.008 104.106 578.763 104.39 582.543C105.035 586.246 105.706 589.975 106.378 593.73C106.249 589.975 106.145 586.272 106.042 582.594ZM109.063 596.044C108.159 592.084 107.256 588.123 106.378 584.24C106.481 588.098 106.636 592.032 106.765 595.941C107.462 599.824 108.185 603.785 108.934 607.745C108.986 603.81 109.012 599.901 109.063 596.044ZM112.317 607.359C111.697 605.61 111.077 603.887 110.458 602.139C110.096 600.544 109.735 598.95 109.373 597.355C109.321 601.316 109.27 605.353 109.244 609.391C109.657 611.679 110.07 613.942 110.509 616.257C110.897 617.363 111.258 618.443 111.645 619.548C111.852 615.434 112.084 611.371 112.317 607.359ZM95.2489 528.822C94.7066 526.636 94.1386 524.399 93.5963 522.239C94.5001 526.713 95.4038 531.214 96.3334 535.765C95.9461 533.425 95.5846 531.111 95.2489 528.822ZM98.6573 542.272C97.7794 538.851 96.9273 535.431 96.0752 532.062C96.5916 535.405 97.1338 538.774 97.6761 542.169C98.3732 545.589 99.0962 548.984 99.8192 552.455C99.4061 549.009 99.0188 545.615 98.6573 542.272ZM102.117 555.747C101.11 551.941 100.155 548.161 99.1737 544.38C99.5868 548.083 100.026 551.838 100.465 555.593C101.265 559.347 102.066 563.127 102.892 566.933C102.634 563.205 102.376 559.45 102.117 555.747ZM105.681 569.222C104.622 565.236 103.589 561.276 102.556 557.341C102.814 561.224 103.099 565.159 103.383 569.094C104.235 573.002 105.113 576.937 105.99 580.897C105.861 576.988 105.758 573.08 105.681 569.222ZM109.296 582.672C108.185 578.608 107.101 574.52 106.016 570.534C106.12 574.494 106.223 578.531 106.352 582.543C107.256 586.555 108.185 590.618 109.089 594.707C109.166 590.669 109.218 586.632 109.296 582.672ZM113.091 594.45C112.291 592.264 111.516 590.129 110.69 587.918C110.303 586.529 109.941 585.166 109.58 583.777C109.502 587.815 109.425 591.904 109.373 595.993C109.838 597.998 110.277 600.004 110.742 602.036C111.284 603.553 111.8 605.045 112.342 606.536C112.601 602.499 112.833 598.436 113.091 594.45ZM117.197 605.636C115.932 602.19 114.641 598.667 113.375 595.195C113.117 599.181 112.885 603.27 112.652 607.333C113.788 610.522 114.925 613.685 116.035 616.848C116.396 613.068 116.784 609.314 117.197 605.636ZM89.3358 502.026C88.7161 499.84 88.0706 497.628 87.4509 495.443C88.5096 499.891 89.5682 504.366 90.6527 508.892C90.2138 506.603 89.749 504.289 89.3358 502.026ZM93.2348 515.45C92.2536 512.107 91.2724 508.738 90.317 505.42C90.9367 508.686 91.5823 512.004 92.2278 515.321C93.0541 518.716 93.9062 522.11 94.7583 525.556C94.2419 522.187 93.7254 518.793 93.2348 515.45ZM97.2113 528.925C96.0752 525.145 94.9649 521.39 93.8804 517.687C94.4226 521.339 94.9907 525.042 95.5587 528.771C96.4883 532.525 97.4437 536.305 98.4249 540.111C98.0117 536.357 97.5986 532.628 97.2113 528.925ZM101.291 542.426C100.077 538.44 98.8897 534.505 97.7277 530.571C98.1409 534.428 98.554 538.311 98.9671 542.194C99.9742 546.129 100.981 550.089 102.04 554.101C101.756 550.192 101.523 546.283 101.291 542.426ZM105.422 555.927C104.157 551.838 102.918 547.775 101.678 543.737C101.911 547.698 102.169 551.684 102.427 555.695C103.486 559.707 104.545 563.796 105.629 567.859C105.552 563.873 105.474 559.887 105.422 555.927ZM109.631 569.428C108.34 565.288 107.023 561.122 105.758 557.033C105.836 561.044 105.913 565.082 105.99 569.171C107.075 573.26 108.211 577.426 109.321 581.566C109.399 577.477 109.502 573.44 109.631 569.428ZM113.969 581.72C112.962 579.046 111.981 576.423 110.948 573.722C110.587 572.591 110.251 571.485 109.889 570.354C109.786 574.417 109.683 578.506 109.58 582.62C110.044 584.343 110.509 586.066 110.974 587.815C111.697 589.795 112.394 591.698 113.117 593.652C113.427 589.666 113.685 585.68 113.969 581.72ZM118.54 593.807C117.119 590.052 115.673 586.22 114.253 582.44C113.969 586.4 113.685 590.386 113.427 594.424C114.718 597.947 116.009 601.47 117.274 604.942C117.687 601.187 118.101 597.484 118.54 593.807ZM123.213 606.382C121.741 602.422 120.27 598.487 118.772 594.475C118.359 598.153 117.92 601.856 117.507 605.61C118.875 609.365 120.218 613.068 121.561 616.797C122.103 613.299 122.671 609.828 123.213 606.382ZM82.4674 475.358C81.7444 473.147 81.0472 470.935 80.3242 468.749C81.5378 473.172 82.7514 477.621 84.0167 482.096C83.5003 479.859 82.958 477.596 82.4674 475.358ZM86.857 488.756C85.7467 485.439 84.6622 482.096 83.5777 478.83C84.3265 482.044 85.0495 485.285 85.8242 488.551C86.7795 491.919 87.7349 495.34 88.7161 498.734C88.0964 495.417 87.4509 492.074 86.857 488.756ZM91.3499 502.206C90.0846 498.451 88.8452 494.723 87.6058 491.019C88.2772 494.645 88.9485 498.297 89.6457 501.974C90.7302 505.703 91.8147 509.484 92.925 513.29C92.3827 509.561 91.8405 505.858 91.3499 502.206ZM95.8944 515.681C94.5517 511.721 93.209 507.786 91.8921 503.877C92.4344 507.709 92.9766 511.515 93.5447 515.398C94.7066 519.333 95.8686 523.293 97.0564 527.279C96.6432 523.37 96.2817 519.513 95.8944 515.681ZM100.542 529.156C99.1221 525.068 97.7277 521.004 96.3592 516.967C96.7465 520.902 97.1338 524.862 97.547 528.848C98.7606 532.885 99.9742 536.948 101.214 541.037C100.955 537.051 100.749 533.117 100.542 529.156ZM105.242 542.683C103.77 538.491 102.324 534.377 100.904 530.236C101.11 534.248 101.343 538.286 101.575 542.375C102.814 546.489 104.08 550.629 105.371 554.795C105.319 550.706 105.293 546.695 105.242 542.683ZM110.019 556.184C108.521 551.967 107.023 547.775 105.577 543.609C105.629 547.672 105.681 551.761 105.732 555.901C107.023 560.041 108.34 564.259 109.657 568.451C109.76 564.31 109.889 560.247 110.019 556.184ZM114.925 569.094C113.685 565.905 112.472 562.742 111.232 559.527C110.922 558.679 110.638 557.83 110.328 556.981C110.199 561.07 110.07 565.21 109.941 569.376C110.38 570.791 110.819 572.205 111.258 573.62C112.188 576.088 113.091 578.506 114.021 580.949C114.305 576.988 114.615 573.028 114.925 569.094ZM119.934 582.054C118.359 577.991 116.784 573.877 115.183 569.762C114.873 573.697 114.589 577.657 114.305 581.669C115.751 585.5 117.197 589.332 118.617 593.112C119.056 589.409 119.495 585.732 119.934 582.054ZM125.021 595.35C123.42 591.158 121.819 586.94 120.192 582.723C119.753 586.4 119.314 590.078 118.875 593.807C120.373 597.818 121.845 601.804 123.342 605.765C123.885 602.242 124.453 598.796 125.021 595.35ZM130.133 608.825C128.507 604.53 126.88 600.261 125.227 595.915C124.659 599.361 124.091 602.833 123.523 606.33C125.072 610.471 126.57 614.56 128.093 618.648C128.791 615.357 129.462 612.091 130.133 608.825ZM74.6436 448.794C73.8431 446.556 73.0427 444.345 72.2422 442.133C73.6107 446.505 74.9793 450.928 76.3994 455.377C75.8055 453.165 75.2117 450.979 74.6436 448.794ZM79.498 462.14C78.2586 458.797 77.045 455.454 75.8314 452.137C76.6835 455.377 77.5356 458.591 78.4135 461.883C79.4722 465.226 80.5825 468.621 81.6669 471.99C80.9698 468.698 80.221 465.406 79.498 462.14ZM84.4815 475.538C83.0871 471.809 81.6928 468.081 80.3501 464.403C81.1505 468.004 81.951 471.629 82.7773 475.281C83.9909 478.984 85.2044 482.739 86.4439 486.493C85.7725 482.816 85.127 479.164 84.4815 475.538ZM89.5424 488.962C88.0448 485.028 86.573 481.067 85.1012 477.184C85.7725 480.99 86.4697 484.822 87.1669 488.679C88.4579 492.588 89.7748 496.523 91.0917 500.457C90.5494 496.6 90.033 492.794 89.5424 488.962ZM94.655 502.437C93.0799 498.349 91.5306 494.311 90.0072 490.274C90.5236 494.208 91.0658 498.143 91.6339 502.129C92.9766 506.166 94.371 510.204 95.7395 514.292C95.378 510.307 95.0165 506.346 94.655 502.437ZM99.8709 515.913C98.2441 511.747 96.6432 507.606 95.0681 503.492C95.4296 507.503 95.7911 511.515 96.2043 515.604C97.5986 519.719 99.0188 523.859 100.465 528.025C100.258 523.962 100.052 519.924 99.8709 515.913ZM105.164 529.439C103.512 525.196 101.859 521.004 100.232 516.838C100.413 520.902 100.62 524.99 100.852 529.105C102.298 533.271 103.744 537.463 105.242 541.68C105.19 537.566 105.164 533.477 105.164 529.439ZM110.509 542.94C108.805 538.671 107.127 534.428 105.474 530.236C105.5 534.325 105.526 538.466 105.552 542.632C107.023 546.823 108.521 551.066 110.044 555.31C110.199 551.144 110.354 547.029 110.509 542.94ZM115.932 556.57C114.434 552.815 112.988 549.112 111.465 545.332C111.232 544.766 111.026 544.2 110.793 543.66C110.638 547.775 110.483 551.941 110.328 556.133C110.716 557.238 111.103 558.318 111.49 559.45C112.652 562.459 113.788 565.416 114.95 568.399C115.286 564.413 115.596 560.479 115.932 556.57ZM121.38 570.354C119.676 566.008 117.92 561.636 116.19 557.238C115.854 561.147 115.544 565.082 115.234 569.068C116.835 573.182 118.436 577.323 120.011 581.411C120.476 577.708 120.915 574.005 121.38 570.354ZM126.854 584.292C125.124 579.869 123.368 575.42 121.612 570.971C121.148 574.622 120.683 578.326 120.244 582.029C121.896 586.298 123.497 590.515 125.098 594.732C125.692 591.235 126.286 587.738 126.854 584.292ZM132.354 598.41C130.598 593.91 128.868 589.409 127.086 584.857C126.492 588.303 125.924 591.801 125.331 595.298C126.983 599.644 128.636 603.965 130.262 608.259C130.96 604.967 131.657 601.65 132.354 598.41ZM137.854 612.605C136.124 608.079 134.342 603.527 132.586 598.95C131.889 602.216 131.192 605.508 130.495 608.799C132.173 613.197 133.826 617.594 135.452 621.94C136.227 618.828 137.028 615.717 137.854 612.605ZM1002.79 546.052C997.285 539.366 991.579 532.937 985.666 526.791C980.372 523.216 975.079 519.564 969.786 515.861C975.828 522.059 981.689 528.513 987.396 535.225C992.508 538.877 997.647 542.477 1002.79 546.052ZM1016.5 563.616C1012.29 557.933 1007.95 552.352 1003.51 546.926C998.396 543.403 993.309 539.829 988.222 536.177C992.844 541.629 997.337 547.209 1001.75 552.892C1006.66 556.544 1011.56 560.119 1016.5 563.616ZM1028.01 579.791C1024.45 574.597 1020.81 569.454 1017.09 564.413C1012.21 560.942 1007.33 557.393 1002.45 553.792C1006.35 558.833 1010.17 563.976 1013.94 569.145C1018.61 572.771 1023.31 576.32 1028.01 579.791ZM1038.19 595.093C1035.01 590.206 1031.81 585.346 1028.53 580.563C1023.86 577.117 1019.21 573.62 1014.56 570.045C1018.02 574.828 1021.43 579.663 1024.81 584.549C1029.25 588.123 1033.72 591.647 1038.19 595.093ZM1047.51 609.776C1044.62 605.122 1041.67 600.467 1038.7 595.864C1034.26 592.444 1029.85 588.972 1025.43 585.423C1028.58 590.001 1031.7 594.63 1034.8 599.258C1039.04 602.833 1043.25 606.356 1047.51 609.776ZM896.066 469.289L895.989 469.264C899.087 472.092 902.186 474.921 905.285 477.75C903.348 475.924 901.386 474.073 899.423 472.247C898.339 471.269 897.203 470.267 896.066 469.289ZM898.984 470.189C898.339 469.984 897.693 469.752 897.022 469.546C897.9 470.369 898.778 471.192 899.681 472.015C904.562 476.31 909.416 480.604 914.296 484.899C909.209 479.936 904.097 475.024 898.984 470.189ZM902.961 471.527C901.928 471.167 900.921 470.832 899.888 470.498C905.026 474.844 910.191 479.19 915.329 483.51C911.249 479.473 907.118 475.461 902.961 471.527ZM905.104 472.272C904.639 472.092 904.148 471.938 903.658 471.784C908.564 476.438 913.418 481.17 918.273 485.979C923.592 490.454 928.911 494.903 934.23 499.326C928.343 493.18 922.378 487.162 916.336 481.273C912.592 478.264 908.848 475.281 905.104 472.272ZM908.177 473.43C907.479 473.147 906.782 472.89 906.059 472.607C908.719 474.741 911.353 476.85 914.012 478.984C912.076 477.133 910.113 475.281 908.177 473.43ZM914.425 475.976C912.618 475.204 910.784 474.458 908.951 473.738C911.507 476.156 914.038 478.573 916.568 481.042C922.275 485.593 927.981 490.119 933.714 494.62C927.388 488.191 920.958 481.967 914.425 475.976ZM916.491 476.85C916.104 476.67 915.69 476.49 915.303 476.336C922.197 482.687 928.963 489.296 935.599 496.085C941.073 500.38 946.547 504.623 952.021 508.841C945.204 501.563 938.232 494.517 931.08 487.805C926.2 484.179 921.345 480.527 916.491 476.85ZM921.629 479.216C920.312 478.599 919.021 477.981 917.679 477.364C921.449 480.219 925.218 483.047 929.014 485.876C926.561 483.639 924.108 481.402 921.629 479.216ZM929.634 483.279C927.336 482.045 925.012 480.862 922.636 479.704C925.554 482.276 928.42 484.899 931.261 487.573C937.096 491.919 942.932 496.214 948.767 500.483C942.596 494.465 936.218 488.705 929.634 483.279ZM938.026 488.062C935.702 486.673 933.352 485.31 930.977 484.025C937.69 489.631 944.171 495.545 950.497 501.743C956.023 505.755 961.575 509.715 967.126 513.624C960.697 507.169 954.035 501.023 947.115 495.263C944.145 492.768 941.124 490.377 938.026 488.062ZM968.83 510.692C960.025 503.003 950.73 495.983 940.866 489.811C943.061 491.508 945.204 493.257 947.347 495.031C954.706 501.152 961.781 507.735 968.598 514.627C973.917 518.356 979.262 522.059 984.607 525.685C979.52 520.439 974.279 515.424 968.83 510.692ZM929.815 483.022C931.906 484.153 933.946 485.31 935.986 486.493C931.545 483.202 927.026 480.064 922.378 477.107C923.282 477.801 924.186 478.47 925.064 479.164C926.664 480.45 928.24 481.736 929.815 483.022ZM921.784 478.959C924.031 480.013 926.226 481.144 928.42 482.276C927.233 481.299 926.045 480.347 924.857 479.396C923.204 478.084 921.552 476.824 919.874 475.564C917.653 474.201 915.432 472.864 913.16 471.604C916.078 474.021 918.944 476.464 921.784 478.959ZM916.646 476.593C918.014 477.21 919.383 477.801 920.751 478.444C917.73 475.821 914.683 473.25 911.611 470.729C909.493 469.546 907.35 468.415 905.181 467.309C906.808 468.698 908.409 470.112 910.01 471.527C912.205 473.224 914.425 474.921 916.646 476.593ZM914.606 475.693C914.89 475.821 915.174 475.95 915.458 476.053C914.554 475.384 913.676 474.69 912.773 474.021C913.367 474.587 913.986 475.153 914.606 475.693ZM908.331 473.172C910.139 473.867 911.921 474.587 913.702 475.307C912.385 474.124 911.094 472.941 909.777 471.758C907.04 469.675 904.329 467.592 901.592 465.509C900.508 464.995 899.397 464.48 898.313 463.966C901.695 467.001 905.026 470.061 908.331 473.172ZM905.259 471.99C906.033 472.272 906.808 472.581 907.557 472.864C904.174 469.701 900.766 466.589 897.332 463.529C895.757 462.809 894.181 462.14 892.581 461.446C893.562 462.346 894.543 463.246 895.524 464.146C898.778 466.769 902.031 469.392 905.259 471.99ZM903.141 471.269C903.555 471.424 903.994 471.552 904.407 471.681C902.548 470.189 900.688 468.698 898.829 467.181C900.249 468.544 901.695 469.906 903.141 471.269ZM899.242 469.958C900.301 470.292 901.36 470.678 902.418 471.038C900.043 468.801 897.693 466.589 895.292 464.403C893.768 463.169 892.245 461.935 890.696 460.7C889.792 460.34 888.888 459.954 887.984 459.594C891.522 462.835 895.059 466.126 898.597 469.444L898.649 469.495L899.242 469.958ZM896.531 469.084C897.177 469.289 897.822 469.469 898.442 469.675L898.416 469.649C894.026 465.946 889.611 462.217 885.221 458.514L884.937 458.411C888.785 461.935 892.658 465.509 896.531 469.084ZM895.498 468.801L895.55 468.826L894.569 467.978L895.498 468.801ZM180.898 622.789C336.16 289.559 479.623 234.398 620.813 282.873C702.511 310.93 783.46 373.677 865.468 437.247L866.579 438.096C867.302 438.61 867.999 439.15 868.722 439.664C871.975 441.773 875.203 443.959 878.405 446.222C880.677 447.842 882.923 449.488 885.17 451.159C890.954 454.863 896.609 458.771 902.134 462.912L902.367 463.092C908.435 466.898 914.322 470.987 920.08 475.333C926.329 479.19 932.371 483.356 938.232 487.779C949.181 494.363 959.406 502 969.063 510.435C974.873 515.527 980.476 520.902 985.872 526.508C1058.66 575.677 1132.98 613.017 1210 616.025V616.334C1133.34 613.325 1059.36 576.397 986.905 527.562C992.715 533.657 998.318 540.034 1003.74 546.643C1054.38 581.514 1105.91 609.725 1159.18 622.737H1157.87C1105.32 609.674 1054.43 581.874 1004.46 547.518C1008.88 552.918 1013.14 558.473 1017.32 564.13C1050.79 587.892 1084.74 608.362 1119.6 622.737H1118.77C1084.43 608.465 1050.92 588.329 1017.92 564.927C1021.61 569.968 1025.25 575.085 1028.79 580.306C1050.48 596.301 1072.42 610.728 1094.79 622.737H1094.11C1072.17 610.882 1050.61 596.738 1029.33 581.077C1032.61 585.86 1035.81 590.721 1038.96 595.633C1051.54 605.328 1064.24 614.431 1077.1 622.763H1076.5C1064.03 614.662 1051.69 605.816 1039.45 596.43C1042.42 601.033 1045.36 605.688 1048.26 610.368C1053.52 614.637 1058.84 618.777 1064.16 622.789H1063.65C1058.66 619.034 1053.7 615.151 1048.75 611.165C1051.15 615.023 1053.5 618.906 1055.87 622.789H1055.51C1053.03 618.7 1050.55 614.637 1048.02 610.574C1043.82 607.179 1039.63 603.733 1035.47 600.21C1038.42 604.607 1041.34 609.031 1044.23 613.428C1047.77 616.591 1051.33 619.729 1054.89 622.789H1054.4C1051.23 620.063 1048.05 617.285 1044.9 614.457C1046.71 617.234 1048.54 620.011 1050.35 622.789H1049.96C1047.97 619.729 1045.98 616.694 1044 613.634C1040.12 610.162 1036.28 606.639 1032.43 603.09C1035.37 607.256 1038.32 611.448 1041.26 615.614C1043.71 618.031 1046.14 620.423 1048.62 622.789H1048.18C1046.22 620.886 1044.25 618.957 1042.29 617.028L1046.35 622.789H1045.96L1041.59 616.591L1041.05 615.82C1037.64 612.451 1034.21 609.005 1030.83 605.559C1033.69 609.365 1036.59 613.145 1039.45 616.9C1041.26 618.88 1043.09 620.86 1044.93 622.814H1044.51C1043.53 621.76 1042.55 620.68 1041.54 619.626C1042.37 620.706 1043.17 621.76 1044 622.814H1043.61C1042.14 620.911 1040.69 619.008 1039.22 617.105C1037.08 614.765 1034.91 612.399 1032.76 610.008C1036.33 614.328 1039.89 618.597 1043.45 622.814H1043.04C1037.98 616.823 1032.94 610.728 1027.91 604.607C1020.19 595.967 1012.49 587.172 1004.8 578.326C996.33 569.273 987.886 560.093 979.417 550.912L979.391 550.886C974.098 545.486 968.805 540.034 963.485 534.583C959.354 530.339 955.223 526.096 951.091 521.853L947.451 518.304C937.871 508.969 928.265 499.609 918.608 490.351C910.888 483.227 903.167 476.13 895.421 469.084C810.65 443.676 688.722 474.433 495.141 622.814H494.651C688.051 474.535 810.03 443.522 894.904 468.621C890.799 464.892 886.719 461.214 882.588 457.537C793.324 425.598 666.026 455.428 461.083 622.814H460.592C665.225 455.608 792.575 425.418 881.942 456.971C880.496 455.66 879.024 454.374 877.578 453.088C875.1 450.954 872.647 448.819 870.168 446.685C776.127 407.596 643.871 435.576 428.858 622.814H428.393C643.045 435.833 775.327 407.416 869.445 446.042C865.752 442.879 862.06 439.716 858.367 436.578C759.137 389.672 622.233 414.72 398.389 622.789H397.95C621.303 415.131 758.207 389.492 857.464 435.807C854.133 433.004 850.802 430.201 847.445 427.423C742.482 371.928 601.085 392.835 369.625 622.789H369.186C599.949 393.453 741.294 371.774 846.257 426.446C843.365 424.055 840.448 421.663 837.556 419.297C726.137 354.467 580.325 369.665 342.487 622.789H342.073C579.008 370.591 724.717 354.287 836.084 418.089C833.682 416.16 831.307 414.231 828.906 412.302C828.647 412.148 828.415 411.994 828.157 411.84C709.56 337.443 559.333 345.955 317.027 622.789H316.614C558.171 346.726 708.321 337.186 826.84 410.682C825.213 409.397 823.586 408.111 821.96 406.825C815.246 402.273 808.429 397.979 801.561 393.941C678.187 321.602 526.617 335.386 293.091 622.789H292.703C526.462 335.051 678.187 321.242 801.716 393.684C807.422 397.027 813.051 400.55 818.629 404.253C818.19 403.919 817.751 403.559 817.312 403.225C803.11 393.067 788.676 383.809 773.881 375.734C646.143 306.043 493.979 325.691 270.704 622.789H270.316C493.824 325.356 646.143 305.683 774.036 375.477C785.784 381.906 797.352 389.055 808.739 396.847C787.979 381.726 766.857 368.251 745.167 357.296C613.505 290.845 461.47 316.896 249.763 622.789H249.375C461.29 316.561 613.48 290.511 745.245 357.039C764.43 366.734 783.15 378.357 801.587 391.395C773.39 370.591 744.754 352.384 715.344 338.729C580.454 276.084 429.375 308.975 230.448 622.789H230.087C429.194 308.641 580.454 275.75 715.499 338.446C746.665 352.924 776.953 372.468 806.777 394.841C766.702 364.316 726.215 337.726 684.669 320.11C547.093 261.786 397.77 301.852 212.632 622.789H212.27C397.563 301.543 547.068 261.452 684.798 319.827C731.818 339.757 777.444 371.157 822.657 406.748C824.025 407.751 825.394 408.754 826.737 409.782C828.183 410.785 829.629 411.814 831.075 412.817C772.177 366.502 713.278 324.636 653.089 301.543C513.474 247.977 366.733 295.474 196.235 622.763H195.874C366.474 295.191 513.371 247.642 653.167 301.286C715.499 325.202 776.437 369.228 837.427 417.471C837.891 417.831 838.382 418.166 838.847 418.526C843.624 421.766 848.375 425.16 853.048 428.632C853.281 428.786 853.539 428.941 853.771 429.095C855.785 430.432 857.774 431.821 859.762 433.21C779.639 371.131 700.523 310.57 620.71 283.156C479.674 234.733 336.367 289.842 181.233 622.789H180.898ZM167.393 622.789C306.673 284.519 445.926 221.695 587.891 264.718C673.669 290.717 760.402 355.367 848.736 421.174C965.913 508.506 1085.88 597.87 1210 601.779V602.087C1085.77 598.178 965.758 508.764 848.53 421.406C760.221 355.598 673.514 290.974 587.788 265.001C446.004 222.029 306.905 284.802 167.729 622.763H167.393V622.789ZM155.283 622.789C278.14 280.019 412.436 209.531 554.504 246.896C644.181 270.478 736.931 337.057 831.849 405.153C954.939 493.488 1081.67 584.395 1209.97 587.558V587.866C1081.57 584.729 954.81 493.771 831.668 405.411C736.776 337.314 644.052 270.787 554.427 247.205C412.539 209.865 278.373 280.327 155.619 622.789H155.283ZM144.593 622.789C250.666 275.956 379.307 197.882 520.885 229.461C614.228 250.291 713.149 318.747 814.91 389.158C943.939 478.444 1077.54 570.868 1210 573.26V573.568C1077.46 571.177 943.81 478.727 814.73 389.415C712.994 319.03 614.099 250.574 520.833 229.77C379.437 198.216 250.925 276.239 144.903 622.789H144.593ZM107.54 622.789L107.514 622.506C106.662 613.557 105.887 604.71 105.164 596.044C103.951 586.915 102.814 577.94 101.756 569.094C100.207 559.99 98.7347 551.041 97.3404 542.246C95.4555 533.142 93.648 524.193 91.918 515.398C89.6973 506.346 87.5542 497.397 85.5143 488.654C82.958 479.627 80.505 470.704 78.1553 461.986C75.2891 453.011 72.5263 444.19 69.8925 435.524C-29.2091 156.89 -15.8596 37.9274 65.6578 8.09674C159.569 -26.26 343.933 57.7545 551.044 152.158C772.306 252.991 1019.52 365.653 1210 358.35V358.659C1019.44 365.936 772.202 253.3 550.915 152.441C343.855 58.0631 159.544 -25.9257 65.7611 8.37962C-14.9042 37.9017 -28.6152 155.116 67.801 428.684C-12.8385 162.213 8.41232 49.1396 91.6856 21.9063C188.231 -9.69881 368.153 74.1357 569.093 167.819C784.08 268.035 1023.16 379.437 1210 372.725V373.034C1023.11 379.746 783.977 268.318 568.964 168.102C368.075 74.4443 188.231 -9.39021 91.7888 22.1892C7.97336 49.6025 -12.8643 164.245 70.1765 435.421C71.3385 438.687 72.5521 442.005 73.7399 445.322C2.78331 173.786 30.7218 60.9176 118.256 35.6644C217.254 7.09381 392.476 90.6454 587.09 183.481C795.803 283.028 1026.85 393.221 1209.97 387.075V387.384C1026.75 393.53 795.7 283.31 586.935 183.763C392.399 90.954 217.228 7.4024 118.333 35.9473C30.5927 61.2776 2.88659 174.891 74.9276 448.691C76.2445 452.368 77.613 456.071 78.9816 459.8C18.7408 184.355 53.651 72.3098 145.419 49.3968C246.638 24.1179 416.955 107.309 605.062 199.167C807.526 298.046 1030.59 406.979 1210 401.425V401.733C1030.49 407.288 807.422 298.354 604.907 199.45C416.877 107.618 246.587 24.4522 145.497 49.7054C53.651 72.6442 18.8957 185.152 79.8078 462.037C81.228 465.921 82.6998 469.855 84.1716 473.79C35.0339 194.358 77.1224 83.4449 173.203 63.1806C276.307 41.4505 441.536 124.128 622.93 214.88C819.171 313.09 1034.31 420.712 1210 415.748V416.057C1034.24 421.02 819.068 313.373 622.801 215.163C441.459 124.411 276.281 41.7591 173.28 63.4635C77.174 83.7278 35.2147 194.95 84.7913 475.435C86.2889 479.447 87.8124 483.485 89.3617 487.573C51.6886 203.848 101.162 94.2971 201.684 77.0159C306.337 59.0403 466.247 141.1 640.747 230.618C830.765 328.108 1038.08 434.444 1210 430.098V430.407C1038.01 434.753 830.661 328.391 640.592 230.875C466.144 141.383 306.259 59.3489 201.735 77.2988C101.239 94.58 51.8693 204.362 89.8264 488.859C91.3757 492.948 92.9508 497.088 94.5517 501.254C68.7822 212.848 125.821 104.918 230.862 90.954C336.651 76.913 491.061 158.202 658.512 246.356C842.333 343.126 1041.88 448.151 1210 444.422V444.73C1041.8 448.459 842.229 343.435 658.357 246.639C490.932 158.51 336.573 77.2473 230.913 91.2626C125.924 105.201 68.9629 213.311 94.9907 502.36C96.5916 506.526 98.1925 510.718 99.8451 514.935C86.3148 221.386 151.126 115.333 260.763 105.072C367.223 95.12 515.927 175.509 676.199 262.146C853.849 358.196 1045.73 461.909 1210 458.797V459.106C1045.62 462.217 853.72 358.479 676.044 262.429C515.798 175.791 367.146 95.4286 260.788 105.381C151.203 115.616 86.4955 221.823 100.181 515.835C101.807 520.053 103.46 524.27 105.138 528.565C104.39 229.487 177.102 125.594 291.335 119.37C397.976 113.584 540.793 192.918 693.783 277.936C865.262 373.214 1049.55 475.59 1209.97 473.121V473.43C1049.47 475.898 865.159 373.497 693.628 278.193C540.69 193.227 397.925 113.893 291.386 119.679C177.231 125.876 104.596 229.872 105.5 529.362C107.152 533.58 108.857 537.874 110.561 542.169C123.11 237.124 203.853 135.726 322.656 133.951C428.962 132.357 565.736 210.508 711.342 293.751C876.675 388.258 1053.45 489.245 1210 487.445V487.753C1053.39 489.579 876.571 388.541 711.187 294.034C565.607 210.817 428.884 132.666 322.656 134.26C203.93 136.034 123.265 237.51 110.845 542.889C111.155 543.66 111.465 544.457 111.774 545.229C113.195 548.803 114.589 552.327 116.009 555.875C142.424 244.376 231.301 145.832 354.597 148.867C460.024 151.438 590.602 228.278 728.797 309.592C888.01 403.276 1057.37 502.9 1209.97 501.743V502.052C1057.29 503.209 887.881 403.559 728.616 309.849C590.473 228.561 459.947 151.747 354.597 149.15C231.378 146.141 142.605 244.736 116.267 556.518C118.023 560.942 119.779 565.339 121.483 569.711C162.41 251.268 259.471 155.939 387.131 164.116C491.139 170.777 615.442 246.151 746.2 325.459C899.32 418.32 1061.35 516.556 1210 516.067V516.375C1061.27 516.838 899.217 418.603 746.045 325.716C615.313 246.434 491.061 171.085 387.131 164.425C259.575 156.247 162.59 251.628 121.741 570.328C123.497 574.802 125.253 579.277 127.009 583.7C183.118 257.852 288.365 166.122 420.157 179.777C522.202 190.347 640.153 264.152 763.501 341.326C910.552 433.338 1065.32 530.159 1209.97 530.391V530.699C1065.22 530.468 910.423 433.621 763.32 341.583C639.998 264.409 522.099 190.655 420.105 180.086C288.417 166.431 183.247 258.212 127.19 584.266C128.971 588.844 130.727 593.344 132.483 597.844C204.55 264.229 317.931 176.46 453.543 195.901C553.136 210.174 664.709 282.282 780.723 357.27C921.758 448.408 1069.35 543.763 1209.97 544.715V545.023C1069.25 544.097 921.604 448.691 780.542 357.527C664.554 282.565 553.006 210.482 453.492 196.21C317.982 176.769 204.705 264.589 132.69 598.384C134.471 602.987 136.253 607.539 137.983 612.091C226.782 270.427 348.116 187.004 487.188 212.463C583.863 230.181 689.058 300.489 797.869 373.188C932.887 463.426 1073.43 557.316 1210 558.961V559.27C1073.35 557.624 932.758 463.683 797.688 373.42C688.903 300.72 583.734 230.438 487.111 212.745C348.141 187.287 226.911 270.761 138.164 612.579C139.481 615.974 140.797 619.394 142.088 622.763H141.753C140.513 619.548 139.274 616.334 138.035 613.094C137.234 616.205 136.434 619.317 135.633 622.454L135.736 622.763H135.22L135.298 622.48C133.671 618.134 132.018 613.762 130.34 609.365C129.668 612.631 128.971 615.922 128.3 619.214L129.617 622.763H129.281L128.197 619.806L127.603 622.763H127.267L127.99 619.24C126.492 615.177 124.969 611.088 123.446 606.973C122.903 610.419 122.335 613.891 121.793 617.388L123.73 622.763H123.394L121.69 618.031C121.457 619.6 121.199 621.169 120.967 622.763H120.657C120.915 620.963 121.199 619.188 121.483 617.414C120.14 613.711 118.824 610.034 117.455 606.279C117.042 609.982 116.655 613.737 116.267 617.491C116.887 619.266 117.507 621.014 118.126 622.763H117.791C117.274 621.246 116.732 619.754 116.19 618.237C116.035 619.754 115.88 621.246 115.725 622.763H115.415C115.596 621.014 115.777 619.266 115.957 617.543C114.847 614.431 113.737 611.268 112.601 608.105C112.368 612.142 112.136 616.205 111.929 620.294L112.781 622.763H112.446L111.878 621.143L111.8 622.763H111.49L111.619 620.346C111.155 618.983 110.716 617.671 110.225 616.308V616.283C109.889 614.508 109.58 612.759 109.244 611.011C109.218 614.868 109.192 618.777 109.192 622.686V622.737H108.857V622.712C108.392 619.368 107.901 616 107.436 612.682C107.566 615.923 107.695 619.137 107.85 622.429L107.875 622.737H107.54V622.789Z" fill="#3A6E95" fill-opacity="0.4"></path></svg>