<svg xmlns="http://www.w3.org/2000/svg" width="42" height="42" viewBox="0 0 42 42" fill="none"><g clip-path="url(#clip0_309_352)"><path d="M32.1971 33.0269L32.3953 33.6487C32.6027 34.293 32.551 34.5751 32.3756 34.8048C32.1987 35.0343 31.7703 35.2655 31.085 35.4917L28.0091 36.5035C27.3251 36.7273 26.8432 36.7932 26.5695 36.7124C26.2977 36.6316 26.0932 36.4353 25.8873 35.7917L25.6675 35.1999L32.1971 33.0269ZM26.2401 22.5174L26.84 24.3195C27.0233 24.8789 26.7951 25.4891 25.9473 25.8358L24.0453 22.9398C24.1937 22.9394 24.3445 22.9273 24.5041 22.892L26.2401 22.5174ZM20.2243 19.8285L21.2102 20.1858L28.137 30.7387C28.2737 30.9456 28.2937 31.1004 28.2439 31.2405C28.1195 31.586 27.7734 31.7862 27.499 31.7298C27.3544 31.7001 27.2154 31.643 27.0788 31.4358L22.8388 24.9703C22.7208 23.6794 22.4321 22.8515 21.9898 22.3263C21.6083 21.8748 21.1122 21.6942 20.6627 21.6643L20.1598 20.8932L20.2243 19.8285ZM28.2814 20.0818L29.8382 24.7692C30.0206 25.3134 30.837 25.0405 30.656 24.4966L30.0262 22.5974C30.6472 23.1056 31.3875 23.7324 31.8616 24.2044C32.3388 24.6795 32.5018 25.1912 32.4326 25.9495L32.1415 29.0499C32.0569 29.9427 31.7546 31.1211 31.9589 32.2018L25.3583 34.395C25.1136 33.8107 24.8173 33.3875 24.3985 32.8999L20.2503 28.0727C19.9556 27.7321 19.973 27.1546 20.1468 26.4819L20.585 24.7792L20.8059 22.6632C20.9803 22.7058 21.1644 22.6815 21.332 22.8805C21.6018 23.1998 21.9053 23.8575 21.9852 25.0547C21.997 25.2379 22.0569 25.3452 22.1448 25.4811L26.3614 31.9105C26.8805 32.7008 27.729 32.7624 28.4325 32.3362C29.1724 31.8866 29.3138 30.9659 28.854 30.2658L26.4253 26.5646C27.4851 26.0387 27.9667 24.9886 27.6533 24.048L26.9334 21.8791C26.8649 21.6716 26.6507 21.5472 26.4358 21.594L24.3242 22.0521C23.6022 22.2087 23.3906 21.9757 23.3032 21.7081C23.1907 21.3721 23.3478 21.1366 23.7142 20.971L26.9108 19.5097C27.6007 19.1939 28.0655 19.429 28.2814 20.0818ZM26.5559 18.7252L23.0722 20.3165C22.8631 20.412 22.7089 20.5619 22.599 20.7347L21.8485 19.5939C21.7966 19.5152 21.7221 19.4564 21.6345 19.4245L19.9774 18.8261C19.6854 18.7206 19.4186 18.9256 19.4017 19.2022L19.2929 20.9828C19.2853 21.0754 19.3099 21.1675 19.3626 21.246L19.9887 22.199L19.7436 24.5944L19.3144 26.2692C19.1193 27.0373 19.0105 27.95 19.5991 28.6351L23.7474 33.4603C24.2363 34.028 24.4472 34.3454 24.6989 35.0665C24.8118 35.3966 24.9449 35.723 25.0666 36.0507C25.3164 36.8314 25.7349 37.3624 26.3248 37.5371C26.9154 37.7123 27.5399 37.5606 28.2776 37.3202L31.3538 36.3064C32.0895 36.0641 32.6799 35.8167 33.0569 35.3278C33.431 34.8374 33.4648 34.1632 33.2154 33.3845L32.8796 32.3491C32.5938 31.4953 32.9021 30.0855 32.9972 29.13L33.2883 26.0297C33.3766 25.0882 33.1186 24.2397 32.4687 23.593C31.4645 22.5955 29.6665 21.2102 29.5308 21.1064L29.0972 19.8076C28.6916 18.5957 27.7103 18.1986 26.5559 18.7252Z" fill="#083A5E"></path><path d="M17.371 14.403C16.7979 14.2852 16.663 15.1535 17.2357 15.2712L27.0406 17.2863C27.6338 17.4082 27.8139 16.5493 27.2173 16.4267L17.371 14.403Z" fill="#083A5E"></path><path d="M12.918 13.4875C12.3449 13.3697 12.2096 14.2379 12.7827 14.3557L15.0679 14.8253C15.6611 14.9472 15.8412 14.0883 15.2445 13.9657L12.918 13.4875Z" fill="#083A5E"></path><path d="M15.7742 10.3869C15.2011 10.2691 15.0657 11.1376 15.6411 11.2559L25.6475 13.3124C26.2384 13.4339 26.4186 12.5746 25.8243 12.4524L15.7742 10.3869Z" fill="#083A5E"></path><path d="M12.1914 17.0237C11.6183 16.9059 11.4829 17.7748 12.056 17.8926L17.7213 19.0569C18.3145 19.1788 18.4947 18.3191 17.8981 18.1965L12.1914 17.0237Z" fill="#083A5E"></path><path fill-rule="evenodd" clip-rule="evenodd" d="M4.15764 29.599L19.3367 32.7187C19.2532 33.6968 19.5564 34.6388 20.1376 35.3698L6.30812 32.5275C4.90839 32.2399 4.11616 30.973 4.15764 29.599ZM34.7872 8.63685C36.2896 8.98716 37.0543 10.2301 37.0121 11.5767L31.5897 10.4623C32.0653 9.17 33.3918 8.38765 34.7872 8.63685ZM15.4983 3.77066C13.4678 3.35334 11.4803 4.66517 11.0635 6.69303L6.44347 29.1725L3.72524 28.6138C3.48993 28.5655 3.2588 28.7181 3.21051 28.953C2.79335 30.9828 4.10131 32.97 6.13144 33.3872L22.3228 36.7149C22.9357 36.8409 23.5388 36.8125 24.0916 36.65C24.643 36.4868 24.4256 35.668 23.8544 35.8121C23.4256 35.9218 22.9682 35.9512 22.4999 35.8549C20.9662 35.5397 19.9758 34.0921 20.2426 32.5647C20.294 32.2663 20.2065 31.988 19.9174 31.9413L7.30319 29.3488L11.9232 6.8697C12.2454 5.30184 13.7514 4.30996 15.3212 4.63258L32.5008 8.16339C31.5581 8.67216 30.8377 9.57907 30.6054 10.7093L29.0949 18.0586C28.9487 18.6488 29.8562 18.8353 29.9549 18.2354L31.3772 11.3153L37.4459 12.5626C37.6831 12.6114 37.9123 12.4587 37.9627 12.2214C38.3795 10.1932 37.0506 8.20014 34.8781 7.75365L15.4983 3.77066Z" fill="#083A5E"></path></g><defs><clipPath id="clip0_309_352"><rect width="34.8721" height="34.8721" fill="white" transform="translate(7.02051) rotate(11.6139)"></rect></clipPath></defs></svg>